<svg width="458" height="117" viewBox="0 0 458 117" fill="none" xmlns="http://www.w3.org/2000/svg">
<path d="M352.154 96.4898C352.076 96.4898 351.998 96.4563 351.943 96.3915C351.864 96.2964 351.782 96.2053 351.697 96.1168C351.592 96.0075 351.595 95.8336 351.705 95.7284C351.814 95.6232 351.988 95.6265 352.093 95.7359C352.186 95.8331 352.277 95.9342 352.364 96.0388C352.461 96.1553 352.446 96.3286 352.33 96.4258C352.278 96.4687 352.216 96.4898 352.154 96.4898ZM350.784 95.292C350.733 95.292 350.681 95.2777 350.635 95.2475C350.449 95.1266 350.248 95.008 350.036 94.8948C349.902 94.8234 349.852 94.657 349.923 94.5232C349.995 94.3892 350.161 94.3389 350.294 94.41C350.52 94.5306 350.736 94.6575 350.934 94.7871C351.062 94.8698 351.097 95.0398 351.015 95.167C350.962 95.248 350.874 95.292 350.784 95.292ZM348.853 94.3329C348.82 94.3329 348.786 94.3268 348.754 94.3139C348.537 94.2293 348.314 94.1477 348.086 94.0678C347.943 94.0178 347.868 93.861 347.918 93.7179C347.968 93.5748 348.125 93.4995 348.267 93.5492C348.502 93.6311 348.73 93.7151 348.953 93.8019C349.094 93.8568 349.164 94.0162 349.109 94.1573C349.067 94.2664 348.963 94.3329 348.853 94.3329ZM346.805 93.6374C346.778 93.6374 346.751 93.6333 346.725 93.625C346.499 93.5555 346.269 93.4861 346.036 93.4155C345.89 93.3718 345.808 93.2185 345.852 93.0732C345.895 92.9282 346.049 92.8458 346.194 92.8895C346.428 92.9601 346.659 93.0301 346.886 93.1001C347.03 93.1449 347.112 93.2985 347.067 93.4435C347.031 93.5616 346.923 93.6374 346.805 93.6374ZM344.734 93.0076C344.707 93.0076 344.68 93.0035 344.653 92.9952C344.425 92.9249 344.195 92.8521 343.961 92.7771C343.817 92.7307 343.738 92.5761 343.784 92.4316C343.83 92.2874 343.985 92.2078 344.13 92.2545C344.361 92.3289 344.589 92.4008 344.814 92.4706C344.959 92.5154 345.04 92.6692 344.995 92.8139C344.96 92.9318 344.851 93.0076 344.734 93.0076ZM342.68 92.3261C342.649 92.3261 342.618 92.3209 342.587 92.3097C342.362 92.2286 342.135 92.144 341.906 92.0561C341.764 92.0018 341.693 91.843 341.748 91.7013C341.802 91.5595 341.961 91.4887 342.102 91.5433C342.328 91.6299 342.551 91.7131 342.773 91.7927C342.916 91.8441 342.99 92.0015 342.939 92.144C342.898 92.2564 342.793 92.3261 342.68 92.3261ZM340.671 91.5252C340.633 91.5252 340.596 91.5178 340.56 91.5019C340.34 91.4046 340.12 91.3038 339.897 91.1984C339.76 91.1335 339.702 90.9696 339.767 90.8325C339.832 90.6954 339.995 90.6369 340.133 90.702C340.35 90.8053 340.567 90.9042 340.782 90.9992C340.92 91.0605 340.983 91.2225 340.922 91.3615C340.877 91.4642 340.776 91.5252 340.671 91.5252ZM338.73 90.5705C338.686 90.5705 338.641 90.5598 338.599 90.537C338.388 90.4219 338.177 90.3024 337.964 90.178C337.833 90.1013 337.789 89.933 337.866 89.8022C337.943 89.6712 338.111 89.6273 338.241 89.7039C338.449 89.8256 338.656 89.9426 338.862 90.0549C338.995 90.1277 339.044 90.2944 338.971 90.4276C338.922 90.5186 338.828 90.5705 338.73 90.5705ZM336.881 89.4507C336.829 89.4507 336.776 89.4355 336.729 89.4042C336.529 89.2707 336.329 89.1329 336.129 88.99C336.006 88.9021 335.976 88.7305 336.065 88.6069C336.152 88.4833 336.323 88.4542 336.447 88.5423C336.644 88.6821 336.839 88.817 337.034 88.9477C337.16 89.0321 337.194 89.2026 337.11 89.3287C337.057 89.4078 336.97 89.4507 336.881 89.4507ZM335.139 88.1707C335.079 88.1707 335.019 88.1509 334.968 88.11C334.781 87.9598 334.594 87.8051 334.406 87.6455C334.291 87.5472 334.277 87.3739 334.375 87.2583C334.473 87.1426 334.647 87.1289 334.762 87.227C334.945 87.383 335.129 87.5346 335.311 87.6818C335.43 87.7768 335.448 87.9496 335.353 88.068C335.299 88.1356 335.22 88.1707 335.139 88.1707ZM333.513 86.7466C333.445 86.7466 333.377 86.7216 333.324 86.6713C333.15 86.5062 332.976 86.3368 332.803 86.1626C332.696 86.0552 332.696 85.8814 332.803 85.774C332.91 85.6668 333.084 85.6668 333.191 85.774C333.362 85.9445 333.532 86.1107 333.702 86.2722C333.812 86.3766 333.817 86.5504 333.712 86.6606C333.658 86.7177 333.586 86.7466 333.513 86.7466ZM332.004 85.1983C331.929 85.1983 331.855 85.1678 331.8 85.1079C331.64 84.9305 331.479 84.7486 331.319 84.563C331.22 84.4481 331.232 84.2748 331.347 84.1754C331.462 84.0765 331.634 84.0886 331.734 84.2034C331.892 84.3863 332.049 84.5646 332.207 84.739C332.309 84.8516 332.301 85.0252 332.188 85.1271C332.136 85.1746 332.07 85.1983 332.004 85.1983ZM208.274 84.0732C208.205 84.0732 208.136 84.0471 208.082 83.9944C207.974 83.8881 207.973 83.714 208.079 83.606C208.247 83.4341 208.419 83.2627 208.593 83.0921C208.701 82.9858 208.875 82.988 208.981 83.0962C209.087 83.2047 209.085 83.3786 208.977 83.4846C208.805 83.6527 208.636 83.8216 208.47 83.9908C208.416 84.0458 208.345 84.0732 208.274 84.0732ZM330.609 83.5461C330.528 83.5461 330.448 83.5104 330.393 83.4418C330.245 83.2539 330.097 83.0622 329.949 82.8666C329.857 82.7458 329.881 82.5735 330.002 82.4818C330.123 82.3901 330.295 82.4142 330.386 82.5351C330.532 82.7279 330.678 82.9166 330.824 83.1015C330.918 83.2207 330.898 83.3932 330.779 83.4874C330.729 83.5266 330.669 83.5461 330.609 83.5461ZM209.834 82.5722C209.76 82.5722 209.685 82.542 209.631 82.4824C209.529 82.3703 209.537 82.1964 209.649 82.0942C209.827 81.9322 210.008 81.7707 210.19 81.61C210.304 81.5098 210.477 81.5208 210.578 81.6347C210.678 81.7487 210.667 81.922 210.553 82.0223C210.373 82.1813 210.194 82.3406 210.019 82.5008C209.966 82.5486 209.9 82.5722 209.834 82.5722ZM329.321 81.8089C329.234 81.8089 329.149 81.768 329.096 81.6913C328.959 81.4949 328.822 81.2952 328.686 81.0917C328.602 80.9659 328.635 80.7951 328.761 80.7105C328.886 80.6253 329.057 80.6594 329.142 80.7852C329.276 80.986 329.411 81.1832 329.546 81.3768C329.633 81.5012 329.602 81.6726 329.478 81.7594C329.43 81.7929 329.375 81.8089 329.321 81.8089ZM211.472 81.156C211.392 81.156 211.314 81.1217 211.26 81.0557C211.163 80.9385 211.18 80.7654 211.297 80.669C211.483 80.5163 211.671 80.3641 211.862 80.2125C211.981 80.1178 212.153 80.1378 212.248 80.2562C212.342 80.3748 212.322 80.5479 212.204 80.6421C212.016 80.7921 211.83 80.9423 211.646 81.0936C211.594 81.1357 211.533 81.156 211.472 81.156ZM328.132 80.0016C328.041 80.0016 327.951 79.9557 327.899 79.8722C327.772 79.6692 327.646 79.4627 327.52 79.2528C327.442 79.1226 327.484 78.954 327.614 78.8757C327.745 78.7974 327.913 78.84 327.991 78.9697C328.115 79.177 328.24 79.3808 328.365 79.5816C328.445 79.7104 328.406 79.8796 328.277 79.9598C328.232 79.9884 328.182 80.0016 328.132 80.0016ZM213.175 79.8211C213.092 79.8211 213.009 79.7829 212.955 79.7107C212.865 79.5893 212.889 79.4171 213.011 79.3264C213.203 79.1825 213.398 79.0391 213.596 78.8963C213.718 78.8073 213.89 78.8348 213.979 78.9578C214.067 79.0809 214.04 79.2526 213.917 79.3413C213.722 79.4825 213.53 79.6242 213.339 79.7665C213.29 79.8035 213.233 79.8211 213.175 79.8211ZM214.937 78.5626C214.85 78.5626 214.764 78.5208 214.71 78.4428C214.625 78.3176 214.657 78.1467 214.782 78.061C214.981 77.9251 215.181 77.7902 215.384 77.6556C215.51 77.5719 215.681 77.6065 215.765 77.7331C215.848 77.8594 215.814 78.03 215.687 78.1138C215.487 78.2465 215.289 78.3802 215.092 78.5145C215.045 78.5469 214.991 78.5626 214.937 78.5626ZM327.033 78.1385C326.936 78.1385 326.843 78.088 326.793 77.9981C326.676 77.7894 326.559 77.5776 326.443 77.3626C326.371 77.2294 326.42 77.0626 326.553 76.9904C326.686 76.9176 326.853 76.9676 326.925 77.1008C327.041 77.3134 327.156 77.523 327.272 77.7295C327.346 77.8619 327.299 78.0292 327.166 78.1033C327.124 78.1272 327.078 78.1385 327.033 78.1385ZM216.749 77.3771C216.657 77.3771 216.568 77.3315 216.516 77.2483C216.435 77.1198 216.474 76.9503 216.603 76.8698C216.806 76.7421 217.012 76.6149 217.219 76.4886C217.35 76.4095 217.518 76.451 217.596 76.5803C217.675 76.71 217.634 76.8789 217.505 76.9577C217.299 77.083 217.096 77.209 216.894 77.3354C216.849 77.3637 216.798 77.3771 216.749 77.3771ZM218.603 76.2609C218.508 76.2609 218.416 76.2117 218.365 76.1236C218.29 75.9923 218.335 75.8242 218.466 75.7484C218.674 75.6281 218.884 75.5086 219.095 75.3896C219.227 75.3152 219.395 75.3622 219.469 75.4943C219.544 75.6264 219.497 75.7939 219.364 75.8684C219.155 75.9862 218.947 76.1049 218.74 76.2241C218.697 76.2491 218.65 76.2609 218.603 76.2609ZM326.015 76.2287C325.915 76.2287 325.818 76.1741 325.77 76.0788C325.661 75.8654 325.553 75.6492 325.445 75.4303C325.378 75.2941 325.434 75.1295 325.57 75.0625C325.706 74.9952 325.871 75.0515 325.938 75.1875C326.045 75.4045 326.151 75.6184 326.259 75.8297C326.328 75.9648 326.274 76.1301 326.139 76.1991C326.099 76.2191 326.057 76.2287 326.015 76.2287ZM220.496 75.2103C220.398 75.2103 220.303 75.1576 220.254 75.0647C220.182 74.931 220.233 74.7645 220.367 74.6931C220.579 74.5799 220.793 74.4673 221.008 74.3555C221.142 74.286 221.308 74.3382 221.378 74.4728C221.448 74.6074 221.395 74.7733 221.261 74.8431C221.047 74.9537 220.835 75.0655 220.625 75.1776C220.584 75.1999 220.54 75.2103 220.496 75.2103ZM325.083 74.2745C324.977 74.2745 324.876 74.2127 324.831 74.1091C324.734 73.8853 324.64 73.6612 324.549 73.4373C324.492 73.2967 324.56 73.1366 324.7 73.0794C324.84 73.0223 325 73.0899 325.058 73.2305C325.147 73.4502 325.239 73.67 325.335 73.89C325.396 74.0289 325.332 74.191 325.193 74.2514C325.157 74.2671 325.119 74.2745 325.083 74.2745ZM222.422 74.222C222.321 74.222 222.223 74.1657 222.176 74.0688C222.109 73.9325 222.165 73.768 222.301 73.701C222.516 73.5947 222.734 73.489 222.952 73.384C223.089 73.3181 223.253 73.3763 223.318 73.5126C223.384 73.6494 223.326 73.8133 223.189 73.879C222.973 73.9831 222.757 74.088 222.543 74.1937C222.504 74.2132 222.463 74.222 222.422 74.222ZM224.378 73.2937C224.273 73.2937 224.174 73.2341 224.128 73.133C224.065 72.9951 224.125 72.8319 224.264 72.769C224.482 72.6691 224.702 72.5699 224.923 72.4713C225.062 72.4098 225.224 72.4719 225.286 72.6103C225.348 72.7487 225.285 72.9113 225.147 72.9731C224.927 73.0712 224.708 73.1698 224.491 73.2689C224.455 73.286 224.416 73.2937 224.378 73.2937ZM226.359 72.4227C226.252 72.4227 226.151 72.3598 226.106 72.2549C226.047 72.1151 226.112 71.9538 226.252 71.8948C226.474 71.8011 226.696 71.708 226.92 71.6154C227.06 71.5578 227.221 71.6242 227.279 71.7643C227.337 71.9044 227.27 72.0651 227.13 72.123C226.907 72.215 226.686 72.3073 226.466 72.4004C226.431 72.4155 226.395 72.4227 226.359 72.4227ZM324.295 72.2576C324.182 72.2576 324.075 72.1865 324.036 72.073C323.956 71.842 323.879 71.6113 323.806 71.3806C323.76 71.2361 323.84 71.0818 323.985 71.0359C324.131 70.99 324.284 71.0702 324.329 71.2147C324.401 71.4405 324.476 71.6668 324.554 71.8929C324.604 72.0362 324.528 72.1928 324.385 72.2425C324.355 72.2527 324.325 72.2576 324.295 72.2576ZM228.364 71.6058C228.255 71.6058 228.151 71.5396 228.109 71.4311C228.053 71.29 228.123 71.1307 228.264 71.0752C228.487 70.9876 228.713 70.9002 228.938 70.8137C229.081 70.7596 229.239 70.8305 229.293 70.9722C229.347 71.1139 229.276 71.2727 229.135 71.3268C228.91 71.4127 228.686 71.4993 228.464 71.5866C228.431 71.5998 228.397 71.6058 228.364 71.6058ZM230.389 70.8417C230.277 70.8417 230.172 70.7722 230.131 70.6604C230.08 70.5179 230.153 70.3602 230.296 70.3086C230.522 70.2265 230.749 70.1452 230.977 70.0641C231.12 70.0133 231.277 70.0886 231.327 70.2314C231.378 70.3745 231.303 70.5313 231.16 70.5819C230.933 70.6621 230.708 70.7431 230.483 70.8247C230.452 70.8362 230.42 70.8417 230.389 70.8417ZM323.667 70.185C323.545 70.185 323.434 70.1031 323.402 69.9793C323.34 69.7428 323.282 69.5066 323.228 69.2706C323.194 69.1228 323.286 68.9754 323.433 68.9413C323.582 68.907 323.729 68.9992 323.763 69.147C323.816 69.378 323.872 69.6093 323.933 69.8411C323.971 69.9878 323.883 70.138 323.736 70.1759C323.713 70.1822 323.69 70.185 323.667 70.185ZM232.432 70.1276C232.318 70.1276 232.211 70.0551 232.172 69.94C232.124 69.7963 232.201 69.6406 232.345 69.5923C232.573 69.5159 232.802 69.4398 233.032 69.3646C233.177 69.317 233.331 69.3961 233.378 69.5401C233.425 69.6843 233.347 69.8392 233.203 69.8864C232.974 69.9614 232.746 70.0369 232.52 70.113C232.491 70.1229 232.461 70.1276 232.432 70.1276ZM234.492 69.4618C234.375 69.4618 234.267 69.3863 234.23 69.2684C234.185 69.1237 234.266 68.9696 234.411 68.9248C234.641 68.8537 234.871 68.7828 235.103 68.713C235.248 68.6688 235.401 68.7512 235.445 68.8962C235.489 69.0415 235.407 69.1948 235.262 69.2388C235.031 69.3085 234.802 69.3788 234.574 69.4497C234.546 69.4579 234.519 69.4618 234.492 69.4618ZM236.566 68.843C236.447 68.843 236.337 68.7641 236.302 68.6436C236.261 68.4977 236.345 68.3458 236.491 68.3041C236.722 68.2379 236.954 68.1722 237.187 68.1074C237.334 68.067 237.485 68.1522 237.525 68.2983C237.566 68.4444 237.481 68.5958 237.335 68.6367C237.103 68.7012 236.872 68.7666 236.642 68.8322C236.617 68.8394 236.591 68.843 236.566 68.843ZM238.654 68.2692C238.532 68.2692 238.421 68.1879 238.389 68.0646C238.35 67.9179 238.438 67.7676 238.584 67.7289C238.817 67.6674 239.05 67.607 239.284 67.5468C239.432 67.5086 239.581 67.5979 239.618 67.7448C239.656 67.8918 239.567 68.0415 239.421 68.0788C239.187 68.1384 238.955 68.1989 238.724 68.2598C238.701 68.2662 238.677 68.2692 238.654 68.2692ZM323.208 68.069C323.077 68.069 322.962 67.9753 322.938 67.8418C322.896 67.6015 322.857 67.3611 322.822 67.1213C322.8 66.9714 322.904 66.8316 323.054 66.8096C323.208 66.7865 323.343 66.8915 323.365 67.0414C323.4 67.276 323.438 67.5111 323.479 67.7465C323.505 67.8959 323.405 68.0382 323.256 68.0646C323.24 68.0676 323.224 68.069 323.208 68.069ZM240.752 67.7391C240.628 67.7391 240.516 67.6548 240.486 67.529C240.45 67.3815 240.541 67.2331 240.688 67.1974C240.922 67.1409 241.156 67.0851 241.392 67.0299C241.539 66.9953 241.687 67.087 241.721 67.2348C241.756 67.3826 241.664 67.5303 241.517 67.5649C241.282 67.6199 241.049 67.6754 240.816 67.7317C240.796 67.7369 240.774 67.7391 240.752 67.7391ZM242.861 67.2513C242.735 67.2513 242.622 67.1639 242.593 67.0359C242.56 66.8876 242.654 66.7412 242.802 66.7085C243.037 66.6566 243.273 66.6055 243.509 66.5547C243.656 66.5231 243.802 66.6176 243.834 66.7659C243.867 66.9143 243.772 67.0601 243.623 67.092C243.388 67.1422 243.154 67.1933 242.92 67.245C242.901 67.2493 242.88 67.2513 242.861 67.2513ZM310.327 67.0851C310.327 67.0851 310.327 67.0851 310.326 67.0851C310.086 67.0845 309.845 67.0832 309.603 67.081C309.451 67.0796 309.33 66.9555 309.331 66.8038C309.332 66.653 309.455 66.5316 309.605 66.5316H309.608C309.849 66.5338 310.089 66.5352 310.327 66.5358C310.479 66.536 310.602 66.6594 310.601 66.811C310.601 66.9626 310.478 67.0851 310.327 67.0851ZM311.77 67.0763C311.62 67.0763 311.497 66.956 311.495 66.8058C311.493 66.6539 311.614 66.5294 311.766 66.527C312.007 66.5234 312.246 66.519 312.485 66.5138H312.491C312.639 66.5138 312.761 66.6327 312.765 66.7824C312.768 66.934 312.648 67.0598 312.497 67.0631C312.257 67.0686 312.016 67.073 311.773 67.0763C311.772 67.0763 311.771 67.0763 311.77 67.0763ZM308.163 67.0563C308.16 67.0563 308.158 67.0563 308.156 67.0563C307.916 67.0505 307.675 67.0436 307.433 67.0359C307.281 67.031 307.162 66.9044 307.167 66.7525C307.172 66.6009 307.301 66.4811 307.45 66.4869C307.691 66.4946 307.93 66.5014 308.169 66.5072C308.321 66.5108 308.44 66.6368 308.437 66.7882C308.433 66.9373 308.311 67.0563 308.163 67.0563ZM313.933 67.0186C313.786 67.0186 313.664 66.9027 313.659 66.7549C313.653 66.6033 313.771 66.4756 313.922 66.4696C314.163 66.46 314.402 66.4495 314.64 66.438C314.779 66.4322 314.92 66.5476 314.928 66.6992C314.935 66.8508 314.818 66.9796 314.667 66.9868C314.427 66.9983 314.186 67.009 313.943 67.0183C313.94 67.0186 313.936 67.0186 313.933 67.0186ZM306 66.9793C305.995 66.9793 305.991 66.9794 305.987 66.9791C305.747 66.9681 305.506 66.956 305.264 66.9431C305.113 66.9351 304.996 66.8058 305.005 66.6541C305.013 66.5025 305.142 66.3863 305.294 66.3946C305.534 66.4075 305.773 66.4193 306.012 66.4303C306.164 66.4372 306.281 66.5657 306.274 66.7173C306.267 66.8645 306.145 66.9793 306 66.9793ZM316.094 66.9041C315.951 66.9041 315.83 66.7929 315.82 66.6476C315.811 66.4962 315.925 66.3655 316.076 66.3553C316.317 66.3391 316.556 66.3221 316.793 66.3039C316.946 66.2932 317.076 66.4058 317.088 66.5569C317.099 66.708 316.986 66.8401 316.835 66.8516C316.595 66.8698 316.355 66.8871 316.112 66.9033C316.106 66.9041 316.1 66.9041 316.094 66.9041ZM303.838 66.8571C303.832 66.8571 303.826 66.8571 303.82 66.8566C303.581 66.8406 303.34 66.8239 303.099 66.806C302.947 66.7948 302.834 66.6632 302.845 66.5119C302.856 66.3605 302.982 66.2487 303.139 66.2581C303.379 66.2757 303.618 66.2924 303.856 66.3086C304.008 66.3188 304.122 66.4495 304.112 66.6009C304.102 66.7459 303.981 66.8571 303.838 66.8571ZM244.979 66.8047C244.851 66.8047 244.737 66.7146 244.71 66.5841C244.681 66.4352 244.777 66.2908 244.925 66.2608C245.161 66.2136 245.398 66.1666 245.635 66.1205C245.785 66.0914 245.928 66.1891 245.957 66.338C245.986 66.4869 245.888 66.6311 245.74 66.6599C245.503 66.7058 245.268 66.7522 245.034 66.7994C245.015 66.803 244.997 66.8047 244.979 66.8047ZM318.251 66.7294C318.111 66.7294 317.992 66.6231 317.978 66.4808C317.964 66.3298 318.074 66.1957 318.225 66.1812C318.465 66.1584 318.703 66.1342 318.94 66.1089C319.092 66.0958 319.226 66.2023 319.242 66.3531C319.258 66.5039 319.148 66.6393 318.998 66.6552C318.759 66.6805 318.519 66.7047 318.277 66.728C318.268 66.7291 318.259 66.7294 318.251 66.7294ZM301.68 66.6918C301.673 66.6918 301.665 66.6915 301.657 66.6907C301.418 66.6701 301.177 66.6487 300.936 66.6264C300.785 66.6124 300.674 66.4786 300.688 66.3278C300.702 66.1771 300.836 66.0664 300.987 66.0795C301.227 66.1018 301.466 66.1232 301.704 66.1435C301.855 66.1564 301.967 66.2894 301.954 66.4407C301.941 66.5838 301.822 66.6918 301.68 66.6918ZM320.402 66.4902C320.266 66.4902 320.147 66.3888 320.13 66.2501C320.111 66.0996 320.217 65.9623 320.367 65.943C320.606 65.9125 320.844 65.881 321.079 65.8483C321.229 65.8277 321.368 65.9323 321.389 66.0828C321.41 66.2331 321.305 66.3718 321.155 66.3927C320.917 66.4256 320.678 66.4575 320.437 66.4882C320.425 66.4896 320.413 66.4902 320.402 66.4902ZM299.526 66.4858C299.516 66.4858 299.507 66.4852 299.497 66.4844C299.259 66.4591 299.019 66.4333 298.779 66.4069C298.628 66.3902 298.519 66.2545 298.536 66.1037C298.552 65.9532 298.688 65.8461 298.839 65.8609C299.078 65.8875 299.317 65.9131 299.554 65.9381C299.705 65.954 299.815 66.0892 299.799 66.2399C299.784 66.3811 299.665 66.4858 299.526 66.4858ZM247.105 66.3982C246.975 66.3982 246.859 66.3053 246.836 66.1727C246.808 66.0235 246.907 65.8804 247.056 65.8532C247.293 65.8101 247.53 65.7678 247.768 65.726C247.918 65.7 248.06 65.7997 248.086 65.9491C248.112 66.0985 248.013 66.2408 247.863 66.2671C247.626 66.3089 247.39 66.3512 247.154 66.3938C247.138 66.3968 247.121 66.3982 247.105 66.3982ZM297.375 66.2413C297.364 66.2413 297.353 66.2408 297.342 66.2394C297.104 66.2103 296.865 66.1803 296.624 66.1493C296.474 66.1301 296.368 65.9925 296.387 65.842C296.406 65.6917 296.542 65.5843 296.694 65.6044C296.933 65.6349 297.171 65.6648 297.409 65.6939C297.559 65.7123 297.666 65.8494 297.648 65.9999C297.63 66.1391 297.512 66.2413 297.375 66.2413ZM322.544 66.1812C322.411 66.1812 322.295 66.0853 322.273 65.9502C322.249 65.8005 322.351 65.6593 322.5 65.6354C322.548 65.6277 322.596 65.6197 322.644 65.6121C322.624 65.3893 322.607 65.1671 322.593 64.9457C322.583 64.7944 322.698 64.6636 322.849 64.654C323 64.6422 323.131 64.7592 323.141 64.9106C323.154 65.1135 323.169 65.3168 323.187 65.5206C323.194 65.5195 323.202 65.5181 323.209 65.5168C323.359 65.4912 323.5 65.5912 323.526 65.7406C323.552 65.89 323.452 66.0323 323.303 66.0581C323.066 66.099 322.828 66.1391 322.588 66.1779C322.573 66.1801 322.558 66.1812 322.544 66.1812ZM249.238 66.0301C249.106 66.0301 248.99 65.9342 248.968 65.7997C248.943 65.65 249.045 65.5088 249.194 65.4843C249.431 65.4456 249.669 65.4074 249.908 65.3698C250.057 65.3462 250.199 65.4486 250.222 65.5983C250.246 65.7483 250.144 65.8889 249.994 65.9125C249.756 65.9502 249.519 65.9881 249.283 66.0265C249.268 66.029 249.253 66.0301 249.238 66.0301ZM295.229 65.9598C295.216 65.9598 295.204 65.959 295.191 65.9573C294.953 65.9241 294.715 65.8917 294.477 65.8598C294.327 65.8395 294.221 65.7013 294.242 65.5508C294.262 65.4006 294.398 65.2954 294.55 65.3151C294.789 65.3473 295.027 65.38 295.266 65.4129C295.416 65.4338 295.521 65.5725 295.5 65.7228C295.481 65.8604 295.364 65.9598 295.229 65.9598ZM324.673 65.7975C324.545 65.7975 324.431 65.7071 324.405 65.5763C324.375 65.4275 324.471 65.283 324.62 65.2533C324.856 65.2061 325.091 65.1578 325.323 65.1083C325.47 65.0759 325.617 65.1712 325.649 65.3198C325.68 65.4684 325.586 65.614 325.437 65.6458C325.203 65.6958 324.966 65.7447 324.728 65.7922C324.709 65.7958 324.691 65.7975 324.673 65.7975ZM251.378 65.7C251.243 65.7 251.126 65.6016 251.106 65.4648C251.084 65.3149 251.188 65.1753 251.338 65.1534C251.576 65.1188 251.815 65.0847 252.054 65.0512C252.205 65.0287 252.343 65.135 252.364 65.2852C252.385 65.4354 252.28 65.5742 252.13 65.595C251.892 65.6285 251.654 65.6623 251.417 65.6969C251.404 65.6991 251.391 65.7 251.378 65.7ZM293.084 65.675C293.072 65.675 293.06 65.6744 293.049 65.6728C292.811 65.6425 292.573 65.6126 292.335 65.5835C292.185 65.5651 292.078 65.428 292.097 65.2772C292.115 65.127 292.248 65.0204 292.402 65.038C292.64 65.0674 292.879 65.0971 293.118 65.1276C293.268 65.1468 293.375 65.2844 293.355 65.4349C293.338 65.5736 293.22 65.675 293.084 65.675ZM290.937 65.4149C290.926 65.4149 290.916 65.4143 290.905 65.4132C290.667 65.3857 290.429 65.3588 290.191 65.3324C290.04 65.3157 289.932 65.18 289.948 65.0292C289.965 64.8787 290.095 64.7716 290.251 64.7864C290.489 64.8131 290.728 64.84 290.968 64.8674C291.118 64.8847 291.226 65.021 291.209 65.1718C291.193 65.3116 291.074 65.4149 290.937 65.4149ZM253.522 65.4066C253.386 65.4066 253.268 65.3055 253.25 65.1668C253.231 65.0163 253.337 64.8787 253.487 64.8595C253.726 64.829 253.965 64.799 254.205 64.7694C254.359 64.7515 254.492 64.8581 254.51 65.0086C254.529 65.1591 254.422 65.2962 254.272 65.3146C254.033 65.3437 253.795 65.3736 253.557 65.4041C253.545 65.4061 253.534 65.4066 253.522 65.4066ZM326.787 65.3327C326.663 65.3327 326.551 65.2481 326.52 65.1223C326.485 64.9748 326.575 64.8265 326.723 64.7908C326.957 64.7342 327.189 64.6765 327.419 64.6178C327.565 64.5799 327.715 64.6689 327.753 64.8158C327.791 64.9627 327.702 65.1124 327.555 65.1501C327.323 65.2094 327.088 65.2679 326.851 65.325C326.83 65.3303 326.808 65.3327 326.787 65.3327ZM288.787 65.1808C288.777 65.1808 288.768 65.1806 288.758 65.1795C288.519 65.1547 288.281 65.1308 288.043 65.1072C287.892 65.0924 287.782 64.9578 287.797 64.8067C287.812 64.6559 287.939 64.5447 288.097 64.5606C288.336 64.5843 288.575 64.6082 288.815 64.6331C288.965 64.6488 289.075 64.7837 289.06 64.9345C289.045 65.0759 288.926 65.1808 288.787 65.1808ZM255.671 65.1492C255.533 65.1492 255.414 65.0454 255.399 64.9048C255.382 64.754 255.491 64.6183 255.641 64.6016C255.88 64.5749 256.12 64.5488 256.36 64.5233C256.514 64.5095 256.646 64.6167 256.662 64.7675C256.678 64.9183 256.569 65.0537 256.418 65.0696C256.179 65.0951 255.94 65.1212 255.702 65.1476C255.692 65.1487 255.681 65.1492 255.671 65.1492ZM286.633 64.9726C286.625 64.9726 286.617 64.9724 286.608 64.9715L285.892 64.9081C285.741 64.8952 285.629 64.762 285.642 64.6109C285.655 64.4598 285.785 64.3445 285.939 64.361L286.658 64.4244C286.809 64.4381 286.92 64.5716 286.906 64.7227C286.893 64.8652 286.774 64.9726 286.633 64.9726ZM257.824 64.9268C257.684 64.9268 257.565 64.8202 257.551 64.6782C257.537 64.5274 257.648 64.3931 257.798 64.3788C258.038 64.356 258.278 64.3338 258.518 64.3121C258.67 64.2994 258.803 64.4098 258.816 64.5612C258.83 64.7123 258.719 64.8457 258.568 64.8592C258.328 64.8806 258.089 64.9029 257.851 64.9257C257.842 64.9265 257.833 64.9268 257.824 64.9268ZM284.478 64.7911C284.471 64.7911 284.463 64.7908 284.456 64.7903C284.217 64.7716 283.978 64.7535 283.74 64.7356C283.588 64.7243 283.475 64.5928 283.486 64.4414C283.497 64.2901 283.621 64.1756 283.78 64.1879C284.019 64.2055 284.259 64.2236 284.499 64.2426C284.65 64.2544 284.763 64.3865 284.751 64.5378C284.74 64.6818 284.62 64.7911 284.478 64.7911ZM328.879 64.7801C328.76 64.7801 328.65 64.7018 328.616 64.5812C328.574 64.4354 328.658 64.2832 328.803 64.2412C329.035 64.1745 329.264 64.1063 329.491 64.0371C329.636 63.9924 329.789 64.0747 329.833 64.2198C329.877 64.3648 329.796 64.5183 329.651 64.5626C329.422 64.6326 329.19 64.7013 328.956 64.7688C328.93 64.7768 328.904 64.7801 328.879 64.7801ZM259.981 64.7386C259.839 64.7386 259.719 64.6296 259.707 64.4857C259.695 64.3346 259.808 64.2022 259.959 64.1901C260.199 64.1712 260.439 64.1528 260.68 64.1349C260.834 64.1223 260.963 64.2374 260.974 64.3884C260.986 64.5395 260.872 64.6713 260.721 64.6826C260.481 64.7004 260.242 64.7188 260.003 64.7378C259.996 64.7383 259.988 64.7386 259.981 64.7386ZM282.32 64.6364C282.315 64.6364 282.308 64.6364 282.302 64.6359C282.063 64.6202 281.824 64.6051 281.585 64.5903C281.434 64.581 281.318 64.4508 281.328 64.2994C281.337 64.1481 281.47 64.0324 281.618 64.0421C281.858 64.0566 282.098 64.0717 282.338 64.0877C282.489 64.0975 282.604 64.2283 282.594 64.3796C282.584 64.5249 282.464 64.6364 282.32 64.6364ZM262.139 64.584C261.996 64.584 261.875 64.4722 261.866 64.3266C261.856 64.1753 261.971 64.0448 262.122 64.0349C262.362 64.0195 262.603 64.005 262.844 63.9907C262.992 63.9797 263.125 64.0973 263.134 64.2486C263.143 64.4 263.027 64.5301 262.876 64.5389C262.636 64.5532 262.397 64.5678 262.157 64.5832C262.151 64.584 262.145 64.584 262.139 64.584ZM280.161 64.5093C280.156 64.5093 280.152 64.5093 280.146 64.509C279.907 64.4964 279.667 64.4845 279.429 64.473C279.277 64.4656 279.16 64.3368 279.168 64.1854C279.175 64.0335 279.304 63.9223 279.455 63.9242C279.695 63.9358 279.935 63.9479 280.176 63.9605C280.327 63.9685 280.443 64.0978 280.435 64.2492C280.428 64.3956 280.306 64.5093 280.161 64.5093ZM264.301 64.462C264.155 64.462 264.034 64.3475 264.027 64.2008C264.02 64.0492 264.136 63.9204 264.287 63.913C264.528 63.9014 264.768 63.8902 265.009 63.8795C265.157 63.8737 265.289 63.9902 265.296 64.1418C265.302 64.2934 265.185 64.4217 265.034 64.4282C264.793 64.439 264.553 64.4499 264.314 64.4618C264.31 64.462 264.305 64.462 264.301 64.462ZM278 64.4098C277.996 64.4098 277.993 64.4098 277.989 64.4096L277.271 64.3829C277.119 64.3774 277.001 64.2503 277.006 64.0986C277.011 63.9468 277.15 63.8284 277.29 63.8339L278.011 63.8608C278.162 63.8666 278.28 63.9943 278.274 64.1459C278.269 64.2937 278.147 64.4098 278 64.4098ZM266.463 64.3725C266.316 64.3725 266.194 64.2555 266.189 64.1072C266.184 63.9555 266.303 63.8284 266.454 63.8232C266.695 63.8149 266.936 63.8072 267.177 63.8004C267.331 63.7927 267.455 63.9152 267.459 64.0671C267.464 64.2187 267.344 64.345 267.193 64.3494C266.952 64.3563 266.712 64.364 266.473 64.3722C266.47 64.3725 266.467 64.3725 266.463 64.3725ZM275.838 64.3387C275.836 64.3387 275.833 64.3387 275.831 64.3387C275.591 64.3327 275.351 64.3269 275.112 64.3217C274.961 64.3184 274.841 64.1926 274.844 64.041C274.847 63.8896 274.969 63.7614 275.124 63.7723C275.364 63.7776 275.604 63.7833 275.845 63.7894C275.997 63.7932 276.116 63.9193 276.112 64.0709C276.108 64.2203 275.986 64.3387 275.838 64.3387ZM268.627 64.314C268.478 64.314 268.356 64.1945 268.353 64.0448C268.35 63.8932 268.471 63.768 268.622 63.7647C268.862 63.76 269.103 63.7559 269.345 63.752C269.503 63.7424 269.621 63.8707 269.623 64.0223C269.626 64.1739 269.505 64.2989 269.353 64.3013C269.112 64.3052 268.873 64.3093 268.633 64.314C268.631 64.314 268.629 64.314 268.627 64.314ZM273.676 64.2967C273.675 64.2967 273.673 64.2967 273.672 64.2967C273.432 64.2937 273.192 64.2912 272.953 64.2893C272.802 64.2879 272.68 64.164 272.681 64.0124C272.683 63.8608 272.812 63.7377 272.958 63.7399C273.198 63.7419 273.438 63.7446 273.679 63.7473C273.831 63.7493 273.952 63.8737 273.95 64.0253C273.948 64.1758 273.826 64.2967 273.676 64.2967ZM270.791 64.2865C270.64 64.2865 270.518 64.1646 270.517 64.0132C270.516 63.8616 270.638 63.738 270.79 63.7372C271.03 63.7358 271.271 63.735 271.512 63.7347H271.512C271.664 63.7347 271.786 63.8575 271.787 64.0091C271.787 64.1607 271.664 64.2838 271.513 64.284C271.272 64.2843 271.032 64.2851 270.793 64.2865C270.792 64.2865 270.792 64.2865 270.791 64.2865ZM330.944 64.1316C330.83 64.1316 330.723 64.0596 330.684 63.9457C330.635 63.802 330.712 63.646 330.855 63.5968C331.083 63.5188 331.308 63.4397 331.531 63.3592C331.673 63.3082 331.831 63.3815 331.882 63.524C331.934 63.6669 331.86 63.8243 331.717 63.8759C331.492 63.9575 331.264 64.0377 331.032 64.1165C331.003 64.1267 330.973 64.1316 330.944 64.1316ZM322.815 63.7597C322.665 63.7597 322.542 63.6386 322.54 63.4878L322.539 63.2549C322.539 63.089 322.541 62.9236 322.544 62.7586C322.547 62.6069 322.659 62.4874 322.823 62.4888C322.975 62.4916 323.096 62.6168 323.093 62.7684C323.09 62.9302 323.088 63.0923 323.088 63.2549L323.089 63.4823C323.091 63.6339 322.969 63.7581 322.818 63.7597C322.817 63.7597 322.816 63.7597 322.815 63.7597ZM332.972 63.3776C332.863 63.3776 332.76 63.3125 332.717 63.2054C332.661 63.0648 332.729 62.9047 332.869 62.8481C333.093 62.758 333.313 62.6665 333.531 62.5737C333.672 62.5135 333.832 62.5795 333.891 62.7187C333.95 62.8582 333.885 63.0198 333.746 63.0791C333.525 63.1733 333.301 63.2661 333.075 63.3576C333.041 63.3713 333.006 63.3776 332.972 63.3776ZM334.954 62.5083C334.851 62.5083 334.753 62.4506 334.706 62.3518C334.641 62.2147 334.699 62.0507 334.836 61.9856C335.053 61.8821 335.267 61.7772 335.478 61.6709C335.613 61.6025 335.778 61.6571 335.847 61.7925C335.915 61.928 335.861 62.093 335.725 62.1614C335.511 62.2696 335.293 62.3762 335.072 62.4817C335.033 62.4998 334.993 62.5083 334.954 62.5083ZM322.885 61.5959C322.878 61.5959 322.871 61.5956 322.864 61.5951C322.713 61.5838 322.6 61.452 322.611 61.3009C322.629 61.0575 322.65 60.8153 322.674 60.5744C322.69 60.4236 322.823 60.3132 322.975 60.3286C323.126 60.344 323.236 60.4785 323.221 60.6296C323.197 60.8658 323.176 61.1031 323.158 61.3415C323.148 61.486 323.027 61.5959 322.885 61.5959ZM336.874 61.5116C336.779 61.5116 336.686 61.4613 336.635 61.372C336.561 61.2399 336.607 61.0724 336.739 60.9977C336.949 60.879 337.155 60.7593 337.356 60.6381C337.486 60.5598 337.655 60.6021 337.733 60.7323C337.811 60.8622 337.769 61.0309 337.639 61.1092C337.433 61.2328 337.223 61.355 337.009 61.4759C336.966 61.5 336.92 61.5116 336.874 61.5116ZM338.714 60.3731C338.626 60.3731 338.539 60.3308 338.486 60.2525C338.401 60.1267 338.434 59.9561 338.56 59.871C338.759 59.7358 338.954 59.5996 339.144 59.4623C339.268 59.3736 339.439 59.4016 339.527 59.5246C339.616 59.6477 339.588 59.8193 339.465 59.9081C339.27 60.0484 339.071 60.1879 338.867 60.3258C338.82 60.358 338.766 60.3731 338.714 60.3731ZM323.132 59.4447C323.118 59.4447 323.103 59.4436 323.089 59.4414C322.939 59.418 322.837 59.2774 322.86 59.1275C322.898 58.8863 322.939 58.6468 322.983 58.4084C323.01 58.2595 323.151 58.1601 323.302 58.1881C323.451 58.2156 323.55 58.3589 323.522 58.5081C323.48 58.7415 323.439 58.9764 323.402 59.2123C323.381 59.348 323.265 59.4447 323.132 59.4447ZM340.447 59.0783C340.368 59.0783 340.289 59.0442 340.235 58.9783C340.138 58.8613 340.155 58.6883 340.272 58.5916C340.458 58.4386 340.637 58.2845 340.812 58.1288C340.925 58.028 341.099 58.0379 341.2 58.1516C341.3 58.265 341.29 58.4386 341.177 58.5394C340.997 58.6992 340.812 58.858 340.622 59.0151C340.57 59.0577 340.508 59.0783 340.447 59.0783ZM342.035 57.611C341.967 57.611 341.898 57.5855 341.845 57.5341C341.736 57.4289 341.733 57.255 341.838 57.1457C342.004 56.973 342.165 56.7991 342.319 56.6244C342.42 56.5107 342.593 56.5003 342.706 56.6005C342.82 56.7008 342.831 56.8746 342.731 56.9883C342.571 57.1691 342.405 57.3487 342.233 57.527C342.179 57.583 342.107 57.611 342.035 57.611ZM323.553 57.3201C323.531 57.3201 323.51 57.3177 323.488 57.3125C323.341 57.277 323.25 57.1287 323.286 56.9809C323.343 56.7436 323.403 56.508 323.466 56.2742C323.506 56.1273 323.656 56.0405 323.803 56.0806C323.949 56.1201 324.036 56.2709 323.996 56.4173C323.934 56.6464 323.875 56.8774 323.819 57.1098C323.789 57.2358 323.676 57.3201 323.553 57.3201ZM343.428 55.9575C343.372 55.9575 343.316 55.9405 343.267 55.9051C343.145 55.8158 343.117 55.6439 343.207 55.5214C343.347 55.3285 343.482 55.1327 343.608 54.9391C343.69 54.8122 343.86 54.7759 343.987 54.8586C344.114 54.9413 344.15 55.1115 344.068 55.2387C343.937 55.4401 343.796 55.6441 343.65 55.8446C343.597 55.9185 343.513 55.9575 343.428 55.9575ZM324.143 55.2371C324.115 55.2371 324.086 55.2324 324.058 55.2233C323.914 55.1761 323.836 55.0206 323.883 54.8767C323.959 54.6449 324.038 54.4147 324.12 54.1868C324.171 54.0439 324.328 53.9695 324.471 54.0209C324.613 54.0722 324.687 54.2293 324.636 54.3721C324.556 54.5955 324.479 54.821 324.404 55.0478C324.366 55.1635 324.259 55.2371 324.143 55.2371ZM344.553 54.1126C344.512 54.1126 344.471 54.1035 344.432 54.084C344.296 54.0165 344.24 53.8517 344.308 53.716C344.414 53.5034 344.512 53.288 344.6 53.0765C344.658 52.9365 344.82 52.8711 344.959 52.929C345.099 52.9876 345.165 53.1485 345.107 53.2886C345.014 53.5111 344.91 53.7371 344.8 53.9604C344.752 54.0566 344.654 54.1126 344.553 54.1126ZM324.902 53.2084C324.866 53.2084 324.83 53.2015 324.795 53.1867C324.655 53.1276 324.59 52.9664 324.649 52.8266C324.744 52.6017 324.841 52.3789 324.941 52.1583C325.004 52.0205 325.166 51.9587 325.304 52.0216C325.442 52.0842 325.504 52.2471 325.441 52.3852C325.343 52.6014 325.248 52.8195 325.154 53.0403C325.11 53.1455 325.009 53.2084 324.902 53.2084ZM345.316 52.0927C345.293 52.0927 345.27 52.0897 345.247 52.0836C345.1 52.0452 345.012 51.8952 345.05 51.7485C345.109 51.5228 345.16 51.2929 345.201 51.0652C345.229 50.9163 345.371 50.8163 345.52 50.8438C345.67 50.8707 345.768 51.0135 345.742 51.1629C345.698 51.4044 345.644 51.6483 345.582 51.8872C345.549 52.0108 345.438 52.0927 345.316 52.0927ZM325.824 51.2486C325.781 51.2486 325.737 51.2385 325.697 51.2173C325.563 51.1467 325.51 50.9808 325.581 50.8465C325.695 50.6298 325.81 50.4161 325.928 50.2049C326.002 50.0725 326.169 50.025 326.302 50.0994C326.434 50.1736 326.481 50.3409 326.407 50.4733C326.292 50.6801 326.178 50.8897 326.067 51.1017C326.018 51.1951 325.923 51.2486 325.824 51.2486ZM345.612 49.9555C345.611 49.9555 345.61 49.9555 345.609 49.9555C345.457 49.9536 345.336 49.8292 345.338 49.6776L345.339 49.5493C345.339 49.36 345.333 49.1675 345.319 48.9785C345.308 48.8272 345.422 48.6959 345.573 48.6852C345.73 48.6764 345.856 48.7885 345.866 48.9398C345.881 49.1417 345.888 49.3474 345.888 49.5509L345.887 49.6844C345.885 49.8349 345.763 49.9555 345.612 49.9555ZM326.908 49.3743C326.857 49.3743 326.806 49.3603 326.761 49.3309C326.633 49.2491 326.596 49.0793 326.677 48.9516C326.809 48.7453 326.943 48.5421 327.079 48.3421C327.165 48.2169 327.335 48.1845 327.46 48.2696C327.586 48.355 327.618 48.5259 327.533 48.6514C327.4 48.847 327.269 49.0458 327.14 49.2477C327.087 49.3295 326.999 49.3743 326.908 49.3743ZM345.367 47.8095C345.244 47.8095 345.132 47.726 345.101 47.6013C345.045 47.3761 344.978 47.1509 344.903 46.9322C344.854 46.7889 344.93 46.6326 345.073 46.5831C345.217 46.534 345.373 46.6103 345.422 46.7537C345.502 46.9875 345.574 47.2281 345.634 47.4687C345.67 47.6159 345.581 47.765 345.434 47.8016C345.411 47.8071 345.389 47.8095 345.367 47.8095ZM328.155 47.6033C328.096 47.6033 328.037 47.5846 327.987 47.5459C327.867 47.453 327.845 47.2805 327.938 47.1605C328.088 46.9663 328.241 46.7762 328.395 46.59C328.492 46.4733 328.665 46.4571 328.782 46.554C328.898 46.651 328.914 46.824 328.818 46.9408C328.667 47.1223 328.518 47.3075 328.372 47.4967C328.318 47.5665 328.237 47.6033 328.155 47.6033ZM329.565 45.9599C329.497 45.9599 329.429 45.9349 329.376 45.8841C329.266 45.7795 329.262 45.6056 329.366 45.4957C329.536 45.3175 329.708 45.1436 329.88 44.9747C329.989 44.8687 330.163 44.8709 330.268 44.9794C330.374 45.0879 330.372 45.2617 330.264 45.3678C330.096 45.5323 329.929 45.7012 329.764 45.8745C329.71 45.9314 329.637 45.9599 329.565 45.9599ZM344.583 45.7971C344.485 45.7971 344.391 45.7449 344.341 45.6529C344.232 45.4502 344.112 45.2474 343.984 45.0502C343.902 44.9228 343.939 44.7528 344.066 44.6704C344.193 44.5882 344.363 44.6248 344.445 44.7522C344.581 44.9615 344.708 45.1766 344.824 45.3919C344.896 45.5254 344.846 45.6921 344.713 45.7641C344.672 45.7866 344.627 45.7971 344.583 45.7971ZM331.143 44.4778C331.064 44.4778 330.986 44.444 330.932 44.3792C330.835 44.2628 330.85 44.0895 330.967 43.9922C331.156 43.834 331.348 43.6813 331.54 43.5343C331.66 43.4421 331.833 43.4657 331.925 43.586C332.016 43.7066 331.993 43.8788 331.873 43.9711C331.687 44.1134 331.502 44.2611 331.318 44.4141C331.267 44.457 331.205 44.4778 331.143 44.4778ZM343.141 43.9293C343.14 43.9282 343.125 43.9115 343.125 43.9101C342.977 43.7406 342.82 43.5747 342.662 43.4212C342.553 43.3154 342.55 43.1416 342.656 43.0328C342.762 42.9238 342.935 42.9213 343.044 43.027C343.213 43.1913 343.38 43.3679 343.541 43.5528L343.348 43.7489L343.141 43.9293ZM332.893 43.2056C332.801 43.2056 332.711 43.1597 332.659 43.0762C332.579 42.9474 332.618 42.7782 332.747 42.6977C332.956 42.5672 333.169 42.4417 333.381 42.3247C333.514 42.2511 333.681 42.2997 333.754 42.4327C333.827 42.5656 333.779 42.7326 333.646 42.8057C333.443 42.918 333.238 43.0386 333.037 43.1641C332.992 43.1921 332.942 43.2056 332.893 43.2056ZM341.729 42.5972C341.677 42.5972 341.626 42.5829 341.579 42.553C341.386 42.4272 341.184 42.311 340.98 42.2077C340.845 42.139 340.791 41.974 340.859 41.8386C340.928 41.7034 341.093 41.6493 341.228 41.7174C341.45 41.8295 341.668 41.9556 341.879 42.0921C342.006 42.1748 342.042 42.3448 341.959 42.4719C341.907 42.553 341.819 42.5972 341.729 42.5972ZM334.815 42.2179C334.707 42.2179 334.604 42.1528 334.561 42.0459C334.504 41.9053 334.572 41.7452 334.713 41.6886C334.944 41.5952 335.178 41.5098 335.408 41.4351C335.551 41.3876 335.707 41.4669 335.754 41.6111C335.801 41.7553 335.722 41.9103 335.578 41.9572C335.36 42.0284 335.137 42.1094 334.918 42.1978C334.884 42.2116 334.85 42.2179 334.815 42.2179ZM339.756 41.7334C339.733 41.7334 339.711 41.7309 339.689 41.7251C339.466 41.6694 339.238 41.6254 339.01 41.5941C338.86 41.5735 338.755 41.4351 338.775 41.2848C338.796 41.1346 338.934 41.0291 339.084 41.05C339.332 41.0838 339.58 41.1316 339.822 41.1923C339.969 41.2291 340.058 41.3782 340.021 41.5254C339.99 41.6501 339.878 41.7334 339.756 41.7334ZM336.892 41.6304C336.759 41.6304 336.643 41.534 336.621 41.3985C336.598 41.2489 336.7 41.1079 336.849 41.0843C337.097 41.045 337.346 41.017 337.59 41.0008C337.739 40.989 337.872 41.1052 337.882 41.2565C337.892 41.4079 337.777 41.5386 337.626 41.5488C337.399 41.5639 337.166 41.59 336.935 41.6268C336.921 41.6293 336.906 41.6304 336.892 41.6304Z" fill="#141414"/>
<path d="M187 96.1063L203.152 95.1895L200.798 87L187 96.1063Z" fill="#141414"/>
<path d="M185.274 95.8613L197.768 77.2746L199.072 86.755L185.274 95.8613Z" fill="white"/>
<path d="M185.274 96.1359C185.203 96.1359 185.133 96.1082 185.08 96.0546C184.987 95.9615 184.974 95.8165 185.047 95.708L197.54 77.1213C197.603 77.0268 197.719 76.9815 197.83 77.007C197.94 77.0329 198.024 77.1243 198.039 77.2372L199.344 86.7176C199.359 86.8223 199.312 86.9261 199.224 86.9843L185.426 96.0906C185.379 96.1211 185.327 96.1359 185.274 96.1359ZM197.594 78.025L186.267 94.8774L198.777 86.6206L197.594 78.025Z" fill="#141414"/>
<path d="M185.274 95.8613L211.665 87.3112L199.072 86.755L185.274 95.8613Z" fill="white"/>
<path d="M133.443 104.284C133.439 104.284 133.436 104.284 133.433 104.284C133.188 104.276 132.939 104.257 132.692 104.229C132.542 104.212 132.434 104.076 132.451 103.925C132.468 103.774 132.603 103.665 132.755 103.683C132.987 103.71 133.221 103.728 133.452 103.735C133.603 103.741 133.722 103.868 133.717 104.019C133.712 104.168 133.59 104.284 133.443 104.284ZM134.881 104.213C134.746 104.213 134.628 104.113 134.61 103.976C134.589 103.825 134.695 103.687 134.845 103.667C135.075 103.635 135.305 103.593 135.529 103.542C135.678 103.508 135.824 103.6 135.858 103.748C135.892 103.896 135.8 104.043 135.652 104.077C135.412 104.132 135.165 104.177 134.918 104.211C134.906 104.212 134.894 104.213 134.881 104.213ZM131.308 103.961C131.284 103.961 131.26 103.958 131.237 103.952C131 103.889 130.762 103.816 130.529 103.736C130.386 103.688 130.309 103.531 130.358 103.388C130.407 103.244 130.563 103.168 130.707 103.216C130.928 103.292 131.154 103.361 131.378 103.421C131.525 103.46 131.612 103.61 131.573 103.757C131.54 103.88 131.429 103.961 131.308 103.961ZM136.958 103.631C136.852 103.631 136.752 103.57 136.706 103.467C136.645 103.328 136.708 103.166 136.847 103.105C137.058 103.012 137.266 102.907 137.468 102.793C137.599 102.719 137.767 102.766 137.841 102.898C137.916 103.03 137.869 103.198 137.737 103.272C137.52 103.394 137.295 103.507 137.068 103.607C137.032 103.623 136.995 103.631 136.958 103.631ZM129.286 103.198C129.246 103.198 129.204 103.189 129.166 103.17C128.948 103.063 128.729 102.947 128.513 102.825C128.381 102.75 128.335 102.583 128.41 102.451C128.484 102.319 128.651 102.272 128.784 102.347C128.99 102.464 129.2 102.575 129.407 102.677C129.543 102.743 129.599 102.908 129.532 103.044C129.485 103.141 129.388 103.198 129.286 103.198ZM138.782 102.482C138.705 102.482 138.628 102.449 138.573 102.385C138.475 102.27 138.488 102.097 138.604 101.998C138.779 101.849 138.949 101.689 139.11 101.522C139.216 101.413 139.39 101.411 139.498 101.516C139.607 101.622 139.61 101.796 139.504 101.904C139.331 102.083 139.148 102.255 138.96 102.416C138.909 102.46 138.845 102.482 138.782 102.482ZM127.437 102.079C127.381 102.079 127.324 102.062 127.275 102.026C127.079 101.883 126.882 101.732 126.692 101.578C126.574 101.482 126.556 101.309 126.652 101.191C126.747 101.074 126.92 101.055 127.038 101.151C127.221 101.3 127.409 101.444 127.598 101.582C127.721 101.671 127.748 101.843 127.659 101.965C127.605 102.039 127.522 102.079 127.437 102.079ZM140.213 100.868C140.161 100.868 140.107 100.853 140.06 100.821C139.934 100.736 139.901 100.565 139.986 100.44C140.114 100.25 140.238 100.05 140.354 99.8447C140.428 99.7126 140.596 99.6661 140.728 99.7408C140.859 99.8156 140.906 99.9831 140.831 100.115C140.708 100.333 140.577 100.546 140.441 100.747C140.388 100.826 140.301 100.868 140.213 100.868ZM125.792 100.674C125.722 100.674 125.652 100.648 125.599 100.594C125.427 100.423 125.257 100.247 125.09 100.064C124.988 99.9518 124.996 99.7779 125.108 99.6758C125.22 99.5736 125.393 99.581 125.495 99.6933C125.656 99.8694 125.82 100.04 125.985 100.204C126.093 100.311 126.094 100.485 125.987 100.593C125.934 100.647 125.863 100.674 125.792 100.674ZM124.369 99.0454C124.286 99.0454 124.204 99.008 124.15 98.9372C124.004 98.7444 123.86 98.5466 123.719 98.3433C123.633 98.2186 123.664 98.0475 123.789 97.961C123.913 97.8742 124.084 97.9055 124.171 98.0302C124.307 98.2266 124.446 98.4178 124.588 98.604C124.679 98.7246 124.656 98.8971 124.535 98.9888C124.485 99.027 124.427 99.0454 124.369 99.0454ZM141.207 98.9501C141.174 98.9501 141.14 98.944 141.107 98.9314C140.966 98.8765 140.896 98.7172 140.951 98.5757C141.034 98.3626 141.112 98.139 141.184 97.9118C141.23 97.7671 141.385 97.6866 141.528 97.7325C141.673 97.7781 141.753 97.9324 141.708 98.0769C141.632 98.3153 141.55 98.5502 141.463 98.7748C141.42 98.8836 141.317 98.9501 141.207 98.9501ZM123.172 97.243C123.078 97.243 122.985 97.1939 122.935 97.106C122.814 96.8967 122.696 96.683 122.58 96.4649C122.509 96.3309 122.561 96.1647 122.695 96.0938C122.829 96.0229 122.995 96.0746 123.066 96.2084C123.177 96.4201 123.292 96.6275 123.41 96.8307C123.486 96.962 123.441 97.1299 123.31 97.2059C123.266 97.2312 123.219 97.243 123.172 97.243ZM141.799 96.8706C141.782 96.8706 141.764 96.8689 141.746 96.8654C141.597 96.8365 141.5 96.6923 141.529 96.5434C141.573 96.316 141.613 96.0834 141.647 95.8452C141.668 95.6953 141.806 95.5917 141.958 95.6123C142.108 95.634 142.212 95.773 142.19 95.9232C142.155 96.1704 142.114 96.4124 142.068 96.6484C142.042 96.7797 141.928 96.8706 141.799 96.8706ZM122.199 95.3107C122.093 95.3107 121.992 95.2489 121.947 95.1457C121.85 94.9243 121.757 94.6988 121.667 94.4694C121.611 94.3283 121.681 94.169 121.822 94.1135C121.963 94.0577 122.122 94.1275 122.178 94.2687C122.265 94.4917 122.356 94.7106 122.45 94.9259C122.511 95.0649 122.447 95.227 122.308 95.2874C122.273 95.303 122.235 95.3107 122.199 95.3107ZM142.058 94.7224C142.053 94.7224 142.048 94.7224 142.043 94.7221C141.892 94.7142 141.775 94.5848 141.784 94.4332C141.796 94.2008 141.804 93.9641 141.808 93.7226C141.81 93.571 141.924 93.4526 142.086 93.4518C142.238 93.454 142.359 93.5787 142.356 93.7303C142.353 93.9789 142.345 94.2228 142.332 94.4623C142.324 94.609 142.203 94.7224 142.058 94.7224ZM121.441 93.2834C121.324 93.2834 121.216 93.2087 121.179 93.0914C121.106 92.8618 121.037 92.6283 120.97 92.3919C120.928 92.246 121.013 92.0941 121.159 92.0529C121.302 92.012 121.456 92.096 121.497 92.2422C121.563 92.4734 121.631 92.7011 121.702 92.9255C121.748 93.07 121.667 93.2244 121.523 93.2702C121.496 93.2793 121.468 93.2834 121.441 93.2834ZM142.049 92.558C141.906 92.558 141.785 92.446 141.776 92.3004C141.761 92.062 141.741 91.826 141.717 91.5929C141.701 91.4421 141.81 91.3067 141.961 91.291C142.114 91.2759 142.247 91.3849 142.263 91.5355C142.288 91.7766 142.308 92.0202 142.324 92.2663C142.333 92.4177 142.218 92.5481 142.067 92.5575C142.061 92.5578 142.055 92.558 142.049 92.558ZM120.886 91.1913C120.759 91.1913 120.645 91.1034 120.617 90.9746C120.566 90.7392 120.519 90.5008 120.474 90.2591C120.446 90.1099 120.544 89.9666 120.693 89.9388C120.843 89.9102 120.985 90.0094 121.013 90.1586C121.057 90.3948 121.104 90.6282 121.154 90.8584C121.186 91.0067 121.092 91.1528 120.944 91.185C120.925 91.1894 120.905 91.1913 120.886 91.1913ZM141.777 90.4129C141.648 90.4129 141.533 90.3223 141.508 90.1912C141.462 89.958 141.411 89.7273 141.355 89.4991C141.319 89.3519 141.409 89.203 141.556 89.167C141.703 89.131 141.852 89.2208 141.888 89.3683C141.946 89.6045 141.999 89.8435 142.046 90.0849C142.075 90.2338 141.978 90.378 141.83 90.4074C141.812 90.4115 141.794 90.4129 141.777 90.4129ZM120.52 89.0577C120.384 89.0577 120.266 88.9566 120.248 88.8179C120.218 88.5792 120.19 88.3378 120.165 88.0936C120.149 87.9428 120.259 87.8077 120.41 87.7926C120.555 87.7744 120.695 87.8868 120.711 88.0378C120.735 88.2774 120.763 88.5138 120.793 88.7479C120.812 88.8984 120.706 89.036 120.555 89.0552C120.543 89.0569 120.532 89.0577 120.52 89.0577ZM141.214 88.326C141.101 88.326 140.994 88.2548 140.955 88.1414C140.877 87.9175 140.795 87.6964 140.707 87.4781C140.651 87.3374 140.719 87.1773 140.86 87.121C141 87.0641 141.16 87.1325 141.217 87.2734C141.308 87.4998 141.393 87.7291 141.474 87.9612C141.524 88.1043 141.448 88.2609 141.305 88.3106C141.275 88.321 141.244 88.326 141.214 88.326ZM120.328 86.9013C120.183 86.9013 120.062 86.7873 120.054 86.6406C120.042 86.4003 120.033 86.1578 120.026 85.913C120.022 85.7614 120.141 85.6351 120.293 85.6309H120.3C120.448 85.6309 120.57 85.749 120.575 85.8979C120.581 86.1388 120.591 86.3772 120.603 86.6132C120.61 86.7648 120.494 86.8936 120.342 86.9013C120.338 86.9013 120.333 86.9013 120.328 86.9013ZM140.363 86.3393C140.264 86.3393 140.167 86.2852 140.119 86.1907C140.01 85.9803 139.897 85.7732 139.779 85.5689C139.703 85.4376 139.748 85.2695 139.88 85.1937C140.01 85.1176 140.178 85.1626 140.254 85.2942C140.377 85.506 140.494 85.7208 140.606 85.9386C140.676 86.0734 140.623 86.2391 140.488 86.3088C140.448 86.3294 140.405 86.3393 140.363 86.3393ZM120.295 84.7361C120.294 84.7361 120.292 84.7361 120.29 84.7361C120.138 84.7331 120.018 84.6078 120.021 84.4562C120.025 84.2159 120.033 83.9731 120.043 83.7286C120.049 83.5773 120.174 83.46 120.328 83.4655C120.48 83.4715 120.597 83.5995 120.591 83.7511C120.581 83.9917 120.574 84.2304 120.57 84.4666C120.567 84.6163 120.445 84.7361 120.295 84.7361ZM92.2742 84.7155C92.2174 84.7155 92.1597 84.6979 92.1103 84.6611C91.989 84.5704 91.9638 84.3982 92.0544 84.2768C92.1998 84.0813 92.3494 83.8882 92.5031 83.6987C92.5983 83.5808 92.7715 83.5621 92.889 83.658C93.007 83.7533 93.0251 83.9264 92.9296 84.0442C92.7808 84.2282 92.6356 84.4153 92.4943 84.6051C92.4408 84.6773 92.3582 84.7155 92.2742 84.7155ZM139.24 84.4922C139.154 84.4922 139.069 84.4518 139.016 84.3757C138.88 84.1826 138.739 83.9926 138.594 83.8052C138.502 83.6852 138.524 83.513 138.644 83.4199C138.763 83.327 138.936 83.349 139.028 83.4688C139.178 83.6624 139.324 83.8593 139.465 84.0593C139.552 84.1832 139.522 84.3546 139.399 84.4419C139.35 84.476 139.295 84.4922 139.24 84.4922ZM93.6659 83.0598C93.5981 83.0598 93.5303 83.0351 93.4774 82.9848C93.3673 82.8807 93.3621 82.7068 93.4664 82.5964C93.633 82.4198 93.8037 82.2462 93.9771 82.0751C94.085 81.9685 94.2584 81.9702 94.3652 82.0781C94.4714 82.1864 94.47 82.3602 94.3619 82.4668C94.1931 82.6329 94.0273 82.8021 93.8649 82.9741C93.8114 83.0309 93.7386 83.0598 93.6659 83.0598ZM137.88 82.8085C137.806 82.8085 137.732 82.7788 137.678 82.7197C137.519 82.5459 137.354 82.3748 137.187 82.2064C137.08 82.099 137.08 81.9251 137.188 81.818C137.295 81.7109 137.469 81.7112 137.576 81.8186C137.749 81.9919 137.917 82.1682 138.082 82.3476C138.185 82.4591 138.178 82.6329 138.066 82.7357C138.013 82.7846 137.947 82.8085 137.88 82.8085ZM120.406 82.5731C120.399 82.5731 120.391 82.5728 120.383 82.5723C120.232 82.5599 120.12 82.4272 120.132 82.2759C120.152 82.0364 120.174 81.7952 120.199 81.5519C120.214 81.4011 120.349 81.2909 120.5 81.306C120.651 81.3214 120.76 81.456 120.745 81.6071C120.721 81.8469 120.699 82.085 120.68 82.3209C120.668 82.4646 120.548 82.5731 120.406 82.5731ZM95.2333 81.5714C95.1559 81.5714 95.079 81.5387 95.0244 81.475C94.9262 81.3596 94.9396 81.1863 95.0549 81.0877C95.2398 80.9297 95.4276 80.7748 95.6194 80.6224C95.738 80.5276 95.9106 80.548 96.005 80.6663C96.0994 80.7853 96.0794 80.958 95.9608 81.0523C95.7745 81.2006 95.5914 81.3516 95.4114 81.5054C95.3598 81.5497 95.2966 81.5714 95.2333 81.5714ZM136.324 81.3055C136.261 81.3055 136.197 81.2838 136.146 81.2393C135.966 81.0852 135.784 80.9336 135.598 80.785C135.479 80.6902 135.46 80.5175 135.555 80.3988C135.649 80.2804 135.823 80.2609 135.94 80.3557C136.131 80.5084 136.319 80.6641 136.503 80.8223C136.618 80.921 136.632 81.0946 136.533 81.2096C136.479 81.2731 136.402 81.3055 136.324 81.3055ZM120.647 80.4205C120.634 80.4205 120.621 80.4197 120.608 80.4178C120.458 80.3966 120.353 80.2576 120.374 80.1077C120.408 79.8698 120.444 79.63 120.482 79.3886C120.506 79.2389 120.644 79.1365 120.796 79.1603C120.946 79.1842 121.048 79.3249 121.024 79.4748C120.986 79.713 120.951 79.9495 120.918 80.1843C120.899 80.3214 120.781 80.4205 120.647 80.4205ZM96.9472 80.2494C96.8604 80.2494 96.7751 80.2085 96.7218 80.1318C96.6354 80.0074 96.6659 79.836 96.7902 79.7495C96.9891 79.6108 97.1909 79.4746 97.3951 79.3411C97.5224 79.2584 97.692 79.2938 97.7752 79.421C97.858 79.5479 97.8221 79.7182 97.6953 79.8011C97.4952 79.9316 97.2984 80.0646 97.1039 80.2002C97.0558 80.2335 97.0012 80.2494 96.9472 80.2494ZM134.611 79.9835C134.558 79.9835 134.503 79.9676 134.455 79.9346C134.261 79.7998 134.063 79.6674 133.863 79.538C133.736 79.4556 133.699 79.2856 133.782 79.1581C133.864 79.0307 134.034 78.9944 134.161 79.0766C134.366 79.2092 134.569 79.3449 134.768 79.4828C134.893 79.5691 134.924 79.7404 134.838 79.8651C134.784 79.9423 134.698 79.9835 134.611 79.9835ZM98.7758 79.0917C98.6806 79.0917 98.5881 79.0422 98.5376 78.9538C98.4621 78.8222 98.5077 78.6544 98.6391 78.5789C98.8493 78.4583 99.0618 78.3402 99.2764 78.2246C99.4092 78.1529 99.5761 78.2026 99.648 78.3363C99.7199 78.4698 99.6697 78.6366 99.5363 78.7082C99.3258 78.8214 99.1177 78.937 98.9119 79.0552C98.8691 79.0801 98.8222 79.0917 98.7758 79.0917ZM132.777 78.8365C132.731 78.8365 132.685 78.8253 132.643 78.8014C132.436 78.6849 132.227 78.5712 132.016 78.4597C131.882 78.3891 131.83 78.2229 131.901 78.0886C131.971 77.9546 132.137 77.9029 132.271 77.9735C132.487 78.0872 132.701 78.2034 132.912 78.3223C133.044 78.3968 133.091 78.564 133.017 78.6964C132.966 78.786 132.873 78.8365 132.777 78.8365ZM121.005 78.2844C120.988 78.2844 120.97 78.2828 120.952 78.2792C120.804 78.2504 120.706 78.1062 120.735 77.9573C120.781 77.7214 120.829 77.4841 120.88 77.2451C120.912 77.0971 121.057 77.0017 121.206 77.0336C121.354 77.0652 121.448 77.211 121.417 77.3594C121.367 77.595 121.32 77.8296 121.274 78.0622C121.248 78.1935 121.134 78.2844 121.005 78.2844ZM100.695 78.0913C100.592 78.0913 100.494 78.0334 100.447 77.934C100.382 77.7969 100.441 77.6332 100.578 77.5684C100.797 77.4651 101.018 77.3638 101.241 77.2654C101.379 77.2047 101.541 77.2671 101.602 77.4058C101.663 77.5445 101.601 77.7068 101.462 77.7681C101.243 77.8647 101.026 77.9636 100.812 78.0652C100.774 78.0828 100.734 78.0913 100.695 78.0913ZM130.848 77.8546C130.81 77.8546 130.771 77.8466 130.734 77.8296C130.518 77.7307 130.3 77.634 130.08 77.5401C129.941 77.4805 129.876 77.319 129.936 77.1797C129.996 77.0399 130.157 76.9759 130.296 77.0352C130.52 77.1311 130.743 77.2297 130.963 77.3305C131.1 77.3937 131.161 77.5568 131.098 77.6947C131.052 77.795 130.952 77.8546 130.848 77.8546ZM102.684 77.2396C102.574 77.2396 102.471 77.1726 102.428 77.0638C102.374 76.9224 102.444 76.7633 102.585 76.7087C102.811 76.6213 103.038 76.5365 103.268 76.4541C103.409 76.4021 103.567 76.4769 103.619 76.6197C103.67 76.7625 103.596 76.9199 103.453 76.971C103.228 77.052 103.005 77.1352 102.783 77.2209C102.751 77.2336 102.717 77.2396 102.684 77.2396ZM128.848 77.0276C128.817 77.0276 128.785 77.0218 128.753 77.0105C128.53 76.9279 128.305 76.8474 128.079 76.7697C127.936 76.7202 127.86 76.5639 127.909 76.4206C127.959 76.2772 128.116 76.2011 128.258 76.2503C128.488 76.3296 128.717 76.4112 128.944 76.4953C129.086 76.548 129.158 76.7059 129.106 76.8482C129.065 76.9589 128.96 77.0276 128.848 77.0276ZM104.728 76.5282C104.611 76.5282 104.503 76.4527 104.466 76.3351C104.421 76.1904 104.502 76.0363 104.647 75.9912C104.878 75.9193 105.109 75.8498 105.342 75.7828C105.488 75.7405 105.64 75.8251 105.681 75.9709C105.723 76.1168 105.639 76.2687 105.493 76.3107C105.264 76.3766 105.036 76.445 104.81 76.5156C104.783 76.5244 104.755 76.5282 104.728 76.5282ZM126.794 76.3456C126.768 76.3456 126.742 76.3417 126.716 76.334C126.488 76.2667 126.258 76.2019 126.028 76.139C125.881 76.0992 125.795 75.9484 125.835 75.802C125.875 75.6556 126.025 75.5696 126.171 75.6089C126.406 75.6726 126.64 75.7388 126.872 75.8072C127.017 75.8501 127.1 76.0028 127.057 76.1484C127.022 76.2678 126.912 76.3456 126.794 76.3456ZM121.469 76.169C121.448 76.169 121.426 76.1665 121.404 76.1613C121.257 76.1253 121.167 75.9767 121.203 75.8295C121.259 75.596 121.319 75.3614 121.38 75.1255C121.408 75.0184 121.495 74.9426 121.596 74.9242C121.632 74.792 121.761 74.7039 121.901 74.7248C122.141 74.7599 122.38 74.7975 122.619 74.8371C122.769 74.8618 122.87 75.0033 122.845 75.153C122.82 75.3024 122.677 75.404 122.529 75.379C122.322 75.3447 122.115 75.312 121.906 75.281C121.848 75.5087 121.79 75.7347 121.736 75.9597C121.705 76.0846 121.593 76.169 121.469 76.169ZM106.811 75.9506C106.688 75.9506 106.575 75.8665 106.545 75.741C106.509 75.5935 106.599 75.4449 106.746 75.409C106.981 75.3518 107.216 75.2966 107.453 75.2436C107.599 75.2115 107.747 75.3038 107.78 75.4518C107.813 75.5998 107.72 75.7468 107.572 75.7798C107.339 75.8317 107.107 75.886 106.876 75.9426C106.855 75.9478 106.833 75.9506 106.811 75.9506ZM124.7 75.7993C124.679 75.7993 124.659 75.7971 124.638 75.7924C124.406 75.7397 124.173 75.6891 123.938 75.6405C123.79 75.6097 123.694 75.4644 123.725 75.3158C123.756 75.167 123.9 75.0728 124.049 75.1024C124.287 75.1516 124.524 75.2029 124.76 75.2568C124.908 75.2903 125.001 75.4375 124.967 75.5856C124.938 75.713 124.825 75.7993 124.7 75.7993ZM108.926 75.4993C108.796 75.4993 108.68 75.4068 108.656 75.2741C108.629 75.1249 108.728 74.9818 108.877 74.9544C109.114 74.911 109.353 74.8695 109.592 74.8305C109.741 74.8061 109.883 74.9074 109.907 75.0571C109.931 75.2068 109.83 75.348 109.681 75.3724C109.445 75.4112 109.21 75.4518 108.976 75.4947C108.959 75.4977 108.942 75.4993 108.926 75.4993ZM111.063 75.1694C110.927 75.1694 110.809 75.0678 110.791 74.9291C110.772 74.7786 110.879 74.6413 111.029 74.6223C111.269 74.5921 111.51 74.5641 111.75 74.5383C111.905 74.5218 112.036 74.6314 112.053 74.7822C112.069 74.9329 111.96 75.0684 111.809 75.0846C111.571 75.1101 111.334 75.1379 111.098 75.1675C111.086 75.1686 111.074 75.1694 111.063 75.1694ZM120.43 75.0884C120.42 75.0884 120.411 75.0879 120.401 75.0868C120.162 75.0609 119.924 75.0373 119.685 75.0156C119.534 75.0019 119.423 74.8684 119.436 74.7173C119.45 74.5663 119.588 74.4559 119.734 74.4685C119.977 74.4905 120.218 74.5144 120.46 74.5407C120.611 74.5572 120.72 74.6926 120.703 74.8434C120.688 74.984 120.569 75.0884 120.43 75.0884ZM113.217 74.9574C113.074 74.9574 112.953 74.847 112.943 74.7022C112.932 74.5509 113.046 74.4196 113.198 74.4089C113.439 74.3919 113.681 74.3768 113.922 74.3638C114.067 74.3556 114.203 74.4718 114.211 74.6234C114.219 74.775 114.103 74.9044 113.952 74.9123C113.714 74.925 113.475 74.9401 113.237 74.9569C113.23 74.9571 113.223 74.9574 113.217 74.9574ZM118.268 74.9132C118.262 74.9132 118.258 74.9132 118.253 74.9129C118.014 74.9003 117.774 74.8896 117.535 74.881C117.383 74.8755 117.265 74.7484 117.271 74.5968C117.276 74.4449 117.418 74.3273 117.554 74.332C117.797 74.3408 118.04 74.3515 118.282 74.3644C118.433 74.3724 118.55 74.5017 118.541 74.6533C118.534 74.7997 118.412 74.9132 118.268 74.9132ZM115.379 74.8615C115.23 74.8615 115.108 74.7418 115.105 74.5918C115.102 74.4402 115.223 74.315 115.374 74.3122C115.616 74.3078 115.857 74.3059 116.098 74.3059C116.249 74.3059 116.374 74.4289 116.374 74.5806C116.374 74.7322 116.252 74.8552 116.101 74.8552C115.86 74.8552 115.622 74.8574 115.384 74.8615C115.382 74.8615 115.381 74.8615 115.379 74.8615ZM122.029 74.0768C122.004 74.0768 121.978 74.0732 121.953 74.0656C121.807 74.0233 121.723 73.8708 121.766 73.725C121.833 73.4945 121.902 73.2627 121.973 73.0298C122.017 72.8848 122.17 72.8029 122.316 72.8471C122.461 72.8916 122.542 73.0449 122.498 73.1902C122.428 73.4209 122.359 73.6505 122.293 73.8788C122.258 73.9988 122.148 74.0768 122.029 74.0768ZM122.677 72.0102C122.648 72.0102 122.618 72.0056 122.589 71.9957C122.446 71.9471 122.368 71.7913 122.417 71.6474C122.494 71.418 122.574 71.1895 122.657 70.9621C122.709 70.8193 122.867 70.7462 123.009 70.7984C123.152 70.8503 123.225 71.0082 123.173 71.1505C123.091 71.3736 123.013 71.5977 122.937 71.8229C122.898 71.9377 122.791 72.0102 122.677 72.0102ZM123.439 69.9892C123.404 69.9892 123.368 69.9824 123.333 69.9678C123.193 69.9093 123.127 69.7483 123.186 69.6085C123.279 69.3847 123.375 69.1622 123.474 68.9403C123.536 68.8016 123.697 68.7395 123.836 68.801C123.975 68.8628 124.037 69.0251 123.975 69.1636C123.878 69.3814 123.784 69.6003 123.692 69.8203C123.648 69.9258 123.546 69.9892 123.439 69.9892ZM124.34 68.0226C124.299 68.0226 124.257 68.0133 124.218 67.9938C124.082 67.9259 124.027 67.7611 124.095 67.6254C124.203 67.4087 124.313 67.1928 124.426 66.9781C124.498 66.844 124.663 66.7924 124.798 66.8635C124.931 66.9344 124.983 67.1006 124.912 67.2346C124.801 67.4458 124.692 67.6579 124.586 67.871C124.538 67.9669 124.44 68.0226 124.34 68.0226ZM125.368 66.1189C125.321 66.1189 125.273 66.1071 125.23 66.0815C125.099 66.0055 125.054 65.8371 125.131 65.7061C125.252 65.4968 125.376 65.2883 125.503 65.0809C125.582 64.9516 125.751 64.9106 125.88 64.9895C126.009 65.0686 126.05 65.2375 125.971 65.3671C125.847 65.5712 125.725 65.7761 125.605 65.9821C125.554 66.07 125.462 66.1189 125.368 66.1189ZM126.511 64.2817C126.458 64.2817 126.405 64.2668 126.359 64.2358C126.233 64.1517 126.198 63.9814 126.282 63.8551C126.416 63.6535 126.552 63.453 126.69 63.2533C126.776 63.1289 126.947 63.0973 127.072 63.1841C127.197 63.2703 127.228 63.4417 127.142 63.5664C127.005 63.7631 126.871 63.9608 126.739 64.1594C126.687 64.2388 126.6 64.2817 126.511 64.2817ZM127.757 62.5128C127.7 62.5128 127.642 62.4949 127.593 62.4581C127.472 62.3672 127.447 62.1953 127.538 62.0736C127.682 61.88 127.829 61.6872 127.977 61.4954C128.07 61.3757 128.242 61.3537 128.362 61.4465C128.482 61.5394 128.504 61.7119 128.411 61.8319C128.265 62.0211 128.12 62.2115 127.977 62.4027C127.923 62.4749 127.841 62.5128 127.757 62.5128ZM129.096 60.8121C129.034 60.8121 128.973 60.7915 128.921 60.7489C128.804 60.6519 128.788 60.4789 128.885 60.3622C129.039 60.1762 129.195 59.9911 129.352 59.8068C129.452 59.6914 129.625 59.6785 129.739 59.7768C129.855 59.8755 129.868 60.0488 129.769 60.1641C129.613 60.3462 129.459 60.5292 129.307 60.7129C129.253 60.778 129.175 60.8121 129.096 60.8121ZM130.517 59.1783C130.451 59.1783 130.385 59.1547 130.332 59.1067C130.22 59.0045 130.212 58.8306 130.314 58.7186C130.477 58.5403 130.641 58.3623 130.807 58.1857C130.911 58.075 131.085 58.0698 131.195 58.1736C131.305 58.2774 131.311 58.4513 131.207 58.562C131.043 58.7367 130.881 58.9125 130.72 59.0888C130.666 59.1481 130.591 59.1783 130.517 59.1783ZM132.009 57.6092C131.939 57.6092 131.869 57.5825 131.816 57.5292C131.708 57.4224 131.707 57.2485 131.814 57.1409C131.984 56.9695 132.155 56.7992 132.328 56.6292C132.436 56.5229 132.61 56.5242 132.716 56.633C132.823 56.7412 132.821 56.9151 132.712 57.0214C132.541 57.1895 132.372 57.3584 132.204 57.5279C132.15 57.5823 132.079 57.6092 132.009 57.6092ZM133.563 56.1021C133.49 56.1021 133.417 56.0727 133.363 56.0147C133.259 55.9038 133.265 55.7299 133.376 55.6266C133.553 55.4621 133.73 55.2981 133.91 55.135C134.022 55.0331 134.196 55.0413 134.297 55.1534C134.399 55.2657 134.391 55.4396 134.279 55.5415C134.101 55.7033 133.925 55.8656 133.75 56.0285C133.697 56.0776 133.63 56.1021 133.563 56.1021ZM135.173 54.6532C135.096 54.6532 135.019 54.6211 134.965 54.5587C134.866 54.4442 134.878 54.2706 134.993 54.1712C135.175 54.013 135.358 53.8556 135.542 53.6987C135.658 53.6004 135.831 53.6147 135.929 53.7301C136.027 53.8457 136.013 54.019 135.898 54.1173C135.715 54.2731 135.533 54.4291 135.353 54.5859C135.301 54.6312 135.236 54.6532 135.173 54.6532ZM136.83 53.2596C136.75 53.2596 136.671 53.2249 136.617 53.1582C136.522 53.0404 136.539 52.8673 136.657 52.7718C136.844 52.6196 137.032 52.4682 137.221 52.3172C137.34 52.2224 137.513 52.2425 137.607 52.3606C137.701 52.4792 137.682 52.652 137.563 52.7465C137.376 52.8962 137.189 53.0467 137.003 53.1978C136.952 53.2395 136.891 53.2596 136.83 53.2596ZM138.53 51.9175C138.447 51.9175 138.366 51.8805 138.312 51.8099C138.219 51.6896 138.242 51.5171 138.363 51.4248C138.554 51.2781 138.746 51.1323 138.94 50.9867C139.061 50.8955 139.233 50.9202 139.324 51.0411C139.415 51.1625 139.391 51.3344 139.27 51.4256C139.078 51.5701 138.886 51.7151 138.697 51.8607C138.647 51.8989 138.588 51.9175 138.53 51.9175ZM140.266 50.6233C140.181 50.6233 140.098 50.5838 140.043 50.5096C139.955 50.3868 139.982 50.2149 140.105 50.1262C140.3 49.9847 140.496 49.8438 140.694 49.7037C140.817 49.6161 140.989 49.6449 141.076 49.7683C141.164 49.8919 141.135 50.0635 141.012 50.1514C140.816 50.2907 140.621 50.4308 140.427 50.5711C140.379 50.6063 140.322 50.6233 140.266 50.6233ZM142.035 49.3736C141.948 49.3736 141.862 49.3321 141.809 49.2546C141.723 49.1297 141.755 48.9585 141.879 48.8726C142.078 48.7358 142.277 48.5996 142.478 48.4641C142.604 48.3793 142.774 48.4125 142.859 48.5383C142.944 48.6641 142.911 48.835 142.785 48.9196C142.586 49.0541 142.388 49.1895 142.191 49.3252C142.143 49.3579 142.089 49.3736 142.035 49.3736ZM143.833 48.1656C143.743 48.1656 143.656 48.1219 143.603 48.0417C143.52 47.9148 143.555 47.7445 143.682 47.6613C143.883 47.5292 144.085 47.3973 144.289 47.2661C144.415 47.1839 144.585 47.2202 144.668 47.3479C144.75 47.4756 144.714 47.6454 144.586 47.7278C144.384 47.8582 144.183 47.9893 143.983 48.1205C143.937 48.1513 143.885 48.1656 143.833 48.1656ZM145.656 46.9958C145.564 46.9958 145.475 46.9502 145.423 46.8672C145.342 46.7387 145.381 46.5692 145.51 46.4888C145.713 46.3605 145.918 46.2328 146.124 46.1059C146.253 46.0259 146.422 46.066 146.501 46.1951C146.581 46.3242 146.541 46.4934 146.412 46.5731C146.208 46.6994 146.004 46.8263 145.801 46.9538C145.756 46.9823 145.706 46.9958 145.656 46.9958ZM147.501 45.8614C147.408 45.8614 147.317 45.8142 147.266 45.7285C147.188 45.5986 147.229 45.4296 147.359 45.3513C147.566 45.2269 147.772 45.1031 147.98 44.9797C148.11 44.902 148.279 44.9454 148.356 45.0756C148.433 45.2061 148.391 45.3744 148.26 45.4522C148.054 45.5749 147.848 45.6983 147.642 45.8219C147.598 45.8488 147.549 45.8614 147.501 45.8614ZM149.366 44.7594C149.271 44.7594 149.179 44.7103 149.128 44.6224C149.052 44.4911 149.097 44.323 149.228 44.2469C149.437 44.1261 149.646 44.0058 149.855 43.8857C149.987 43.8107 150.154 43.8563 150.229 43.9879C150.305 44.1195 150.259 44.2873 150.127 44.3628C149.919 44.4823 149.711 44.6021 149.503 44.7224C149.46 44.7476 149.413 44.7594 149.366 44.7594ZM151.248 43.6877C151.152 43.6877 151.059 43.6369 151.008 43.5471C150.934 43.4147 150.981 43.2474 151.114 43.1732C151.324 43.0557 151.535 42.9387 151.746 42.8217C151.878 42.7483 152.045 42.7964 152.119 42.9291C152.192 43.0617 152.144 43.229 152.011 43.3023C151.801 43.4188 151.591 43.5355 151.382 43.6528C151.339 43.6764 151.293 43.6877 151.248 43.6877ZM153.141 42.6459C153.043 42.6459 152.949 42.5937 152.899 42.502C152.827 42.3685 152.877 42.2018 153.01 42.1298L153.644 41.7881C153.778 41.7164 153.945 41.7667 154.016 41.9004C154.088 42.0342 154.037 42.2006 153.904 42.2723L153.271 42.6132C153.229 42.6354 153.185 42.6459 153.141 42.6459ZM155.047 41.6291C154.948 41.6291 154.853 41.5758 154.803 41.4821C154.733 41.3478 154.785 41.1819 154.919 41.1113L155.559 40.7768C155.693 40.7065 155.859 40.7592 155.929 40.8935C155.999 41.0281 155.947 41.194 155.812 41.264L155.174 41.5978C155.133 41.6192 155.09 41.6291 155.047 41.6291ZM156.969 40.6334C156.869 40.6334 156.772 40.5787 156.724 40.4837C156.655 40.3486 156.709 40.1832 156.844 40.1143L157.489 39.7863C157.624 39.7177 157.789 39.772 157.858 39.9072C157.926 40.0426 157.872 40.2077 157.737 40.2763L157.094 40.6035C157.053 40.6238 157.011 40.6334 156.969 40.6334ZM158.905 39.6567C158.804 39.6567 158.706 39.6009 158.659 39.5042C158.591 39.3686 158.647 39.2035 158.782 39.1359L159.431 38.814C159.567 38.7467 159.732 38.8027 159.799 38.9387C159.866 39.0747 159.81 39.2395 159.674 39.3065L159.027 39.6278C158.988 39.6476 158.946 39.6567 158.905 39.6567ZM160.854 38.697C160.752 38.697 160.654 38.6401 160.607 38.5426C160.541 38.4061 160.597 38.2419 160.734 38.1754L161.383 37.8601C161.521 37.7939 161.684 37.8516 161.75 37.9878C161.816 38.1243 161.759 38.2886 161.622 38.3545L160.974 38.6693C160.935 38.6882 160.894 38.697 160.854 38.697ZM162.805 37.7568C162.702 37.7568 162.604 37.6991 162.557 37.6003C162.492 37.4632 162.55 37.2995 162.686 37.2341L163.339 36.924C163.476 36.8589 163.64 36.9177 163.705 37.0548C163.769 37.1918 163.711 37.3555 163.574 37.4206L162.923 37.7302C162.884 37.7483 162.844 37.7568 162.805 37.7568ZM164.763 36.8315C164.66 36.8315 164.561 36.773 164.515 36.673C164.451 36.5357 164.51 36.3722 164.647 36.308L165.302 36.0022C165.44 35.9382 165.603 35.9981 165.666 36.1355C165.73 36.2728 165.671 36.4362 165.533 36.5005L164.88 36.8057C164.842 36.8232 164.802 36.8315 164.763 36.8315ZM166.728 35.919C166.624 35.919 166.525 35.86 166.478 35.7592C166.415 35.6216 166.475 35.4581 166.613 35.3947L167.269 35.0928C167.409 35.0294 167.57 35.0904 167.633 35.2282C167.696 35.3661 167.636 35.5293 167.498 35.5924L166.843 35.8938C166.806 35.9108 166.766 35.919 166.728 35.919ZM168.697 35.017C168.593 35.017 168.493 34.9571 168.447 34.8561C168.385 34.7179 168.445 34.555 168.583 34.4924L169.241 34.1938C169.379 34.1309 169.542 34.1927 169.604 34.3309C169.667 34.4691 169.605 34.6319 169.467 34.6946L168.81 34.9926C168.774 35.0091 168.735 35.017 168.697 35.017ZM170.671 34.1246C170.566 34.1246 170.466 34.0642 170.421 33.9623C170.358 33.8241 170.42 33.6615 170.558 33.5992L171.217 33.3034C171.356 33.241 171.518 33.3034 171.58 33.4418C171.642 33.5802 171.58 33.7428 171.442 33.8046L170.783 34.1002C170.747 34.1169 170.708 34.1246 170.671 34.1246ZM172.648 33.2388C172.543 33.2388 172.443 33.1781 172.397 33.0759C172.335 32.9375 172.397 32.7749 172.536 32.7131L173.196 32.4192C173.334 32.3571 173.496 32.42 173.558 32.5585C173.619 32.6972 173.557 32.8595 173.418 32.921L172.759 33.2149C172.723 33.2311 172.685 33.2388 172.648 33.2388ZM174.627 32.3582C174.522 32.3582 174.421 32.2973 174.376 32.1948C174.315 32.0561 174.377 31.8938 174.516 31.8325L175.176 31.5397C175.315 31.4777 175.476 31.5408 175.538 31.6795C175.599 31.8182 175.537 31.9806 175.398 32.0418L174.738 32.3346C174.702 32.3508 174.664 32.3582 174.627 32.3582ZM176.607 31.4807C176.502 31.4807 176.401 31.4197 176.356 31.317C176.295 31.1783 176.357 31.016 176.496 30.9547L177.156 30.6625C177.294 30.6009 177.457 30.6638 177.518 30.8025C177.579 30.9412 177.517 31.1036 177.378 31.1648L176.718 31.4571C176.682 31.4733 176.644 31.4807 176.607 31.4807ZM178.588 30.6034C178.483 30.6034 178.382 30.5424 178.337 30.44C178.275 30.3013 178.338 30.1389 178.477 30.0777L179.137 29.7852C179.276 29.7231 179.437 29.7863 179.499 29.925C179.56 30.0637 179.498 30.226 179.359 30.2873L178.699 30.5801C178.663 30.596 178.625 30.6034 178.588 30.6034ZM180.568 29.7247C180.463 29.7247 180.363 29.664 180.317 29.5616C180.256 29.4232 180.318 29.2606 180.456 29.199L181.116 28.9054C181.255 28.8439 181.416 28.906 181.478 29.0444C181.54 29.1831 181.477 29.3454 181.339 29.4072L180.679 29.7011C180.643 29.7171 180.605 29.7247 180.568 29.7247ZM182.546 28.8417C182.441 28.8417 182.341 28.7813 182.295 28.6794C182.233 28.5409 182.295 28.3783 182.434 28.3165L183.092 28.021C183.231 27.9584 183.393 28.0204 183.455 28.1589C183.517 28.2973 183.455 28.4599 183.317 28.522L182.658 28.8178C182.622 28.834 182.583 28.8417 182.546 28.8417ZM184.521 27.9512C184.417 27.9512 184.317 27.8913 184.271 27.79C184.208 27.6518 184.27 27.489 184.408 27.4266L185.064 27.1278C185.202 27.0649 185.365 27.1258 185.428 27.264C185.491 27.4019 185.43 27.5648 185.292 27.6279L184.635 27.927C184.598 27.9435 184.559 27.9512 184.521 27.9512ZM186.492 27.0506C186.388 27.0506 186.289 26.9915 186.242 26.8907C186.179 26.7531 186.239 26.59 186.377 26.5262L187.031 26.2233C187.17 26.1596 187.332 26.2194 187.396 26.3571C187.459 26.4947 187.4 26.6578 187.262 26.7218L186.607 27.0253C186.569 27.0423 186.53 27.0506 186.492 27.0506ZM188.455 26.1354C188.352 26.1354 188.253 26.0772 188.207 25.9777C188.142 25.8404 188.201 25.677 188.338 25.6122L188.99 25.3037C189.127 25.2383 189.291 25.2971 189.356 25.4342C189.421 25.5712 189.362 25.7349 189.225 25.8L188.572 26.1093C188.534 26.1269 188.494 26.1354 188.455 26.1354ZM190.41 25.2015C190.308 25.2015 190.21 25.1444 190.163 25.0466C190.097 24.9101 190.154 24.7459 190.29 24.6797L190.938 24.3638C191.075 24.2973 191.239 24.3536 191.306 24.4899C191.372 24.6261 191.316 24.7906 191.18 24.8571L190.53 25.1738C190.491 25.1925 190.45 25.2015 190.41 25.2015ZM192.353 24.2435C192.252 24.2435 192.155 24.188 192.107 24.0921C192.039 23.9565 192.094 23.7914 192.229 23.7235C192.445 23.6151 192.66 23.5066 192.873 23.3986C193.007 23.3297 193.173 23.3841 193.242 23.5192C193.31 23.6546 193.257 23.8197 193.121 23.8884C192.908 23.9971 192.693 24.1056 192.476 24.2144C192.436 24.2342 192.394 24.2435 192.353 24.2435ZM194.281 23.2558C194.183 23.2558 194.087 23.2022 194.038 23.1086C193.968 22.9743 194.02 22.8084 194.154 22.7378C194.368 22.6254 194.58 22.5134 194.79 22.4013C194.924 22.3302 195.091 22.381 195.162 22.5147C195.233 22.6485 195.182 22.8149 195.048 22.8864C194.837 22.999 194.624 23.1116 194.408 23.2245C194.368 23.2456 194.324 23.2558 194.281 23.2558ZM196.189 22.2296C196.092 22.2296 195.999 22.1783 195.949 22.0876C195.875 21.955 195.924 21.7877 196.056 21.7144C196.268 21.5974 196.477 21.4803 196.685 21.3636C196.817 21.2892 196.984 21.3359 197.058 21.468C197.133 21.6001 197.086 21.7676 196.954 21.8421C196.745 21.9599 196.535 22.0775 196.322 22.1953C196.28 22.2187 196.234 22.2296 196.189 22.2296ZM198.07 21.1554C197.976 21.1554 197.885 21.1071 197.833 21.0203C197.757 20.8895 197.8 20.7212 197.93 20.644C198.139 20.5209 198.344 20.3979 198.547 20.2748C198.677 20.1963 198.846 20.2378 198.924 20.3674C199.003 20.497 198.961 20.666 198.832 20.7448C198.627 20.8689 198.419 20.9931 198.209 21.1172C198.166 21.1431 198.118 21.1554 198.07 21.1554ZM199.915 20.0197C199.825 20.0197 199.736 19.9752 199.684 19.8936C199.602 19.7662 199.639 19.5961 199.766 19.514C199.969 19.3833 200.17 19.2523 200.367 19.1212C200.493 19.0372 200.664 19.0718 200.748 19.1984C200.832 19.3248 200.797 19.4953 200.671 19.5791C200.471 19.7115 200.269 19.8436 200.063 19.976C200.017 20.0057 199.966 20.0197 199.915 20.0197ZM201.708 18.8062C201.622 18.8062 201.538 18.7661 201.484 18.6914C201.396 18.5681 201.425 18.3964 201.548 18.3082C201.745 18.1676 201.937 18.027 202.126 17.8858C202.247 17.7949 202.419 17.8199 202.51 17.9415C202.601 18.0629 202.576 18.2352 202.454 18.3258C202.262 18.4689 202.067 18.612 201.867 18.7548C201.819 18.7894 201.763 18.8062 201.708 18.8062ZM203.426 17.4908C203.347 17.4908 203.268 17.4568 203.214 17.3908C203.118 17.2738 203.134 17.1008 203.252 17.0041C203.438 16.8506 203.619 16.6968 203.796 16.5427C203.911 16.4435 204.084 16.4548 204.183 16.5696C204.283 16.6841 204.271 16.8574 204.156 16.9571C203.976 17.1145 203.79 17.2716 203.6 17.4282C203.549 17.4705 203.488 17.4908 203.426 17.4908ZM205.03 16.0422C204.96 16.0422 204.89 16.0153 204.836 15.9617C204.729 15.8543 204.729 15.6808 204.836 15.5734C205.006 15.4033 205.17 15.2328 205.327 15.0619C205.43 14.9504 205.605 14.9438 205.715 15.0463C205.827 15.1493 205.834 15.3229 205.731 15.4344C205.568 15.6107 205.4 15.7862 205.224 15.9617C205.171 16.0156 205.101 16.0422 205.03 16.0422ZM206.45 14.4211C206.393 14.4211 206.335 14.4033 206.285 14.3659C206.164 14.2747 206.14 14.1025 206.231 13.9814C206.374 13.7919 206.51 13.5982 206.636 13.4068C206.72 13.2804 206.889 13.245 207.016 13.3285C207.143 13.412 207.178 13.5823 207.094 13.7089C206.962 13.91 206.819 14.1127 206.67 14.3113C206.615 14.3832 206.533 14.4211 206.45 14.4211ZM207.567 12.5627C207.531 12.5627 207.495 12.5556 207.461 12.5399C207.323 12.477 207.257 12.326 207.319 12.1881L207.333 12.1579C207.397 12.0206 207.561 11.9615 207.698 12.0263C207.835 12.0909 207.894 12.2546 207.83 12.3919C207.782 12.496 207.675 12.5627 207.567 12.5627Z" fill="#141414"/>
<path d="M185.213 97.1036C185.11 97.1036 185.012 97.0454 184.966 96.9479C184.906 96.824 184.947 96.6751 185.062 96.5996L198.86 87.4933C198.908 87.4614 198.968 87.4463 199.023 87.4482L211.615 88.0047C211.747 88.0105 211.857 88.1107 211.875 88.2423C211.892 88.3739 211.814 88.4997 211.687 88.5403L185.297 97.0901C185.269 97.0992 185.241 97.1036 185.213 97.1036ZM199.088 88.0009L187.052 95.9445L210.072 88.4862L199.088 88.0009Z" fill="#141414"/>
<path d="M154.613 84.0498L154.296 85.3322C154.208 85.6865 153.705 85.6865 153.617 85.3322L153.3 84.0498C153.029 82.9561 152.175 82.1021 151.083 81.831L149.801 81.5132C149.447 81.4253 149.447 80.9216 149.801 80.834L151.083 80.5162C152.175 80.2451 153.029 79.3912 153.3 78.2974L153.617 77.015C153.705 76.6607 154.208 76.6607 154.296 77.015L154.613 78.2974C154.884 79.3912 155.737 80.2451 156.83 80.5162L158.112 80.834C158.466 80.9219 158.466 81.4256 158.112 81.5132L156.83 81.831C155.737 82.1021 154.884 82.9561 154.613 84.0498Z" fill="#141414"/>
<path d="M97.2306 35.5162L96.9131 36.7986C96.8252 37.1529 96.3219 37.1529 96.2344 36.7986L95.9168 35.5162C95.6459 34.4225 94.7927 33.5685 93.6999 33.2974L92.4185 32.9796C92.0644 32.8917 92.0644 32.388 92.4185 32.3004L93.6999 31.9826C94.7927 31.7115 95.6459 30.8576 95.9168 29.7638L96.2344 28.4814C96.3222 28.1271 96.8255 28.1271 96.9131 28.4814L97.2306 29.7638C97.5015 30.8576 98.3547 31.7115 99.4475 31.9826L100.729 32.3004C101.083 32.3883 101.083 32.892 100.729 32.9796L99.4475 33.2974C98.3547 33.5685 97.5015 34.4225 97.2306 35.5162Z" fill="#141414"/>
<path d="M390.073 35.5162L389.755 36.7986C389.668 37.1529 389.164 37.1529 389.076 36.7986L388.759 35.5162C388.488 34.4225 387.635 33.5685 386.542 33.2974L385.261 32.9796C384.907 32.8917 384.907 32.388 385.261 32.3004L386.542 31.9826C387.635 31.7115 388.488 30.8576 388.759 29.7638L389.076 28.4814C389.164 28.1271 389.668 28.1271 389.755 28.4814L390.073 29.7638C390.344 30.8576 391.197 31.7115 392.29 31.9826L393.571 32.3004C393.925 32.3883 393.925 32.892 393.571 32.9796L392.29 33.2974C391.197 33.5685 390.344 34.4225 390.073 35.5162Z" fill="#141414"/>
<path d="M304.308 7.3005L303.991 8.58292C303.903 8.93724 303.4 8.93724 303.312 8.58292L302.994 7.3005C302.723 6.20678 301.87 5.35284 300.777 5.08174L299.496 4.76396C299.142 4.67606 299.142 4.17232 299.496 4.0847L300.777 3.76692C301.87 3.49582 302.723 2.64188 302.994 1.54816L303.312 0.26574C303.4 -0.08858 303.903 -0.08858 303.991 0.26574L304.308 1.54816C304.579 2.64188 305.432 3.49582 306.525 3.76692L307.807 4.0847C308.161 4.1726 308.161 4.67634 307.807 4.76396L306.525 5.08174C305.432 5.35284 304.579 6.20678 304.308 7.3005Z" fill="#141414"/>
<path d="M5.07763 114.516L4.7601 115.798C4.67228 116.153 4.16895 116.153 4.0814 115.798L3.76387 114.516C3.49299 113.422 2.63974 112.568 1.54691 112.297L0.265525 111.979C-0.0885083 111.891 -0.0885083 111.388 0.265525 111.3L1.54691 110.982C2.63974 110.711 3.49299 109.857 3.76387 108.763L4.0814 107.481C4.16922 107.127 4.67255 107.127 4.7601 107.481L5.07763 108.763C5.34851 109.857 6.20176 110.711 7.2946 110.982L8.57598 111.3C8.93001 111.388 8.93001 111.892 8.57598 111.979L7.2946 112.297C6.20176 112.568 5.34851 113.422 5.07763 114.516Z" fill="#141414"/>
<path d="M453.983 114.813L453.665 116.095C453.577 116.45 453.074 116.45 452.986 116.095L452.669 114.813C452.398 113.719 451.545 112.865 450.452 112.594L449.17 112.276C448.816 112.189 448.816 111.685 449.17 111.597L450.452 111.279C451.545 111.008 452.398 110.154 452.669 109.061L452.986 107.778C453.074 107.424 453.577 107.424 453.665 107.778L453.983 109.061C454.253 110.154 455.107 111.008 456.2 111.279L457.481 111.597C457.835 111.685 457.835 112.189 457.481 112.276L456.2 112.594C455.107 112.865 454.253 113.719 453.983 114.813Z" fill="#141414"/>
<path d="M233.413 4.42419L224.309 17.8084L218.507 11.571L233.413 4.42419Z" fill="#141414"/>
<path d="M233.413 4.42419L211.059 5.56873L218.507 11.571L233.413 4.42419Z" fill="white"/>
<path d="M218.507 11.8454C218.446 11.8454 218.385 11.8248 218.335 11.7847L210.887 5.78269C210.798 5.71127 210.763 5.59262 210.798 5.48412C210.833 5.37563 210.932 5.30037 211.045 5.2946L233.399 4.15007C233.528 4.14293 233.646 4.22999 233.679 4.35662C233.711 4.48351 233.649 4.61535 233.531 4.67193L218.626 11.8185C218.588 11.8366 218.547 11.8454 218.507 11.8454ZM211.791 5.80631L218.544 11.2483L232.059 4.76862L211.791 5.80631Z" fill="#141414"/>
<path d="M233.413 4.42419L212.498 22.6596L218.507 11.571L233.413 4.42419Z" fill="white"/>
<path d="M212.498 22.9345C212.437 22.9345 212.377 22.9145 212.327 22.8741C212.223 22.7912 212.194 22.6456 212.257 22.5288L218.266 11.44C218.294 11.3889 218.336 11.3483 218.388 11.3233L233.294 4.17672C233.419 4.11712 233.567 4.15914 233.642 4.27368C233.717 4.38849 233.696 4.54148 233.593 4.63157L212.678 22.867C212.627 22.9117 212.563 22.9345 212.498 22.9345ZM218.706 11.78L213.464 21.4533L231.708 5.54593L218.706 11.78Z" fill="#141414"/>
</svg>
