<svg width="112" height="112" viewBox="0 0 112 112" fill="none" xmlns="http://www.w3.org/2000/svg">
<path d="M98 70C98 72.4754 97.0167 74.8493 95.2663 76.5997C93.516 78.35 91.142 79.3333 88.6667 79.3333H32.6667L14 98V23.3333C14 20.858 14.9833 18.484 16.7337 16.7337C18.484 14.9833 20.858 14 23.3333 14H88.6667C91.142 14 93.516 14.9833 95.2663 16.7337C97.0167 18.484 98 20.858 98 23.3333V70Z" stroke="#142363" stroke-width="5" stroke-linecap="round" stroke-linejoin="round"/>
<path d="M38.9023 45.8867V48.6289H29.9961V45.8867H38.9023ZM31.0391 38.9375V56H27.5234V38.9375H31.0391ZM41.4102 38.9375V56H37.9062V38.9375H41.4102ZM49.6138 56.2344C48.6294 56.2344 47.7466 56.0781 46.9653 55.7656C46.1841 55.4453 45.52 55.0039 44.9731 54.4414C44.4341 53.8789 44.02 53.2266 43.7309 52.4844C43.4419 51.7344 43.2973 50.9375 43.2973 50.0938V49.625C43.2973 48.6641 43.4341 47.7852 43.7075 46.9883C43.9809 46.1914 44.3716 45.5 44.8794 44.9141C45.395 44.3281 46.02 43.8789 46.7544 43.5664C47.4888 43.2461 48.3169 43.0859 49.2388 43.0859C50.1372 43.0859 50.9341 43.2344 51.6294 43.5312C52.3247 43.8281 52.9067 44.25 53.3755 44.7969C53.852 45.3438 54.2114 46 54.4536 46.7656C54.6958 47.5234 54.8169 48.3672 54.8169 49.2969V50.7031H44.7388V48.4531H51.5005V48.1953C51.5005 47.7266 51.4145 47.3086 51.2427 46.9414C51.0786 46.5664 50.8286 46.2695 50.4927 46.0508C50.1567 45.832 49.727 45.7227 49.2036 45.7227C48.7583 45.7227 48.3755 45.8203 48.0552 46.0156C47.7348 46.2109 47.4731 46.4844 47.27 46.8359C47.0747 47.1875 46.9263 47.6016 46.8247 48.0781C46.7309 48.5469 46.6841 49.0625 46.6841 49.625V50.0938C46.6841 50.6016 46.7544 51.0703 46.895 51.5C47.0434 51.9297 47.2505 52.3008 47.5161 52.6133C47.7895 52.9258 48.1177 53.168 48.5005 53.3398C48.8911 53.5117 49.3325 53.5977 49.8247 53.5977C50.4341 53.5977 51.0005 53.4805 51.5239 53.2461C52.0552 53.0039 52.5122 52.6406 52.895 52.1562L54.5356 53.9375C54.27 54.3203 53.9067 54.6875 53.4458 55.0391C52.9927 55.3906 52.4458 55.6797 51.8052 55.9062C51.1645 56.125 50.4341 56.2344 49.6138 56.2344ZM59.8213 38V56H56.4345V38H59.8213ZM65.6928 38V56H62.3061V38H65.6928ZM67.4628 49.7891V49.543C67.4628 48.6133 67.5956 47.7578 67.8613 46.9766C68.1269 46.1875 68.5136 45.5039 69.0214 44.9258C69.5292 44.3477 70.1542 43.8984 70.8964 43.5781C71.6386 43.25 72.4902 43.0859 73.4511 43.0859C74.412 43.0859 75.2675 43.25 76.0175 43.5781C76.7675 43.8984 77.3964 44.3477 77.9042 44.9258C78.4198 45.5039 78.8105 46.1875 79.0761 46.9766C79.3417 47.7578 79.4745 48.6133 79.4745 49.543V49.7891C79.4745 50.7109 79.3417 51.5664 79.0761 52.3555C78.8105 53.1367 78.4198 53.8203 77.9042 54.4062C77.3964 54.9844 76.7714 55.4336 76.0292 55.7539C75.287 56.0742 74.4355 56.2344 73.4745 56.2344C72.5136 56.2344 71.6581 56.0742 70.9081 55.7539C70.1659 55.4336 69.537 54.9844 69.0214 54.4062C68.5136 53.8203 68.1269 53.1367 67.8613 52.3555C67.5956 51.5664 67.4628 50.7109 67.4628 49.7891ZM70.8378 49.543V49.7891C70.8378 50.3203 70.8847 50.8164 70.9784 51.2773C71.0722 51.7383 71.2206 52.1445 71.4238 52.4961C71.6347 52.8398 71.9081 53.1094 72.2441 53.3047C72.58 53.5 72.9902 53.5977 73.4745 53.5977C73.9433 53.5977 74.3456 53.5 74.6816 53.3047C75.0175 53.1094 75.287 52.8398 75.4902 52.4961C75.6933 52.1445 75.8417 51.7383 75.9355 51.2773C76.037 50.8164 76.0878 50.3203 76.0878 49.7891V49.543C76.0878 49.0273 76.037 48.543 75.9355 48.0898C75.8417 47.6289 75.6894 47.2227 75.4784 46.8711C75.2753 46.5117 75.0058 46.2305 74.6698 46.0273C74.3339 45.8242 73.9277 45.7227 73.4511 45.7227C72.9745 45.7227 72.5683 45.8242 72.2323 46.0273C71.9042 46.2305 71.6347 46.5117 71.4238 46.8711C71.2206 47.2227 71.0722 47.6289 70.9784 48.0898C70.8847 48.543 70.8378 49.0273 70.8378 49.543ZM84.8773 38.9375L84.4906 50.7852H81.6781L81.2797 38.9375H84.8773ZM81.1859 54.4531C81.1859 53.9531 81.3578 53.5391 81.7016 53.2109C82.0531 52.875 82.5141 52.707 83.0844 52.707C83.6625 52.707 84.1234 52.875 84.4672 53.2109C84.8109 53.5391 84.9828 53.9531 84.9828 54.4531C84.9828 54.9375 84.8109 55.3477 84.4672 55.6836C84.1234 56.0195 83.6625 56.1875 83.0844 56.1875C82.5141 56.1875 82.0531 56.0195 81.7016 55.6836C81.3578 55.3477 81.1859 54.9375 81.1859 54.4531Z" fill="#142363"/>
</svg>
