<svg width="1432" height="1193" viewBox="0 0 1432 1193" fill="none" xmlns="http://www.w3.org/2000/svg">
<path d="M887.442 537.811C887.442 537.811 859.455 495.741 846.98 497.328C834.504 498.916 839.409 511.522 845.246 518.158C851.083 524.794 856.521 532.359 850.945 537.133C845.369 541.908 829.844 536.461 824.936 531.815C820.027 527.17 807.692 507.927 798.533 513.629C789.373 519.33 796.934 530.346 796.934 530.346C796.934 530.346 788.972 526.628 786.712 535.251C784.453 543.874 795.861 557.677 795.861 557.677C795.861 557.677 787.369 560.537 795.059 570.944C802.659 581.228 820.351 588.123 834.153 587.863C847.955 587.603 866.454 585.302 866.454 585.302L969.702 658.363C995.25 674.187 1028.9 663.313 1040.34 635.53L1069.96 568.942L993.921 520.356L969.019 570.814L887.442 537.811Z" fill="white"/>
<path d="M995.319 666.461C986.221 666.461 977.206 663.947 969.283 659.039L866.245 586.127C863.77 586.426 846.885 588.417 834.168 588.657C821.06 588.914 802.627 582.523 794.42 571.416C791.498 567.463 790.463 564.042 791.342 561.248C792.001 559.155 793.57 557.967 794.61 557.385C792.181 554.257 783.899 542.845 785.942 535.049C786.676 532.245 788.066 530.346 790.072 529.405C791.883 528.556 793.813 528.676 795.22 528.975C794.114 526.81 792.644 523.029 793.421 519.314C793.971 516.688 795.549 514.548 798.112 512.953C805.91 508.098 815.292 519.313 821.501 526.733C823.094 528.637 824.47 530.28 825.482 531.237C830.101 535.61 845.181 541.025 850.427 536.528C851.693 535.444 852.361 534.191 852.466 532.698C852.763 528.492 848.444 522.998 844.648 518.682C840.56 514.035 837.027 506.743 838.929 501.716C840.027 498.812 842.702 497.07 846.878 496.538C852.34 495.839 860.961 502.55 872.501 516.466C880.332 525.912 886.939 535.64 887.966 537.165L968.631 569.798L993.207 520.003C993.307 519.8 993.488 519.65 993.706 519.589C993.923 519.524 994.157 519.563 994.348 519.684L1070.39 568.27C1070.72 568.483 1070.84 568.904 1070.68 569.264L1041.07 635.852C1035.53 649.29 1024.41 659.577 1010.55 664.055C1005.57 665.667 1000.43 666.461 995.319 666.461ZM866.454 584.506C866.618 584.506 866.779 584.556 866.914 584.652L970.162 657.714C982.099 665.106 996.659 666.875 1010.07 662.542C1023.48 658.208 1034.24 648.252 1039.61 635.226L1068.95 569.243L994.242 521.504L969.732 571.165C969.548 571.538 969.106 571.707 968.72 571.55L887.143 538.547C886.994 538.488 886.868 538.384 886.779 538.251C886.501 537.834 858.922 496.609 847.08 498.116C843.532 498.567 841.291 499.968 840.417 502.278C838.823 506.494 841.94 513.194 845.843 517.632C850.092 522.462 854.39 528.044 854.053 532.809C853.918 534.722 853.046 536.38 851.462 537.736C847.827 540.849 841.148 539.724 837.489 538.775C832.253 537.419 826.988 534.853 824.387 532.393C823.309 531.372 821.905 529.694 820.28 527.753C814.424 520.755 805.568 510.182 798.952 514.303C796.774 515.658 795.438 517.452 794.98 519.633C793.955 524.509 797.552 529.842 797.588 529.895C797.79 530.191 797.77 530.584 797.538 530.858C797.307 531.131 796.922 531.213 796.596 531.066C796.564 531.051 793.376 529.608 790.739 530.848C789.184 531.581 788.088 533.129 787.48 535.451C785.348 543.586 796.361 557.035 796.472 557.17C796.638 557.372 796.696 557.643 796.624 557.894C796.552 558.146 796.361 558.346 796.112 558.43C796.09 558.438 793.606 559.32 792.853 561.742C792.145 564.022 793.101 566.96 795.697 570.472C802.776 580.049 819.655 587.377 834.136 587.066C847.738 586.81 866.17 584.534 866.354 584.512C866.389 584.508 866.421 584.506 866.454 584.506Z" fill="#141414"/>
<path d="M832.169 569.751C827.566 569.751 820.43 568.84 813.555 564.272C802.424 556.875 800.082 557.145 794.952 559.016C794.54 559.165 794.083 558.954 793.933 558.541C793.782 558.128 793.995 557.672 794.408 557.522C800.528 555.291 803.524 555.697 814.436 562.946C825.072 570.015 836.725 567.813 836.842 567.792C837.272 567.701 837.691 567.985 837.776 568.416C837.862 568.847 837.582 569.265 837.152 569.351C836.96 569.39 835.066 569.751 832.169 569.751Z" fill="#141414"/>
<path d="M830.874 549.634C826.541 549.634 820.978 549.066 816.253 546.757C811.801 544.581 809.509 542.048 807.084 539.366C804.568 536.584 801.966 533.708 796.582 531.059C796.187 530.865 796.025 530.388 796.219 529.994C796.413 529.6 796.889 529.439 797.284 529.632C802.942 532.415 805.648 535.406 808.264 538.299C810.584 540.864 812.775 543.287 816.951 545.327C825.601 549.553 837.724 547.554 837.845 547.533C838.283 547.457 838.689 547.751 838.763 548.183C838.837 548.615 838.546 549.027 838.113 549.1C837.865 549.143 834.9 549.634 830.874 549.634Z" fill="#141414"/>
<path d="M867.171 559.562C867.025 559.562 866.877 559.521 866.745 559.437C866.415 559.227 858.653 554.151 855.259 540.376C855.154 539.95 855.414 539.519 855.841 539.414C856.267 539.304 856.699 539.568 856.804 539.996C860.046 553.157 867.524 558.047 867.598 558.095C867.969 558.331 868.078 558.823 867.842 559.193C867.692 559.432 867.435 559.562 867.171 559.562Z" fill="#141414"/>
<path d="M1004.09 584.288C1004 584.288 1003.91 584.273 1003.82 584.241L968.748 571.562C968.334 571.412 968.12 570.956 968.27 570.544C968.419 570.13 968.874 569.913 969.288 570.066L1004.36 582.745C1004.77 582.894 1004.99 583.35 1004.84 583.763C1004.72 584.087 1004.42 584.288 1004.09 584.288Z" fill="#141414"/>
<path d="M1291.16 1118.85H1202.22C1189.24 1118.85 1177.7 1111.09 1172.81 1099.07L1099.82 919.683C1099.66 919.276 1099.85 918.812 1100.26 918.646C1100.67 918.482 1101.13 918.677 1101.3 919.083L1174.29 1098.47C1178.93 1109.89 1189.89 1117.26 1202.22 1117.26H1291.16C1301.58 1117.26 1311.12 1112 1316.68 1103.18C1322.23 1094.36 1322.86 1083.48 1318.35 1074.09L1244.34 919.728C1244.15 919.331 1244.32 918.856 1244.71 918.667C1245.11 918.476 1245.58 918.643 1245.77 919.04L1319.79 1073.4C1324.53 1083.29 1323.87 1094.74 1318.02 1104.03C1312.18 1113.31 1302.13 1118.85 1291.16 1118.85Z" fill="#141414"/>
<path d="M1064.16 1118.85H975.221C964.247 1118.85 954.205 1113.31 948.357 1104.03C942.51 1094.74 941.851 1083.29 946.595 1073.4L1020.61 919.039C1020.8 918.642 1021.27 918.475 1021.67 918.666C1022.07 918.855 1022.23 919.331 1022.04 919.727L948.03 1074.09C943.524 1083.48 944.15 1094.36 949.704 1103.18C955.258 1112 964.797 1117.26 975.222 1117.26H1064.16C1076.49 1117.26 1087.45 1109.89 1092.09 1098.47L1165.09 919.082C1165.25 918.676 1165.71 918.482 1166.12 918.645C1166.53 918.811 1166.72 919.275 1166.56 919.682L1093.57 1099.07C1088.68 1111.09 1077.14 1118.85 1064.16 1118.85Z" fill="#141414"/>
<path d="M1371.47 674.947L1320.73 876.261C1314.35 901.618 1291.53 919.383 1265.37 919.383H959.231L975.98 874.739H1098.95L1132.52 662.981C1134.81 648.473 1147.32 637.798 1162.01 637.798H1342.52C1361.97 637.798 1376.23 656.083 1371.47 674.947Z" fill="white"/>
<path d="M1265.37 920.178H959.233C958.972 920.178 958.727 920.05 958.579 919.836C958.43 919.621 958.396 919.348 958.487 919.103L975.236 874.459C975.352 874.148 975.65 873.943 975.981 873.943H1098.27L1131.74 662.857C1134.1 647.876 1146.84 637.002 1162.01 637.002H1342.53C1352.05 637.002 1360.86 641.307 1366.71 648.814C1372.56 656.319 1374.57 665.914 1372.25 675.143L1321.5 876.456C1315.02 902.198 1291.94 920.178 1265.37 920.178ZM960.381 918.588H1265.37C1291.21 918.588 1313.66 901.103 1319.96 876.067L1370.7 674.753C1372.91 666.004 1371 656.906 1365.45 649.791C1359.91 642.675 1351.55 638.593 1342.53 638.593H1162.01C1147.62 638.593 1135.55 648.902 1133.31 663.105L1099.73 874.863C1099.67 875.249 1099.34 875.534 1098.95 875.534H976.533L960.381 918.588Z" fill="#141414"/>
<path d="M1371.47 674.947L1320.73 876.261C1314.35 901.618 1291.53 919.383 1265.37 919.383H1056.64L1067.43 875.605H1250.75C1269.95 875.605 1286.64 862.434 1291.1 843.764L1340.29 637.798H1342.53C1361.97 637.798 1376.23 656.083 1371.47 674.947Z" fill="white"/>
<path d="M1265.37 920.178H1056.64C1056.4 920.178 1056.17 920.065 1056.01 919.874C1055.86 919.681 1055.81 919.43 1055.87 919.193L1066.66 875.415C1066.74 875.061 1067.06 874.81 1067.43 874.81H1250.75C1269.66 874.81 1285.93 861.968 1290.32 843.579L1339.52 637.612C1339.6 637.255 1339.92 637.002 1340.29 637.002H1342.53C1352.05 637.002 1360.86 641.307 1366.71 648.813C1372.56 656.318 1374.57 665.914 1372.25 675.141L1321.5 876.455C1315.02 902.198 1291.94 920.178 1265.37 920.178ZM1057.66 918.588H1265.37C1291.21 918.588 1313.66 901.103 1319.95 876.067L1370.7 674.753C1370.7 674.753 1370.7 674.753 1370.7 674.752C1372.91 666.004 1371 656.906 1365.45 649.791C1359.91 642.675 1351.55 638.593 1342.52 638.593H1340.92L1291.87 843.949C1287.31 863.056 1270.39 876.401 1250.74 876.401H1068.05L1057.66 918.588Z" fill="#141414"/>
<path d="M701.798 1104.05C701.798 1107.92 703.359 1111.43 705.903 1113.95C708.428 1116.5 711.917 1118.06 715.79 1118.06H858.029C866.008 1118.06 872.369 1111.41 872.021 1103.45L871.539 1092.45L870.402 1066.84H752.044L743.736 1071.66L708.774 1091.95C704.457 1094.45 701.798 1099.08 701.798 1104.05Z" fill="#141414"/>
<path d="M858.029 1118.85H715.79C711.828 1118.85 708.116 1117.31 705.338 1114.51C702.543 1111.74 701.001 1108.02 701.001 1104.05C701.001 1098.8 703.826 1093.9 708.375 1091.26L751.643 1066.15C751.765 1066.08 751.903 1066.05 752.043 1066.05H870.401C870.827 1066.05 871.177 1066.38 871.196 1066.81L872.815 1103.42C872.993 1107.49 871.539 1111.35 868.721 1114.29C865.904 1117.23 862.106 1118.85 858.029 1118.85ZM752.258 1067.64L709.174 1092.64C705.114 1094.99 702.593 1099.36 702.593 1104.05C702.593 1107.6 703.968 1110.91 706.464 1113.39C708.945 1115.89 712.256 1117.26 715.791 1117.26H858.03C861.669 1117.26 865.059 1115.82 867.574 1113.19C870.089 1110.56 871.386 1107.12 871.228 1103.49L869.643 1067.64H752.258V1067.64Z" fill="#141414"/>
<path d="M701.798 1104.05C701.798 1107.92 703.359 1111.43 705.903 1113.95C708.428 1116.5 711.917 1118.06 715.79 1118.06H858.029C866.008 1118.06 872.369 1111.41 872.021 1103.45L871.539 1092.45H759.966L743.737 1071.66L708.775 1091.95C704.457 1094.45 701.798 1099.08 701.798 1104.05Z" fill="white"/>
<path d="M858.029 1118.85H715.79C711.828 1118.85 708.116 1117.31 705.338 1114.51C702.543 1111.74 701.001 1108.02 701.001 1104.05C701.001 1098.8 703.826 1093.9 708.375 1091.26L743.337 1070.97C743.681 1070.77 744.118 1070.86 744.364 1071.17L760.354 1091.65H871.54C871.966 1091.65 872.316 1091.99 872.335 1092.41L872.817 1103.42C872.994 1107.49 871.541 1111.35 868.723 1114.29C865.904 1117.23 862.106 1118.85 858.029 1118.85ZM743.537 1072.69L709.174 1092.64C705.114 1094.99 702.593 1099.36 702.593 1104.05C702.593 1107.6 703.968 1110.91 706.464 1113.39C708.945 1115.89 712.256 1117.26 715.791 1117.26H858.03C861.669 1117.26 865.059 1115.81 867.574 1113.19C870.089 1110.56 871.386 1107.12 871.228 1103.49L870.779 1093.24H759.966C759.721 1093.24 759.49 1093.13 759.339 1092.94L743.537 1072.69Z" fill="#141414"/>
<path d="M1096.51 229.158C1052.54 225.495 1074.99 301.042 1078.65 325.308C1082.31 349.574 1043.84 380.709 1062.62 416.421C1081.4 452.134 1174.71 423.747 1212.32 416.421C1249.94 409.096 1271.46 426.952 1278.79 404.517C1286.12 382.082 1234.82 353.237 1235.74 325.307C1236.65 297.378 1251.31 244.724 1229.33 215.422C1207.34 186.12 1113.91 174.673 1096.51 229.158Z" fill="white"/>
<path d="M1107.21 434.849C1083.15 434.849 1068.28 428.907 1061.91 416.791C1050.37 394.835 1060.09 374.628 1068.67 356.8C1074.12 345.472 1079.27 334.772 1077.86 325.427C1077.34 321.961 1076.43 317.449 1075.38 312.222C1070.43 287.624 1062.96 250.449 1076.67 235.067C1081.16 230.03 1087.64 227.761 1095.95 228.318C1102.45 208.774 1119.73 195.71 1144.67 191.501C1177.25 186.006 1216.31 196.741 1229.96 214.946C1246.86 237.467 1242.43 273.067 1238.87 301.672C1237.78 310.41 1236.75 318.663 1236.53 325.335C1236.09 338.771 1248.1 352.524 1259.72 365.824C1271.9 379.771 1283.4 392.945 1279.54 404.765C1275 418.683 1265.16 417.761 1250.27 416.366C1240.19 415.422 1227.65 414.247 1212.47 417.202C1206.82 418.304 1200.03 419.854 1192.16 421.65C1169.76 426.761 1141.89 433.12 1116.94 434.557C1113.55 434.751 1110.3 434.849 1107.21 434.849ZM1093.55 229.827C1086.86 229.827 1081.58 231.939 1077.85 236.126C1064.68 250.914 1072.35 289.097 1076.94 311.91C1078 317.156 1078.91 321.685 1079.44 325.19C1080.92 335.019 1075.67 345.934 1070.11 357.49C1061.69 374.979 1052.15 394.803 1063.32 416.052C1078.99 445.843 1149.61 429.727 1191.8 420.099C1199.68 418.3 1206.49 416.747 1212.17 415.641C1227.57 412.64 1240.24 413.828 1250.42 414.782C1265.05 416.156 1273.88 416.981 1278.03 404.271C1281.61 393.31 1270.4 380.467 1258.52 366.871C1246.7 353.338 1234.48 339.345 1234.94 325.283C1235.16 318.539 1236.2 310.251 1237.29 301.476C1240.81 273.155 1245.2 237.908 1228.69 215.9C1222.47 207.612 1209.9 200.352 1194.19 195.982C1178 191.478 1160.5 190.444 1144.94 193.07C1120.36 197.218 1103.43 210.12 1097.27 229.4C1097.16 229.753 1096.81 229.994 1096.45 229.95C1095.45 229.868 1094.49 229.827 1093.55 229.827Z" fill="#141414"/>
<path d="M1192.54 371.718L1267.71 395.895C1290.01 403.068 1307.74 420.146 1315.74 442.158L1345.65 524.476L1269.1 552.863L1283.37 684.726H1042.47C1042.47 684.726 1052.08 624.289 1045.21 600.481C1038.34 576.672 1033.31 545.996 1033.31 545.996L993.92 520.356L1025 445.322C1032.67 426.812 1047.35 412.092 1065.85 404.378L1128.09 378.42L1192.54 371.718Z" fill="#141414"/>
<path d="M1283.37 685.522H1042.47C1042.24 685.522 1042.01 685.42 1041.86 685.242C1041.71 685.065 1041.64 684.831 1041.68 684.601C1041.78 683.998 1051.19 624.067 1044.45 600.701C1038.04 578.475 1033.16 549.936 1032.58 546.47L993.487 521.021C993.166 520.812 993.04 520.405 993.186 520.05L1024.27 445.017C1032.07 426.184 1046.72 411.491 1065.54 403.643L1127.78 377.685C1127.85 377.655 1127.93 377.635 1128.01 377.627L1192.46 370.925C1192.56 370.914 1192.68 370.926 1192.78 370.959L1267.95 395.136C1290.66 402.438 1308.35 419.476 1316.49 441.883L1346.4 524.203C1346.55 524.614 1346.34 525.068 1345.93 525.22L1269.96 553.391L1284.16 684.638C1284.18 684.862 1284.11 685.087 1283.96 685.254C1283.81 685.425 1283.59 685.522 1283.37 685.522ZM1043.4 683.931H1282.48L1268.31 552.949C1268.27 552.587 1268.48 552.244 1268.82 552.118L1344.64 524.006L1314.99 442.43C1307.02 420.488 1289.7 403.803 1267.47 396.653L1192.45 372.526L1128.29 379.2L1066.16 405.113C1047.73 412.797 1033.38 427.185 1025.74 445.627L994.909 520.049L1033.74 545.329C1033.93 545.451 1034.06 545.646 1034.09 545.867C1034.14 546.174 1039.2 576.77 1045.98 600.26C1048.86 610.228 1049.27 627.501 1047.21 651.6C1045.89 666.99 1043.93 680.377 1043.4 683.931Z" fill="#141414"/>
<path d="M1193.48 383.682C1193.48 383.682 1169.45 446.863 1141.44 443.78C1113.46 440.697 1127.53 386.785 1127.53 386.785C1127.53 386.785 1127.49 386.323 1127.43 385.494C1127.14 382.065 1126.18 372.526 1124.1 365.995L1192.29 330.965L1192.54 342.333L1193.48 383.682Z" fill="white"/>
<path d="M1143.48 444.687C1142.77 444.687 1142.06 444.649 1141.36 444.571C1135.88 443.967 1131.56 441.427 1128.53 437.024C1124.02 430.47 1122.35 419.973 1123.58 405.824C1124.43 396.066 1126.44 387.851 1126.72 386.716C1126.71 386.522 1126.68 386.122 1126.64 385.548C1126.4 382.698 1125.45 372.845 1123.34 366.236C1123.22 365.865 1123.39 365.464 1123.74 365.287L1191.92 330.257C1192.17 330.133 1192.46 330.141 1192.7 330.281C1192.93 330.422 1193.08 330.673 1193.08 330.947L1194.28 383.664C1194.28 383.767 1194.26 383.868 1194.23 383.965C1194.17 384.123 1188.08 400.007 1178.64 415.304C1166.6 434.817 1154.78 444.687 1143.48 444.687ZM1125.05 366.397C1127.07 373.141 1127.99 382.614 1128.23 385.427C1128.28 386.258 1128.32 386.715 1128.32 386.718C1128.33 386.808 1128.32 386.899 1128.3 386.985C1128.21 387.326 1119.54 421.176 1129.84 436.124C1132.6 440.13 1136.53 442.439 1141.53 442.99C1167.97 445.907 1191.38 386.894 1192.68 383.543L1191.52 332.254L1125.05 366.397Z" fill="#141414"/>
<path d="M1192.54 342.333C1185.33 361.139 1165.81 385.821 1127.43 385.494C1127.14 382.065 1126.18 372.526 1124.1 365.995L1192.29 330.965L1192.54 342.333Z" fill="#141414"/>
<path d="M1093.08 252.967C1089.87 263.269 1093.08 272.426 1093.08 284.101C1093.08 295.776 1086.66 364.455 1130.86 371.094C1175.05 377.732 1200.7 329.429 1205.51 318.898C1217.42 327.597 1229.1 314.777 1225.89 301.27C1222.69 287.763 1210.09 293.029 1206.43 296.462C1202.76 299.896 1200.24 305.161 1200.24 305.161L1198.64 281.81C1198.64 281.81 1157.42 287.076 1136.13 279.75C1114.83 272.424 1111.85 252.281 1093.08 252.967Z" fill="white"/>
<path d="M1139.12 372.516C1136.4 372.516 1133.61 372.312 1130.74 371.881C1089.61 365.702 1091.54 307.392 1092.18 288.231C1092.23 286.473 1092.28 285.083 1092.28 284.101C1092.28 280.094 1091.9 276.383 1091.53 272.795C1090.83 266.018 1090.17 259.617 1092.32 252.73C1092.42 252.408 1092.71 252.183 1093.05 252.172C1103.53 251.803 1109.39 257.819 1115.6 264.204C1120.83 269.587 1126.76 275.687 1136.38 279C1157.26 286.179 1198.13 281.075 1198.54 281.023C1198.76 280.998 1198.98 281.058 1199.15 281.198C1199.32 281.337 1199.42 281.54 1199.43 281.758L1200.85 302.389C1201.97 300.514 1203.72 297.909 1205.88 295.883C1208.44 293.489 1214.53 290.643 1219.5 292.142C1223.1 293.224 1225.51 296.235 1226.67 301.087C1228.48 308.717 1225.75 316.696 1220.04 320.49C1215.72 323.357 1210.59 323.199 1205.83 320.088C1201.78 328.625 1179 372.516 1139.12 372.516ZM1093.67 253.747C1091.82 260.123 1092.45 266.204 1093.11 272.632C1093.48 276.261 1093.87 280.012 1093.87 284.101C1093.87 285.11 1093.82 286.51 1093.77 288.284C1093.14 307.095 1091.25 364.341 1130.98 370.308C1133.76 370.726 1136.47 370.923 1139.1 370.923C1179.64 370.925 1202.21 324.218 1204.79 318.568C1204.89 318.351 1205.08 318.189 1205.31 318.129C1205.54 318.07 1205.79 318.115 1205.98 318.256C1210.38 321.471 1215.19 321.803 1219.16 319.166C1224.33 315.733 1226.78 308.449 1225.12 301.454C1224.1 297.194 1222.06 294.573 1219.04 293.665C1214.67 292.349 1209.25 294.904 1206.97 297.043C1203.46 300.331 1200.99 305.454 1200.96 305.506C1200.8 305.831 1200.45 306.008 1200.09 305.944C1199.74 305.876 1199.47 305.577 1199.45 305.217L1197.9 282.701C1195.18 283.018 1186.15 283.991 1175.39 284.324C1158.09 284.858 1144.79 283.573 1135.87 280.503C1125.88 277.068 1119.81 270.822 1114.45 265.312C1108.36 259.047 1103.07 253.586 1093.67 253.747Z" fill="#141414"/>
<path d="M1132.56 338.806C1132.89 344.274 1137.49 348.451 1142.92 348.319C1143.04 348.329 1143.17 348.321 1143.29 348.314C1147.23 348.076 1150.54 345.613 1151.99 342.211C1152.62 340.801 1152.92 339.234 1152.82 337.582L1132.56 338.806Z" fill="#141414"/>
<path d="M1142.85 347.717C1142.86 347.93 1142.89 348.124 1142.92 348.319C1143.04 348.329 1143.17 348.321 1143.29 348.314C1147.23 348.076 1150.54 345.613 1151.99 342.211C1150.98 341.577 1149.76 341.259 1148.48 341.336C1145.16 341.537 1142.65 344.398 1142.85 347.717Z" fill="white"/>
<path d="M1143.04 349.119C1142.99 349.119 1142.95 349.117 1142.9 349.115C1142.82 349.116 1142.74 349.117 1142.66 349.117C1136.88 349.117 1132.11 344.659 1131.76 338.855C1131.75 338.644 1131.82 338.437 1131.96 338.279C1132.1 338.121 1132.3 338.025 1132.51 338.013L1152.77 336.789C1153.22 336.757 1153.59 337.096 1153.61 337.535C1153.72 339.284 1153.42 340.967 1152.72 342.534C1151.1 346.333 1147.5 348.856 1143.34 349.108C1143.24 349.113 1143.14 349.119 1143.04 349.119ZM1142.92 347.523C1142.94 347.523 1142.96 347.524 1142.98 347.526C1143.07 347.534 1143.16 347.525 1143.24 347.519C1146.75 347.308 1149.9 345.101 1151.26 341.899C1151.75 340.796 1152.01 339.633 1152.04 338.426L1133.43 339.551C1134.11 344.194 1138.13 347.674 1142.9 347.523H1142.92Z" fill="#141414"/>
<path d="M1213.41 312.196C1213.17 312.196 1212.93 312.088 1212.78 311.882C1210.52 308.917 1211.6 304.409 1213.97 302.219C1215.5 300.797 1217.3 300.665 1218.66 301.878C1218.99 302.17 1219.02 302.673 1218.73 303.001C1218.44 303.327 1217.93 303.357 1217.6 303.065C1216.68 302.236 1215.7 302.783 1215.05 303.385C1213.4 304.911 1212.22 308.515 1214.04 310.919C1214.31 311.269 1214.24 311.767 1213.89 312.033C1213.75 312.144 1213.58 312.196 1213.41 312.196Z" fill="#141414"/>
<path d="M1131.55 326.104C1131.4 326.104 1131.25 326.063 1131.11 325.976L1127.08 323.365C1124.37 321.606 1123.18 318.231 1124.2 315.16L1129.88 298.046C1130.01 297.629 1130.46 297.404 1130.88 297.541C1131.3 297.679 1131.52 298.129 1131.39 298.546L1125.71 315.66C1124.92 318.045 1125.84 320.665 1127.95 322.031L1131.98 324.642C1132.35 324.881 1132.45 325.373 1132.21 325.742C1132.06 325.975 1131.81 326.104 1131.55 326.104Z" fill="#141414"/>
<path d="M1157.68 306.624C1157.68 308.788 1155.92 310.542 1153.76 310.542C1151.59 310.542 1149.84 308.788 1149.84 306.624C1149.84 304.46 1151.59 302.705 1153.76 302.705C1155.92 302.706 1157.68 304.46 1157.68 306.624Z" fill="#141414"/>
<path d="M1114.4 306.624C1114.4 308.788 1112.64 310.542 1110.48 310.542C1108.31 310.542 1106.56 308.788 1106.56 306.624C1106.56 304.46 1108.31 302.705 1110.48 302.705C1112.64 302.706 1114.4 304.46 1114.4 306.624Z" fill="#141414"/>
<path d="M1167.5 293.367C1167.35 293.367 1167.2 293.325 1167.06 293.239C1156.64 286.509 1147.46 291.876 1147.07 292.108C1146.69 292.334 1146.2 292.213 1145.98 291.836C1145.75 291.46 1145.87 290.973 1146.25 290.746C1146.35 290.684 1156.65 284.62 1167.93 291.903C1168.3 292.142 1168.4 292.634 1168.16 293.003C1168.01 293.239 1167.76 293.367 1167.5 293.367Z" fill="#141414"/>
<path d="M1119.24 292.964C1119.1 292.964 1118.96 292.928 1118.83 292.853C1108.16 286.53 1099.19 292.247 1098.81 292.493C1098.44 292.734 1097.95 292.632 1097.71 292.265C1097.47 291.898 1097.57 291.406 1097.93 291.164C1098.03 291.098 1108.09 284.643 1119.65 291.484C1120.02 291.708 1120.15 292.196 1119.92 292.574C1119.78 292.825 1119.51 292.964 1119.24 292.964Z" fill="#141414"/>
<path d="M1154.79 328.793C1144.72 328.793 1136.53 320.605 1136.53 310.542C1136.53 300.479 1144.72 292.291 1154.79 292.291C1164.86 292.291 1173.04 300.479 1173.04 310.542C1173.04 320.605 1164.86 328.793 1154.79 328.793ZM1154.79 293.882C1145.6 293.882 1138.12 301.355 1138.12 310.542C1138.12 319.729 1145.6 327.203 1154.79 327.203C1163.98 327.203 1171.45 319.729 1171.45 310.542C1171.45 301.355 1163.98 293.882 1154.79 293.882Z" fill="#141414"/>
<path d="M1105.6 328.793C1095.54 328.793 1087.35 320.605 1087.35 310.542C1087.35 300.479 1095.54 292.291 1105.6 292.291C1115.67 292.291 1123.86 300.479 1123.86 310.542C1123.86 320.605 1115.67 328.793 1105.6 328.793ZM1105.6 293.882C1096.41 293.882 1088.94 301.355 1088.94 310.542C1088.94 319.729 1096.41 327.203 1105.6 327.203C1114.79 327.203 1122.27 319.729 1122.27 310.542C1122.27 301.355 1114.79 293.882 1105.6 293.882Z" fill="#141414"/>
<path d="M1138.4 305.331H1121.99C1121.55 305.331 1121.2 304.975 1121.2 304.536C1121.2 304.096 1121.55 303.74 1121.99 303.74H1138.4C1138.84 303.74 1139.19 304.096 1139.19 304.536C1139.19 304.975 1138.84 305.331 1138.4 305.331Z" fill="#141414"/>
<path d="M1201.56 302.643H1169.93C1169.49 302.643 1169.13 302.288 1169.13 301.848C1169.13 301.408 1169.49 301.053 1169.93 301.053H1201.56C1202 301.053 1202.36 301.408 1202.36 301.848C1202.36 302.288 1202 302.643 1201.56 302.643Z" fill="#141414"/>
<path d="M1265.94 545.981C1265.62 545.981 1265.33 545.796 1265.2 545.489L1243.25 492.157C1243.08 491.751 1243.27 491.285 1243.68 491.118C1244.09 490.951 1244.55 491.145 1244.72 491.551L1266.67 544.883C1266.84 545.289 1266.64 545.755 1266.24 545.922C1266.14 545.961 1266.04 545.981 1265.94 545.981Z" fill="white"/>
<path d="M1269.1 552.863L1283.48 601.74L1164.98 631.271C1164.98 631.271 1137.5 623.144 1110.02 627.951C1082.54 632.758 1073.3 652.093 1072.01 659.086C1070.86 665.267 1074.3 668.243 1077.96 668.929C1081.63 669.616 1085.17 664.58 1085.17 664.58C1085.17 664.58 1081.51 672.339 1090.67 674.755C1099.83 677.171 1103.84 668.586 1103.84 668.586C1103.84 668.586 1099.95 676.827 1107.85 679.46C1115.74 682.092 1140.02 662.977 1148.03 661.145C1156.05 659.314 1172.19 665.839 1182.15 665.724C1189.33 665.642 1258.99 669.357 1297.45 671.443C1313.7 672.325 1329.72 667.28 1342.53 657.244C1364.82 639.8 1373.79 610.271 1364.97 583.385L1345.65 524.475L1269.1 552.863Z" fill="white"/>
<path d="M1109.57 680.504C1108.84 680.504 1108.18 680.412 1107.59 680.215C1105.16 679.404 1103.51 678.011 1102.68 676.07C1102.14 674.813 1102.02 673.494 1102.1 672.304C1099.87 674.609 1096.06 676.998 1090.47 675.526C1087.37 674.709 1085.3 673.212 1084.3 671.077C1083.72 669.824 1083.6 668.539 1083.68 667.426C1082.18 668.782 1080.05 670.139 1077.82 669.712C1073.99 668.995 1069.97 665.743 1071.23 658.942C1072.56 651.753 1082.1 632.03 1109.88 627.169C1135.97 622.608 1162.37 629.711 1164.99 630.449L1282.49 601.169L1268.33 553.088C1268.22 552.687 1268.43 552.264 1268.82 552.118L1345.38 523.732C1345.58 523.656 1345.8 523.667 1346 523.761C1346.19 523.855 1346.34 524.024 1346.41 524.23L1365.73 583.139C1374.62 610.25 1365.49 640.283 1343.03 657.873C1330.05 668.03 1313.85 673.146 1297.4 672.239C1257.41 670.068 1189.24 666.471 1182.16 666.521C1177.66 666.555 1171.84 665.279 1166.24 664.026C1159.48 662.512 1152.48 660.946 1148.21 661.922C1145.23 662.604 1139.62 665.945 1133.69 669.481C1124.58 674.911 1115.19 680.504 1109.57 680.504ZM1104.56 668.925C1104.54 668.961 1102.89 672.541 1104.14 675.452C1104.79 676.952 1106.12 678.047 1108.1 678.707C1112.59 680.202 1123.83 673.501 1132.87 668.116C1139.18 664.356 1144.63 661.11 1147.86 660.372C1152.47 659.316 1159.33 660.851 1166.59 662.475C1172.1 663.707 1177.8 664.955 1182.14 664.931C1182.22 664.931 1182.31 664.93 1182.4 664.93C1190.79 664.93 1257.92 668.505 1297.49 670.652C1313.55 671.514 1329.38 666.541 1342.05 656.621C1363.99 639.442 1372.9 610.111 1364.22 583.635L1345.16 525.51L1270.07 553.352L1284.25 601.516C1284.31 601.725 1284.28 601.948 1284.17 602.136C1284.06 602.323 1283.89 602.459 1283.67 602.513L1165.17 632.044C1165.03 632.078 1164.89 632.075 1164.75 632.035C1164.48 631.954 1137.13 624.015 1110.16 628.736C1083.27 633.441 1074.07 652.345 1072.79 659.232C1071.48 666.334 1076.53 667.853 1078.11 668.15C1081.22 668.731 1084.49 664.169 1084.53 664.123C1084.76 663.787 1085.22 663.687 1085.58 663.896C1085.93 664.104 1086.07 664.549 1085.89 664.922C1085.88 664.949 1084.55 667.861 1085.75 670.417C1086.54 672.097 1088.26 673.299 1090.87 673.989C1099.24 676.192 1102.92 668.663 1103.11 668.257C1103.12 668.253 1103.12 668.25 1103.12 668.248C1103.31 667.851 1103.78 667.681 1104.17 667.867C1104.57 668.053 1104.74 668.525 1104.56 668.923C1104.56 668.924 1104.56 668.925 1104.56 668.925Z" fill="#141414"/>
<path d="M1283.48 602.535C1283.14 602.535 1282.82 602.313 1282.72 601.969C1282.59 601.548 1282.83 601.104 1283.25 600.978L1313.37 591.936C1313.79 591.811 1314.23 592.048 1314.36 592.468C1314.48 592.889 1314.25 593.333 1313.82 593.459L1283.71 602.502C1283.63 602.524 1283.56 602.535 1283.48 602.535Z" fill="#141414"/>
<path d="M1103.84 669.382C1103.66 669.382 1103.49 669.326 1103.34 669.211C1103 668.939 1102.94 668.439 1103.21 668.094C1113.51 655.048 1128.19 645.697 1138.3 645.697C1138.42 645.697 1138.54 645.698 1138.66 645.701C1139.1 645.711 1139.45 646.075 1139.44 646.514C1139.43 646.953 1139.05 647.296 1138.63 647.292C1138.52 647.289 1138.4 647.288 1138.29 647.288C1128.63 647.288 1114.48 656.387 1104.46 669.079C1104.31 669.278 1104.07 669.382 1103.84 669.382Z" fill="#141414"/>
<path d="M1085.17 665.377C1085.03 665.377 1084.88 665.338 1084.75 665.257C1084.38 665.024 1084.27 664.534 1084.5 664.161C1094.14 648.696 1109.24 637.724 1121.22 637.478C1121.65 637.495 1122.03 637.818 1122.04 638.257C1122.05 638.695 1121.7 639.059 1121.26 639.069C1109.78 639.303 1095.22 649.968 1085.85 665.002C1085.7 665.244 1085.44 665.377 1085.17 665.377Z" fill="#141414"/>
<path d="M1034.34 536.641C1034.29 536.641 1034.24 536.636 1034.18 536.625C1033.75 536.54 1033.47 536.12 1033.56 535.69C1035.86 524.147 1041.6 513.866 1046.21 505.606C1049.62 499.501 1052.56 494.229 1053.13 490.252C1053.19 489.817 1053.59 489.509 1054.03 489.577C1054.46 489.639 1054.76 490.042 1054.7 490.477C1054.09 494.746 1051.08 500.137 1047.6 506.381C1043.04 514.544 1037.37 524.703 1035.12 536C1035.04 536.379 1034.71 536.641 1034.34 536.641Z" fill="white"/>
<path d="M1283.37 684.726H1125.82H1042.47V700.293L930.97 721.25C895.735 727.873 866.339 752.055 853.054 785.346L742.659 1066.84H870.403L945.39 895.974L1014.01 1066.84H1132.37L1071.78 875.603H1178.77C1236.59 875.603 1283.45 828.724 1283.42 770.917L1283.37 684.726Z" fill="white"/>
<path d="M1132.37 1067.64H1014.01C1013.69 1067.64 1013.39 1067.44 1013.27 1067.14L945.357 898.028L871.132 1067.16C871.005 1067.45 870.719 1067.64 870.403 1067.64H742.659C742.396 1067.64 742.15 1067.51 742.002 1067.29C741.854 1067.07 741.822 1066.8 741.918 1066.55L852.313 785.055C865.774 751.32 895.123 727.178 930.823 720.469L1041.67 699.633V684.726C1041.67 684.286 1042.03 683.931 1042.47 683.931H1283.37C1283.81 683.931 1284.16 684.287 1284.16 684.726L1284.22 770.917C1284.23 799.088 1273.27 825.576 1253.35 845.501C1233.43 865.426 1206.95 876.399 1178.77 876.399H1072.87L1133.13 1066.6C1133.21 1066.84 1133.16 1067.11 1133.01 1067.31C1132.86 1067.52 1132.62 1067.64 1132.37 1067.64ZM1014.55 1066.05H1131.28L1071.02 875.844C1070.95 875.602 1070.99 875.338 1071.14 875.134C1071.29 874.93 1071.53 874.809 1071.78 874.809H1178.77C1206.52 874.809 1232.61 864.001 1252.23 844.376C1271.84 824.751 1282.64 798.663 1282.62 770.919L1282.57 685.522H1043.26V700.293C1043.26 700.676 1042.99 701.004 1042.61 701.074L931.115 722.032C895.954 728.641 867.048 752.42 853.791 785.641L743.824 1066.05H869.881L944.659 895.655C944.787 895.362 945.1 895.179 945.4 895.179C945.72 895.184 946.006 895.381 946.126 895.677L1014.55 1066.05Z" fill="#141414"/>
<path d="M945.389 896.769C945.074 896.769 944.775 896.581 944.65 896.271L931.838 864.368C923.713 836.549 928.652 807.111 945.363 783.527C962.076 759.943 988.217 745.52 1017.08 743.957L1127.84 737.959C1128.27 737.925 1128.65 738.272 1128.68 738.71C1128.7 739.149 1128.36 739.523 1127.92 739.547L1017.17 745.545C988.792 747.082 963.091 761.261 946.662 784.446C930.233 807.632 925.377 836.572 933.341 863.848L946.128 895.677C946.292 896.085 946.094 896.549 945.685 896.712C945.588 896.751 945.488 896.769 945.389 896.769Z" fill="#141414"/>
<path d="M963.766 1104.05C963.766 1107.92 965.327 1111.43 967.871 1113.95C970.396 1116.5 973.884 1118.06 977.758 1118.06H1120C1127.98 1118.06 1134.34 1111.41 1133.99 1103.45L1133.51 1092.45L1132.37 1066.84H1014.01L1005.7 1071.66L970.742 1091.95C966.425 1094.45 963.766 1099.08 963.766 1104.05Z" fill="#141414"/>
<path d="M1120 1118.85H977.758C973.796 1118.85 970.084 1117.31 967.305 1114.51C964.511 1111.74 962.97 1108.02 962.97 1104.05C962.97 1098.8 965.795 1093.9 970.343 1091.26L1013.61 1066.15C1013.73 1066.08 1013.87 1066.05 1014.01 1066.05H1132.37C1132.8 1066.05 1133.15 1066.38 1133.16 1066.81L1134.78 1103.42C1134.96 1107.49 1133.51 1111.35 1130.69 1114.29C1127.87 1117.23 1124.07 1118.85 1120 1118.85ZM1014.22 1067.64L971.142 1092.64C967.082 1094.99 964.561 1099.36 964.561 1104.05C964.561 1107.6 965.936 1110.91 968.431 1113.39C970.913 1115.89 974.223 1117.26 977.758 1117.26H1120C1123.64 1117.26 1127.03 1115.82 1129.54 1113.19C1132.06 1110.56 1133.35 1107.12 1133.2 1103.49L1131.61 1067.64H1014.22V1067.64Z" fill="#141414"/>
<path d="M963.766 1104.05C963.766 1107.92 965.327 1111.43 967.871 1113.95C970.396 1116.5 973.884 1118.06 977.758 1118.06H1120C1127.98 1118.06 1134.34 1111.41 1133.99 1103.45L1133.51 1092.45H1021.93L1005.7 1071.66L970.742 1091.95C966.425 1094.45 963.766 1099.08 963.766 1104.05Z" fill="white"/>
<path d="M1120 1118.85H977.758C973.796 1118.85 970.084 1117.31 967.305 1114.51C964.511 1111.74 962.97 1108.02 962.97 1104.05C962.97 1098.8 965.795 1093.9 970.343 1091.26L1005.31 1070.97C1005.65 1070.77 1006.09 1070.86 1006.33 1071.17L1022.32 1091.65H1133.51C1133.93 1091.65 1134.28 1091.99 1134.3 1092.41L1134.78 1103.42C1134.96 1107.49 1133.51 1111.35 1130.69 1114.29C1127.87 1117.23 1124.07 1118.85 1120 1118.85ZM1005.5 1072.69L971.142 1092.64C967.082 1094.99 964.561 1099.36 964.561 1104.05C964.561 1107.6 965.936 1110.91 968.431 1113.39C970.913 1115.89 974.223 1117.26 977.758 1117.26H1120C1123.64 1117.26 1127.03 1115.81 1129.54 1113.19C1132.06 1110.56 1133.35 1107.12 1133.2 1103.49L1132.75 1093.24H1021.93C1021.69 1093.24 1021.46 1093.13 1021.31 1092.94L1005.5 1072.69Z" fill="#141414"/>
<path d="M731.393 681.75H758.288V1118.06H731.393V681.75Z" fill="white"/>
<path d="M758.288 1118.85H731.393C730.954 1118.85 730.598 1118.5 730.598 1118.06V681.751C730.598 681.311 730.954 680.956 731.393 680.956H758.288C758.727 680.956 759.083 681.311 759.083 681.751V1118.06C759.083 1118.5 758.727 1118.85 758.288 1118.85ZM732.189 1117.26H757.492V682.546H732.189V1117.26Z" fill="#141414"/>
<path d="M777.959 700.293H711.721C709.686 700.293 708.036 698.644 708.036 696.609V666.892C708.036 664.856 709.686 663.207 711.721 663.207H777.959C779.995 663.207 781.645 664.856 781.645 666.892V696.609C781.644 698.644 779.994 700.293 777.959 700.293Z" fill="#141414"/>
<path d="M777.959 1099.51H711.721C709.686 1099.51 708.036 1097.86 708.036 1095.83V1066.11C708.036 1064.08 709.686 1062.43 711.721 1062.43H777.959C779.995 1062.43 781.645 1064.08 781.645 1066.11V1095.83C781.644 1097.86 779.994 1099.51 777.959 1099.51Z" fill="#141414"/>
<path d="M811.972 1118.06H677.707C674.855 1118.06 672.541 1115.74 672.541 1112.89V1086.13C672.541 1083.28 674.854 1080.97 677.707 1080.97H811.972C814.825 1080.97 817.139 1083.28 817.139 1086.13V1112.89C817.139 1115.74 814.826 1118.06 811.972 1118.06Z" fill="white"/>
<path d="M811.973 1118.85H677.708C674.42 1118.85 671.746 1116.18 671.746 1112.89V1086.14C671.746 1082.85 674.42 1080.18 677.708 1080.18H811.973C815.26 1080.18 817.935 1082.85 817.935 1086.14V1112.89C817.935 1116.18 815.26 1118.85 811.973 1118.85ZM677.708 1081.77C675.298 1081.77 673.337 1083.73 673.337 1086.14V1112.89C673.337 1115.3 675.297 1117.26 677.708 1117.26H811.973C814.382 1117.26 816.343 1115.3 816.343 1112.89V1086.14C816.343 1083.73 814.383 1081.77 811.973 1081.77H677.708Z" fill="#141414"/>
<path d="M1067.43 681.75H422.253C414.82 681.75 408.794 675.726 408.794 668.295C408.794 660.863 414.82 654.839 422.253 654.839H1067.43C1074.86 654.839 1080.89 660.863 1080.89 668.295C1080.89 675.726 1074.86 681.75 1067.43 681.75Z" fill="white"/>
<path d="M1067.43 682.546H422.253C414.393 682.546 407.998 676.153 407.998 668.295C407.998 660.437 414.393 654.044 422.253 654.044H1067.43C1075.29 654.044 1081.68 660.437 1081.68 668.295C1081.68 676.153 1075.29 682.546 1067.43 682.546ZM422.253 655.635C415.27 655.635 409.589 661.314 409.589 668.295C409.589 675.275 415.27 680.956 422.253 680.956H1067.43C1074.41 680.956 1080.09 675.275 1080.09 668.295C1080.09 661.314 1074.41 655.635 1067.43 655.635H422.253Z" fill="#141414"/>
<path d="M510.278 555.491L550.596 650.001C551.855 652.938 554.744 654.839 557.953 654.839H693.524C699.252 654.839 703.128 648.989 700.881 643.731L660.563 549.221C659.304 546.283 656.415 544.383 653.206 544.383H517.635C511.907 544.384 508.031 550.234 510.278 555.491ZM525.487 549.321H648.959C651.873 549.321 654.49 551.048 655.65 553.739L692.363 639.783C694.412 644.595 690.882 649.903 685.673 649.903H562.2C559.287 649.903 556.669 648.174 555.509 645.485L518.796 559.44C516.747 554.652 520.277 549.321 525.487 549.321Z" fill="#141414"/>
<path d="M518.796 559.44L555.509 645.485C556.67 648.174 559.287 649.903 562.2 649.903H685.672C690.882 649.903 694.412 644.595 692.363 639.783L655.65 553.739C654.489 551.048 651.873 549.321 648.959 549.321H525.487C520.277 549.321 516.747 554.652 518.796 559.44Z" fill="white"/>
<path d="M685.672 650.698H562.2C558.975 650.698 556.062 648.776 554.778 645.8L518.063 559.753V559.754C516.997 557.261 517.253 554.421 518.75 552.154C520.249 549.882 522.767 548.526 525.486 548.526H648.959C652.184 548.526 655.098 550.449 656.381 553.425L693.095 639.47C694.16 641.972 693.903 644.817 692.407 647.08C690.91 649.345 688.392 650.698 685.672 650.698ZM525.487 550.116C523.304 550.116 521.283 551.205 520.079 553.03C518.879 554.848 518.672 557.129 519.528 559.127V559.128L556.241 645.173C557.271 647.562 559.611 649.107 562.2 649.107H685.672C687.856 649.107 689.878 648.022 691.08 646.204C692.299 644.361 692.499 642.135 691.631 640.095L654.918 554.051C653.888 551.662 651.548 550.116 648.959 550.116H525.487Z" fill="#141414"/>
<path d="M518.796 559.44L555.509 645.485C556.67 648.174 559.287 649.903 562.2 649.903H685.672C690.882 649.903 694.412 644.595 692.363 639.783L655.65 553.739C654.489 551.048 651.873 549.321 648.959 549.321H525.487C520.277 549.321 516.747 554.652 518.796 559.44Z" fill="white"/>
<path d="M685.672 650.698H562.2C558.975 650.698 556.062 648.776 554.778 645.8L518.063 559.753V559.754C516.997 557.261 517.253 554.421 518.75 552.154C520.249 549.882 522.767 548.526 525.486 548.526H648.959C652.184 548.526 655.098 550.449 656.381 553.425L693.095 639.47C694.16 641.972 693.903 644.817 692.407 647.08C690.91 649.345 688.392 650.698 685.672 650.698ZM525.487 550.116C523.304 550.116 521.283 551.205 520.079 553.03C518.879 554.848 518.672 557.129 519.528 559.127V559.128L556.241 645.173C557.271 647.562 559.611 649.107 562.2 649.107H685.672C687.856 649.107 689.878 648.022 691.08 646.204C692.299 644.361 692.499 642.135 691.631 640.095L654.918 554.051C653.888 551.662 651.548 550.116 648.959 550.116H525.487Z" fill="#141414"/>
<path d="M559.163 639.617H746.343C750.547 639.617 753.956 643.025 753.956 647.229C753.956 651.432 750.547 654.84 746.343 654.84H559.163C554.958 654.84 551.549 651.433 551.549 647.229C551.55 643.025 554.958 639.617 559.163 639.617Z" fill="#141414"/>
<path d="M566.412 647.229C566.412 648.316 567.293 649.197 568.38 649.197C569.467 649.197 570.348 648.316 570.348 647.229C570.348 646.142 569.467 645.261 568.38 645.261C567.293 645.26 566.412 646.142 566.412 647.229Z" fill="white"/>
<path d="M583.572 647.229C583.572 648.316 584.453 649.197 585.54 649.197C586.628 649.197 587.509 648.316 587.509 647.229C587.509 646.142 586.628 645.261 585.54 645.261C584.453 645.26 583.572 646.142 583.572 647.229Z" fill="white"/>
<path d="M600.733 647.229C600.733 648.316 601.614 649.197 602.702 649.197C603.789 649.197 604.67 648.316 604.67 647.229C604.67 646.142 603.789 645.261 602.702 645.261C601.614 645.26 600.733 646.142 600.733 647.229Z" fill="white"/>
<path d="M617.893 647.229C617.893 648.316 618.775 649.197 619.861 649.197C620.948 649.197 621.829 648.316 621.829 647.229C621.829 646.142 620.948 645.261 619.861 645.261C618.775 645.26 617.893 646.142 617.893 647.229Z" fill="white"/>
<path d="M651.491 648.441H636.378V646.016H651.491V648.441Z" fill="white"/>
<path d="M444.016 1066.84L494.262 852.073H361.214L325.658 1066.84H444.016Z" fill="#141414"/>
<path d="M444.016 1067.64H325.658C325.424 1067.64 325.202 1067.53 325.051 1067.36C324.9 1067.18 324.834 1066.94 324.873 1066.71L360.429 851.943C360.493 851.559 360.825 851.277 361.214 851.277H494.262C494.505 851.277 494.735 851.388 494.886 851.578C495.036 851.769 495.093 852.018 495.037 852.254L444.791 1067.02C444.707 1067.38 444.386 1067.64 444.016 1067.64ZM326.596 1066.05H443.386L493.259 852.868H361.889L326.596 1066.05Z" fill="#141414"/>
<path d="M404.476 1051.12C404.428 1051.12 404.38 1051.12 404.331 1051.11C403.899 1051.03 403.613 1050.61 403.692 1050.18L439.434 856.735C439.513 856.304 439.927 856.016 440.36 856.098C440.792 856.178 441.078 856.592 440.998 857.024L405.257 1050.47C405.187 1050.85 404.852 1051.12 404.476 1051.12Z" fill="white"/>
<path d="M696.688 1104.05C696.688 1107.92 695.127 1111.43 692.583 1113.95C690.058 1116.5 686.569 1118.06 682.696 1118.06H540.457C532.477 1118.06 526.117 1111.41 526.464 1103.45L526.946 1092.45L528.083 1066.84H646.441L654.749 1071.66L689.711 1091.95C694.028 1094.45 696.688 1099.08 696.688 1104.05Z" fill="#141414"/>
<path d="M682.695 1118.85H540.457C536.38 1118.85 532.582 1117.23 529.764 1114.29C526.946 1111.35 525.492 1107.49 525.67 1103.42L527.289 1066.81C527.308 1066.38 527.658 1066.05 528.084 1066.05H646.442C646.582 1066.05 646.72 1066.08 646.842 1066.15L690.111 1091.26C694.659 1093.9 697.484 1098.8 697.484 1104.05C697.484 1108.02 695.943 1111.74 693.144 1114.52C690.369 1117.31 686.657 1118.85 682.695 1118.85ZM528.844 1067.64L527.259 1103.49C527.1 1107.12 528.398 1110.56 530.913 1113.19C533.428 1115.81 536.817 1117.26 540.457 1117.26H682.696C686.23 1117.26 689.542 1115.89 692.019 1113.39C694.519 1110.91 695.893 1107.6 695.893 1104.05C695.893 1099.36 693.372 1094.99 689.312 1092.64L646.228 1067.64H528.844V1067.64Z" fill="#141414"/>
<path d="M696.688 1104.05C696.688 1107.92 695.127 1111.43 692.583 1113.95C690.058 1116.5 686.569 1118.06 682.696 1118.06H540.457C532.477 1118.06 526.117 1111.41 526.464 1103.45L526.946 1092.45H638.52L654.749 1071.66L689.711 1091.95C694.028 1094.45 696.688 1099.08 696.688 1104.05Z" fill="white"/>
<path d="M682.695 1118.85H540.457C536.38 1118.85 532.582 1117.23 529.764 1114.29C526.946 1111.35 525.492 1107.49 525.67 1103.42L526.152 1092.41C526.17 1091.99 526.521 1091.65 526.947 1091.65H638.132L654.122 1071.17C654.367 1070.86 654.805 1070.77 655.149 1070.97L690.111 1091.26C694.659 1093.9 697.484 1098.8 697.484 1104.05C697.484 1108.02 695.943 1111.74 693.144 1114.52C690.369 1117.31 686.657 1118.85 682.695 1118.85ZM527.707 1093.24L527.259 1103.49C527.1 1107.12 528.398 1110.56 530.913 1113.19C533.428 1115.81 536.817 1117.26 540.457 1117.26H682.696C686.23 1117.26 689.542 1115.89 692.019 1113.39C694.519 1110.91 695.893 1107.6 695.893 1104.05C695.893 1099.36 693.372 1094.99 689.312 1092.64L654.95 1072.69L639.148 1092.94C638.997 1093.13 638.766 1093.24 638.52 1093.24H527.707Z" fill="#141414"/>
<path d="M494.262 1104.05C494.262 1107.92 492.701 1111.43 490.157 1113.95C487.632 1116.5 484.143 1118.06 480.27 1118.06H338.031C330.051 1118.06 323.691 1111.41 324.039 1103.45L324.52 1092.45L325.657 1066.84H444.015L452.323 1071.66L487.285 1091.95C491.602 1094.45 494.262 1099.08 494.262 1104.05Z" fill="#141414"/>
<path d="M480.27 1118.85H338.031C333.954 1118.85 330.156 1117.23 327.338 1114.29C324.52 1111.35 323.067 1107.49 323.244 1103.42L324.863 1066.81C324.882 1066.38 325.232 1066.05 325.658 1066.05H444.016C444.156 1066.05 444.294 1066.08 444.416 1066.15L487.685 1091.26C492.233 1093.9 495.058 1098.8 495.058 1104.05C495.058 1108.02 493.516 1111.74 490.717 1114.52C487.943 1117.31 484.232 1118.85 480.27 1118.85ZM326.418 1067.64L324.834 1103.49C324.675 1107.12 325.973 1110.56 328.487 1113.19C331.002 1115.81 334.391 1117.26 338.031 1117.26H480.27C483.805 1117.26 487.115 1115.89 489.593 1113.39C492.093 1110.91 493.467 1107.6 493.467 1104.05C493.467 1099.36 490.946 1094.99 486.887 1092.64L443.803 1067.64H326.418V1067.64Z" fill="#141414"/>
<path d="M494.262 1104.05C494.262 1107.92 492.701 1111.43 490.157 1113.95C487.632 1116.5 484.143 1118.06 480.27 1118.06H338.031C330.051 1118.06 323.691 1111.41 324.039 1103.45L324.52 1092.45H436.094L452.323 1071.66L487.285 1091.95C491.602 1094.45 494.262 1099.08 494.262 1104.05Z" fill="white"/>
<path d="M480.27 1118.85H338.031C333.954 1118.85 330.156 1117.23 327.338 1114.29C324.52 1111.35 323.067 1107.49 323.244 1103.42L323.725 1092.41C323.744 1091.99 324.094 1091.65 324.52 1091.65H435.706L451.696 1071.17C451.941 1070.86 452.379 1070.77 452.723 1070.97L487.685 1091.26C492.234 1093.9 495.059 1098.8 495.059 1104.05C495.059 1108.02 493.517 1111.74 490.718 1114.52C487.943 1117.31 484.232 1118.85 480.27 1118.85ZM325.282 1093.24L324.834 1103.49C324.676 1107.12 325.974 1110.56 328.488 1113.19C331.003 1115.81 334.392 1117.26 338.032 1117.26H480.271C483.805 1117.26 487.116 1115.89 489.594 1113.39C492.094 1110.91 493.468 1107.6 493.468 1104.05C493.468 1099.36 490.947 1094.99 486.887 1092.64L452.525 1072.69L436.724 1092.94C436.572 1093.13 436.342 1093.24 436.096 1093.24H325.282Z" fill="#141414"/>
<path d="M102.682 538.441L91.6895 637.338L160.129 637.798L155.35 555.382L102.682 538.441Z" fill="white"/>
<path d="M160.129 638.593C160.127 638.593 160.125 638.593 160.123 638.593L91.6838 638.133C91.4587 638.132 91.2447 638.035 91.0943 637.866C90.9447 637.698 90.8731 637.474 90.8986 637.25L101.89 538.353C101.916 538.115 102.048 537.903 102.248 537.773C102.448 537.645 102.697 537.611 102.924 537.684L155.592 554.626C155.906 554.727 156.124 555.009 156.143 555.338L160.922 637.753C160.935 637.972 160.856 638.187 160.705 638.346C160.555 638.504 160.347 638.593 160.129 638.593ZM92.578 636.549L159.286 636.997L154.588 555.972L103.365 539.496L92.578 636.549Z" fill="#141414"/>
<path d="M349.786 301.666C351.57 319.065 348.307 326.963 348.479 332.973C348.651 338.982 351.991 346.536 350.321 350.486C348.65 354.435 342.811 353.92 342.811 353.92C342.811 353.92 341.78 381.564 329.586 385.856C317.392 390.148 303.996 381.392 303.996 381.392C303.996 381.392 301.248 391.866 303.996 398.39C288.864 401.465 274.711 389.903 274.711 374.466V367.546C274.711 339.982 278.047 312.519 284.646 285.757L309.559 276.011C313.93 274.301 318.692 273.849 323.307 274.705L329.263 275.81C341.602 278.099 350.36 289.135 349.786 301.666Z" fill="white"/>
<path d="M299.097 399.679C293.34 399.679 287.732 397.706 283.176 393.985C277.292 389.178 273.916 382.063 273.916 374.465V367.545C273.916 339.944 277.266 312.362 283.875 285.566C283.937 285.315 284.117 285.11 284.357 285.016L309.27 275.269C313.783 273.505 318.686 273.037 323.453 273.922L329.409 275.029C342.048 277.373 351.141 288.809 350.583 301.644C351.779 313.37 350.701 320.815 349.912 326.253C349.525 328.926 349.219 331.038 349.273 332.951C349.34 335.288 349.912 337.913 350.465 340.453C351.332 344.437 352.152 348.199 351.053 350.797C349.565 354.315 345.366 354.73 343.567 354.74C343.295 359.423 341.373 382.551 329.851 386.606C324.696 388.421 318.51 388.207 311.963 385.987C308.539 384.825 305.873 383.418 304.526 382.641C303.935 385.411 302.615 393.059 304.73 398.082C304.823 398.301 304.812 398.551 304.701 398.761C304.589 398.973 304.389 399.121 304.156 399.169C302.472 399.51 300.778 399.679 299.097 399.679ZM285.321 286.346C278.809 312.893 275.508 340.209 275.508 367.545V374.465C275.508 381.583 278.67 388.25 284.183 392.754C289.455 397.06 296.235 398.869 302.917 397.778C300.677 391.093 303.118 381.607 303.227 381.189C303.293 380.942 303.472 380.741 303.711 380.649C303.95 380.557 304.217 380.586 304.432 380.725C304.563 380.81 317.652 389.215 329.322 385.104C340.865 381.042 342.005 354.161 342.016 353.89C342.024 353.673 342.121 353.468 342.284 353.324C342.448 353.18 342.664 353.107 342.88 353.127C342.933 353.13 348.166 353.538 349.588 350.176C350.49 348.043 349.722 344.52 348.91 340.789C348.341 338.18 347.754 335.48 347.683 332.995C347.624 330.945 347.955 328.664 348.338 326.024C349.115 320.659 350.18 313.31 348.994 301.746C348.99 301.707 348.989 301.668 348.991 301.629C349.544 289.56 341.001 278.796 329.119 276.592L323.162 275.486C318.689 274.656 314.086 275.092 309.85 276.751L285.321 286.346Z" fill="#141414"/>
<path d="M298.844 338.862C298.421 338.862 298.069 338.53 298.05 338.103C298.03 337.664 298.37 337.292 298.809 337.272C299.522 337.24 300.231 336.782 300.807 335.985C301.814 334.593 302.135 332.529 301.628 330.727C301.241 329.349 300.146 328.407 298.773 328.269C297.174 328.104 295.663 329.082 294.744 330.875C294.545 331.266 294.067 331.422 293.674 331.22C293.283 331.019 293.129 330.541 293.329 330.149C294.54 327.787 296.69 326.46 298.932 326.686C300.941 326.888 302.6 328.305 303.161 330.297C303.804 332.582 303.396 335.118 302.098 336.916C301.231 338.116 300.089 338.806 298.881 338.861C298.869 338.862 298.856 338.862 298.844 338.862Z" fill="#141414"/>
<path d="M338.736 329.882C338.736 331.473 337.446 332.762 335.856 332.762C334.265 332.762 332.975 331.473 332.975 329.882C332.975 328.292 334.265 327.003 335.856 327.003C337.447 327.003 338.736 328.292 338.736 329.882Z" fill="#141414"/>
<path d="M328.128 316.427C327.828 316.427 327.542 316.258 327.407 315.969C327.221 315.572 327.392 315.098 327.789 314.912C328.084 314.775 335.094 311.546 342.079 313.493C342.502 313.609 342.75 314.048 342.632 314.472C342.514 314.895 342.074 315.143 341.653 315.024C335.243 313.24 328.531 316.32 328.464 316.352C328.355 316.403 328.241 316.427 328.128 316.427Z" fill="#141414"/>
<path d="M331.335 373.655C331.193 373.657 331.055 373.64 330.916 373.624C326.508 373.085 322.965 370.092 321.57 366.175C320.963 364.549 320.738 362.768 320.964 360.923L332.975 362.394L331.335 373.655Z" fill="#141414"/>
<path d="M331.457 372.985C331.428 373.223 331.381 373.439 331.334 373.655C331.193 373.657 331.054 373.64 330.915 373.624C326.508 373.085 322.964 370.092 321.57 366.175C322.757 365.534 324.14 365.26 325.57 365.435C329.283 365.889 331.911 369.273 331.457 372.985Z" fill="white"/>
<path d="M331.311 374.451C331.145 374.451 330.981 374.433 330.817 374.413C326.2 373.848 322.369 370.793 320.821 366.441C320.156 364.66 319.937 362.767 320.175 360.826C320.2 360.616 320.308 360.426 320.474 360.296C320.641 360.166 320.852 360.11 321.061 360.133L333.072 361.604C333.284 361.629 333.478 361.74 333.607 361.911C333.737 362.081 333.793 362.296 333.763 362.508L332.122 373.771C332.066 374.156 331.738 374.445 331.348 374.451C331.335 374.451 331.323 374.451 331.311 374.451ZM331.335 373.656H331.343H331.335ZM321.686 361.811C321.618 363.219 321.828 364.589 322.316 365.896C323.606 369.52 326.855 372.187 330.658 372.785L332.07 363.083L321.686 361.811Z" fill="#141414"/>
<path d="M383.884 681.75V723.644L512.989 755.912C536.937 761.898 556.086 779.837 563.614 803.341L646.433 1066.85H528.074L456.017 874.738H201.148L162.519 679.013L383.884 681.75Z" fill="#141414"/>
<path d="M646.432 1067.64H528.074C527.742 1067.64 527.445 1067.44 527.328 1067.13L455.465 875.533H201.148C200.768 875.533 200.441 875.264 200.368 874.891L161.738 679.165C161.691 678.931 161.754 678.687 161.907 678.503C162.06 678.318 162.298 678.181 162.528 678.217L383.894 680.955C384.329 680.96 384.68 681.314 384.68 681.75V723.024L513.182 755.14C537.569 761.235 556.706 779.163 564.371 803.098L647.191 1066.61C647.267 1066.85 647.224 1067.11 647.074 1067.32C646.923 1067.52 646.685 1067.64 646.432 1067.64ZM528.625 1066.05H645.349L562.855 803.579C555.361 780.176 536.647 762.644 512.797 756.683L383.692 724.416C383.338 724.328 383.09 724.009 383.09 723.644V682.535L163.491 679.819L201.804 873.942H456.019C456.35 873.942 456.647 874.148 456.764 874.457L528.625 1066.05Z" fill="#141414"/>
<path d="M300.051 392.072L324.008 395.976C364.092 402.508 398.78 427.48 417.687 463.414L446.743 518.638L391.098 577.359L383.884 681.75H162.678L155.35 555.381L102.682 538.441L108.671 503.826C116.537 458.371 148.915 420.997 192.793 406.723L218.66 398.309C230.764 394.371 243.265 391.78 255.937 390.584C270.645 389.196 285.47 389.696 300.051 392.072Z" fill="white"/>
<path d="M383.884 682.546H162.677C162.256 682.546 161.907 682.218 161.883 681.797L154.587 555.973L102.437 539.199C102.059 539.077 101.829 538.696 101.897 538.305L107.887 503.691C115.825 457.819 148.264 420.373 192.547 405.968L218.413 397.553C230.552 393.604 243.151 390.994 255.862 389.794C270.628 388.398 285.538 388.901 300.179 391.287L324.135 395.192C364.239 401.727 399.475 427.092 418.39 463.044L447.447 518.269C447.605 518.571 447.554 518.94 447.32 519.186L391.871 577.698L384.677 681.806C384.649 682.222 384.303 682.546 383.884 682.546ZM163.428 680.956H383.142L390.303 577.304C390.316 577.12 390.393 576.946 390.519 576.812L445.773 518.506L416.982 463.784C398.297 428.272 363.492 403.217 323.879 396.761L299.922 392.857C285.416 390.492 270.641 389.995 256.011 391.376C243.417 392.565 230.933 395.153 218.906 399.065L193.039 407.48C149.319 421.702 117.292 458.671 109.455 503.962L103.583 537.896L155.593 554.625C155.906 554.726 156.124 555.007 156.144 555.337L163.428 680.956Z" fill="#141414"/>
<path d="M338.77 282.715C335.814 293.942 318.768 308.821 316.314 310.917C316.114 311.087 315.983 311.305 315.915 311.558L311.984 326.296C311.649 327.553 309.877 327.593 309.5 326.348C308.292 322.358 305.702 317.708 300.22 318.207C290.773 319.065 284.934 330.74 289.915 339.84C292.88 345.259 297.185 345.747 300.184 345.254C301.073 345.109 301.649 346.18 301.051 346.854C296.51 351.966 287.659 363.726 288.095 377.328C288.887 402.04 315.791 442.801 291.518 468.899C267.245 494.997 184.349 497.286 182.976 447.838C181.602 398.389 208.623 384.195 206.79 363.592C204.958 342.989 182.174 300.751 205.073 273.28C224.343 250.162 239.397 254.604 243.684 256.593C244.348 256.901 245.127 256.586 245.4 255.908C247.712 250.158 259.328 227.952 300.792 227.952C347.516 227.952 389.063 259.345 352.578 305.492C351.84 306.426 350.368 305.972 350.254 304.787C349.359 295.524 343.986 286.572 341.076 282.319C340.449 281.401 339.052 281.64 338.77 282.715Z" fill="#141414"/>
<path d="M446.743 518.638C433.185 532.945 399.685 561.906 369.458 561.563L411.012 638.642C420.537 656.311 438.995 667.328 459.072 667.328C482.662 667.328 503.584 652.18 510.944 629.774L543.95 529.284C543.95 529.284 566.891 514.826 574.105 502.921C581.318 491.017 585.512 470.335 581.276 467.015C577.039 463.695 572.116 464.382 572.116 464.382C572.116 464.382 571.887 457.629 567.536 456.255C563.185 454.881 560.666 456.255 560.666 456.255C560.666 456.255 562.613 446.526 556.201 445.496C549.788 444.466 545.921 447.952 543.745 454.819C541.57 461.687 534.904 475.6 533.416 477.89C531.927 480.179 516.928 492.656 516.928 492.656C516.928 492.656 521.394 469.648 517.844 464.955C514.295 460.262 506.426 465.217 504.937 471.855C503.449 478.494 499.467 489.811 499.353 495.19C499.238 500.57 498.952 508.566 498.952 508.566L464.946 557.213L446.743 518.638Z" fill="white"/>
<path d="M459.072 668.123C438.673 668.123 419.99 656.972 410.312 639.02L368.757 561.94C368.624 561.692 368.631 561.392 368.777 561.151C368.921 560.913 369.18 560.768 369.458 560.768H369.466C382.555 560.931 397.491 555.586 413.918 544.927C429.894 534.562 441.791 522.707 446.165 518.093C446.346 517.903 446.607 517.813 446.868 517.854C447.128 517.896 447.35 518.063 447.462 518.3L465.081 555.634L498.166 508.303C498.213 506.943 498.455 499.973 498.558 495.174C498.635 491.563 500.337 485.592 501.982 479.817C502.84 476.809 503.649 473.969 504.162 471.681C505.149 467.276 508.844 463.314 512.755 462.467C515.086 461.964 517.117 462.676 518.479 464.474C521.596 468.596 519.179 484.531 518.109 490.632C524.018 485.672 531.799 478.917 532.749 477.456C534.21 475.209 540.873 461.254 542.988 454.579C545.391 446.994 549.876 443.674 556.328 444.711C557.994 444.978 559.306 445.787 560.228 447.113C561.925 449.557 561.838 453.162 561.637 455.089C562.898 454.796 565 454.62 567.777 455.497C571.685 456.731 572.624 461.569 572.846 463.531C574.501 463.474 578.329 463.693 581.767 466.389C586.71 470.262 581.825 491.716 574.786 503.333C567.875 514.74 547.234 528.133 544.618 529.802L511.701 630.022C504.215 652.811 483.066 668.123 459.072 668.123ZM370.788 562.355L411.713 638.265C421.112 655.701 439.259 666.531 459.072 666.531C482.376 666.531 502.918 651.66 510.187 629.526L543.193 529.035C543.251 528.859 543.368 528.709 543.525 528.61C543.753 528.466 566.39 514.115 573.424 502.508C580.792 490.348 584.331 470.42 580.785 467.641C576.881 464.581 572.27 465.165 572.224 465.17C571.999 465.207 571.776 465.136 571.603 464.989C571.432 464.844 571.328 464.635 571.32 464.409C571.319 464.347 571.054 458.199 567.295 457.013C563.368 455.774 561.064 456.944 561.041 456.956C560.77 457.099 560.438 457.073 560.192 456.89C559.946 456.707 559.825 456.4 559.885 456.1C559.895 456.048 560.896 450.862 558.917 448.018C558.242 447.048 557.312 446.479 556.073 446.281C550.365 445.364 546.691 448.153 544.503 455.059C542.306 461.992 535.614 475.965 534.082 478.322C532.572 480.645 518.981 491.981 517.436 493.266C517.178 493.481 516.812 493.511 516.522 493.339C516.233 493.168 516.082 492.833 516.146 492.503C517.37 486.2 519.944 469.051 517.208 465.434C515.971 463.797 514.287 463.761 513.09 464.022C510.206 464.647 506.658 467.813 505.712 472.029C505.19 474.361 504.374 477.221 503.511 480.252C501.968 485.666 500.22 491.801 500.147 495.207C500.034 500.53 499.749 508.514 499.746 508.594C499.74 508.747 499.691 508.896 499.602 509.021L465.597 557.669C465.435 557.9 465.164 558.036 464.878 558.005C464.596 557.981 464.347 557.809 464.226 557.553L446.514 520.023C439.655 527.096 404.286 561.806 370.788 562.355Z" fill="#141414"/>
<path d="M482.123 587.77C481.848 587.77 481.581 587.627 481.433 587.372L464.259 557.611C464.039 557.23 464.17 556.744 464.551 556.525C464.931 556.305 465.418 556.437 465.638 556.816L482.812 586.577C483.032 586.958 482.901 587.444 482.52 587.663C482.394 587.735 482.258 587.77 482.123 587.77Z" fill="#141414"/>
<path d="M534.848 502.437C534.652 502.437 534.458 502.365 534.304 502.221C533.983 501.921 533.967 501.417 534.268 501.097C534.424 500.931 549.859 484.461 552.358 479.965C554.856 475.47 559.847 456.251 559.897 456.056C560.008 455.632 560.44 455.371 560.867 455.486C561.292 455.596 561.548 456.03 561.438 456.455C561.231 457.254 556.345 476.065 553.749 480.736C551.155 485.405 536.069 501.501 535.429 502.185C535.272 502.352 535.061 502.437 534.848 502.437Z" fill="#141414"/>
<path d="M547.758 510.678C547.572 510.678 547.385 510.614 547.235 510.482C546.904 510.193 546.87 509.69 547.158 509.359C547.325 509.169 563.844 490.246 565.668 486.764C567.483 483.3 571.299 464.416 571.337 464.226C571.424 463.795 571.845 463.511 572.274 463.603C572.705 463.69 572.984 464.11 572.897 464.54C572.739 465.326 568.997 483.839 567.078 487.502C565.167 491.149 549.043 509.622 548.358 510.407C548.2 510.586 547.979 510.678 547.758 510.678Z" fill="#141414"/>
<path d="M369.459 562.358C369.183 562.358 368.915 562.215 368.768 561.959L342.663 516.632C342.444 516.251 342.574 515.765 342.955 515.546C343.337 515.328 343.823 515.458 344.042 515.838L370.148 561.166C370.366 561.547 370.236 562.033 369.855 562.251C369.73 562.324 369.593 562.358 369.459 562.358Z" fill="#141414"/>
<path d="M155.349 556.177C154.927 556.177 154.576 555.846 154.555 555.42L151.807 497.73C151.786 497.291 152.125 496.918 152.564 496.897C152.996 496.856 153.376 497.215 153.397 497.654L156.144 555.344C156.165 555.783 155.826 556.156 155.387 556.177C155.374 556.177 155.362 556.177 155.349 556.177Z" fill="#141414"/>
<path d="M572.117 1051.12C571.794 1051.12 571.491 1050.92 571.371 1050.6L495.447 847.421C487.147 825.21 465.636 810.288 441.92 810.288H236.414C235.975 810.288 235.618 809.932 235.618 809.493C235.618 809.053 235.975 808.697 236.414 808.697H441.92C466.297 808.697 488.406 824.035 496.937 846.865L572.862 1050.05C573.016 1050.46 572.806 1050.92 572.395 1051.07C572.304 1051.1 572.209 1051.12 572.117 1051.12Z" fill="white"/>
<path d="M229.788 1118.85H140.847C129.873 1118.85 119.831 1113.31 113.983 1104.03C108.136 1094.74 107.477 1083.29 112.221 1073.4L186.234 919.039C186.424 918.642 186.9 918.475 187.295 918.666C187.691 918.855 187.859 919.331 187.669 919.727L113.656 1074.09C109.15 1083.48 109.776 1094.36 115.33 1103.18C120.884 1112 130.423 1117.26 140.848 1117.26H229.788C242.112 1117.26 253.076 1109.89 257.719 1098.47L330.71 919.082C330.876 918.676 331.34 918.482 331.747 918.645C332.153 918.811 332.349 919.275 332.183 919.682L259.193 1099.07C254.305 1111.09 242.762 1118.85 229.788 1118.85Z" fill="#141414"/>
<path d="M456.786 1118.85H367.845C354.87 1118.85 343.328 1111.09 338.44 1099.07L265.449 919.683C265.283 919.276 265.479 918.812 265.886 918.646C266.293 918.482 266.758 918.677 266.922 919.083L339.913 1098.47C344.556 1109.89 355.52 1117.26 367.844 1117.26H456.786C467.21 1117.26 476.749 1112 482.303 1103.18C487.857 1094.36 488.483 1083.48 483.977 1074.09L409.964 919.728C409.774 919.331 409.942 918.856 410.338 918.667C410.733 918.476 411.21 918.643 411.399 919.04L485.412 1073.4C490.155 1083.29 489.497 1094.74 483.65 1104.03C477.803 1113.31 467.76 1118.85 456.786 1118.85Z" fill="#141414"/>
<path d="M472.767 919.383H166.632C140.475 919.383 117.663 901.612 111.271 876.255L60.5257 674.947C55.7651 656.083 70.0278 637.798 89.4744 637.798H269.991C284.677 637.798 297.186 648.473 299.479 662.981L333.053 874.739H456.018L472.767 919.383Z" fill="white"/>
<path d="M472.768 920.178H166.632C140.073 920.178 116.991 902.197 110.5 876.449L59.7543 675.141C57.4257 665.914 59.4441 656.318 65.2922 648.813C71.1411 641.307 79.9559 637.002 89.4747 637.002H269.991C285.165 637.002 297.898 647.875 300.265 662.856L333.733 873.943H456.018C456.35 873.943 456.647 874.148 456.764 874.458L473.512 919.102C473.604 919.347 473.57 919.62 473.421 919.835C473.273 920.05 473.029 920.178 472.768 920.178ZM89.4747 638.593C80.4491 638.593 72.0926 642.675 66.5476 649.791C61.0033 656.906 59.0892 666.004 61.2977 674.753L112.044 876.06C118.356 901.099 140.804 918.588 166.633 918.588H471.621L455.468 875.534H333.054C332.663 875.534 332.329 875.25 332.268 874.863L298.694 663.105C296.449 648.902 284.377 638.593 269.991 638.593H89.4747Z" fill="#141414"/>
<path d="M331.447 920.178C318.063 920.178 306.72 910.603 304.478 897.412L260.369 637.931C260.295 637.498 260.587 637.087 261.02 637.014C261.455 636.945 261.864 637.231 261.937 637.664L306.046 897.145C308.158 909.569 318.841 918.588 331.447 918.588C331.886 918.588 332.242 918.943 332.242 919.383C332.242 919.823 331.887 920.178 331.447 920.178Z" fill="#141414"/>
<path d="M76.6962 327.943L75.7988 331.563C75.5506 332.563 74.1281 332.563 73.8807 331.563L72.9833 327.943C72.218 324.855 69.8067 322.446 66.7183 321.68L63.0978 320.783C62.097 320.534 62.097 319.112 63.0978 318.865L66.7183 317.968C69.8067 317.203 72.218 314.792 72.9833 311.705L73.8807 308.085C74.1289 307.085 75.5514 307.085 75.7988 308.085L76.6962 311.705C77.4615 314.792 79.8729 317.202 82.9604 317.968L86.581 318.865C87.5818 319.113 87.5818 320.535 86.581 320.783L82.9604 321.68C79.8729 322.445 77.4615 324.855 76.6962 327.943Z" fill="#141414"/>
<path d="M636.488 94.756L635.591 98.3756C635.343 99.3761 633.92 99.3761 633.673 98.3756L632.775 94.756C632.01 91.6685 629.599 89.2587 626.51 88.4928L622.89 87.5956C621.889 87.3475 621.889 85.9254 622.89 85.6781L626.51 84.7809C629.599 84.0158 632.01 81.6052 632.775 78.5177L633.673 74.8981C633.921 73.8976 635.343 73.8976 635.591 74.8981L636.488 78.5177C637.254 81.6052 639.665 84.015 642.753 84.7809L646.374 85.6781C647.375 85.9262 647.375 87.3483 646.374 87.5956L642.753 88.4928C639.665 89.2579 637.254 91.6685 636.488 94.756Z" fill="#141414"/>
<path d="M941.931 335.122L941.033 338.741C940.785 339.742 939.363 339.742 939.115 338.741L938.218 335.122C937.452 332.034 935.041 329.624 931.953 328.859L928.332 327.962C927.331 327.714 927.331 326.292 928.332 326.044L931.953 325.147C935.041 324.382 937.452 321.972 938.218 318.884L939.115 315.265C939.363 314.264 940.785 314.264 941.033 315.265L941.931 318.884C942.696 321.972 945.107 324.382 948.196 325.147L951.816 326.044C952.817 326.293 952.817 327.715 951.816 327.962L948.196 328.859C945.107 329.624 942.696 332.034 941.931 335.122Z" fill="#141414"/>
<path d="M1336.5 282.024L1335.6 285.644C1335.35 286.644 1333.93 286.644 1333.68 285.644L1332.78 282.024C1332.02 278.937 1329.61 276.526 1326.52 275.761L1322.9 274.864C1321.9 274.616 1321.9 273.194 1322.9 272.946L1326.52 272.049C1329.61 271.284 1332.02 268.874 1332.78 265.786L1333.68 262.167C1333.93 261.166 1335.35 261.166 1335.6 262.167L1336.5 265.786C1337.26 268.874 1339.67 271.284 1342.76 272.049L1346.38 272.946C1347.38 273.195 1347.38 274.617 1346.38 274.864L1342.76 275.761C1339.67 276.527 1337.26 278.938 1336.5 282.024Z" fill="#141414"/>
<path d="M646.9 169.18V295.897C646.9 303.489 640.752 309.635 633.177 309.635H519.252C516.821 309.635 514.49 310.601 512.771 312.32L483.267 341.829C480.281 344.817 475.173 342.702 475.173 338.479V318.796C475.173 313.737 471.071 309.635 466.01 309.635H419.743C412.169 309.635 406.001 303.489 406.001 295.897V169.18C406.001 161.589 412.169 155.442 419.743 155.442H633.179C640.752 155.442 646.9 161.589 646.9 169.18Z" fill="#141414"/>
<path d="M589.996 200.481H462.905C462.466 200.481 462.109 200.126 462.109 199.686C462.109 199.246 462.466 198.891 462.905 198.891H589.996C590.435 198.891 590.791 199.246 590.791 199.686C590.791 200.126 590.435 200.481 589.996 200.481Z" fill="white"/>
<path d="M516.727 222.115H462.905C462.466 222.115 462.109 221.76 462.109 221.32C462.109 220.88 462.466 220.524 462.905 220.524H516.727C517.166 220.524 517.522 220.88 517.522 221.32C517.522 221.76 517.166 222.115 516.727 222.115Z" fill="white"/>
<path d="M589.996 243.749H462.905C462.466 243.749 462.109 243.393 462.109 242.954C462.109 242.514 462.466 242.158 462.905 242.158H589.996C590.435 242.158 590.791 242.514 590.791 242.954C590.791 243.393 590.435 243.749 589.996 243.749Z" fill="white"/>
<path d="M547.64 265.383H462.905C462.466 265.383 462.109 265.027 462.109 264.588C462.109 264.148 462.466 263.792 462.905 263.792H547.64C548.079 263.792 548.436 264.148 548.436 264.588C548.436 265.027 548.079 265.383 547.64 265.383Z" fill="white"/>
<path d="M864.883 94.2892V183.003C864.883 190.594 871.031 196.741 878.606 196.741H992.532C994.963 196.741 997.294 197.706 999.012 199.426L1028.52 228.935C1031.5 231.922 1036.61 229.808 1036.61 225.584V205.901C1036.61 200.842 1040.71 196.741 1045.77 196.741H1092.04C1099.61 196.741 1105.78 190.594 1105.78 183.003V94.2892C1105.78 86.6977 1099.61 80.5514 1092.04 80.5514H878.604C871.032 80.5506 864.883 86.6969 864.883 94.2892Z" fill="#141414"/>
<path d="M1048.88 126.418H921.788C921.349 126.418 920.992 126.063 920.992 125.623C920.992 125.183 921.349 124.828 921.788 124.828H1048.88C1049.32 124.828 1049.67 125.183 1049.67 125.623C1049.67 126.063 1049.32 126.418 1048.88 126.418Z" fill="white"/>
<path d="M975.609 148.052H921.788C921.349 148.052 920.992 147.697 920.992 147.257C920.992 146.817 921.349 146.461 921.788 146.461H975.609C976.049 146.461 976.405 146.817 976.405 147.257C976.405 147.697 976.049 148.052 975.609 148.052Z" fill="white"/>
<path d="M872.164 477.718H638.915C636.549 477.718 634.631 475.8 634.631 473.436V357.176C634.631 354.811 636.549 352.894 638.915 352.894H872.164C874.53 352.894 876.448 354.812 876.448 357.176V473.435C876.448 475.8 874.53 477.718 872.164 477.718Z" fill="white"/>
<path d="M872.164 478.513H638.915C636.114 478.513 633.836 476.236 633.836 473.436V357.176C633.836 354.376 636.115 352.099 638.915 352.099H872.164C874.965 352.099 877.243 354.376 877.243 357.176V473.436C877.243 476.235 874.965 478.513 872.164 478.513ZM638.915 353.69C636.992 353.69 635.428 355.254 635.428 357.176V473.436C635.428 475.358 636.992 476.922 638.915 476.922H872.164C874.087 476.922 875.652 475.358 875.652 473.436V357.176C875.652 355.254 874.087 353.69 872.164 353.69H638.915Z" fill="#141414"/>
<path d="M634.631 417.452C675.163 417.452 669.731 453.165 701.53 453.165C733.327 453.165 732.87 400.053 766.302 400.053C799.735 400.053 792.731 432.332 812.721 432.332C832.71 432.332 826.756 401.884 876.448 401.884" fill="white"/>
<path d="M701.53 453.96C686.227 453.96 679.383 445.939 672.137 437.445C664.085 428.007 655.758 418.247 634.631 418.247C634.192 418.247 633.836 417.891 633.836 417.451C633.836 417.012 634.192 416.656 634.631 416.656C656.493 416.656 665.447 427.152 673.348 436.413C680.349 444.618 686.962 452.369 701.53 452.369C716.781 452.369 724.329 439.898 732.32 426.696C740.485 413.207 748.928 399.257 766.302 399.257C785.614 399.257 791.697 409.677 797.066 418.87C801.034 425.666 804.461 431.536 812.721 431.536C820.108 431.536 823.781 427.161 828.431 421.621C835.707 412.956 845.67 401.089 876.448 401.089C876.887 401.089 877.243 401.444 877.243 401.884C877.243 402.324 876.887 402.68 876.448 402.68C846.412 402.68 837.118 413.75 829.65 422.645C824.928 428.269 820.85 433.127 812.721 433.127C803.547 433.127 799.732 426.592 795.691 419.673C790.539 410.849 784.7 400.849 766.302 400.849C749.824 400.849 741.617 414.408 733.681 427.52C725.813 440.519 717.677 453.96 701.53 453.96Z" fill="#141414"/>
<path d="M677.453 375.209H658.675C658.236 375.209 657.88 374.853 657.88 374.413C657.88 373.974 658.236 373.618 658.675 373.618H677.453C677.892 373.618 678.249 373.974 678.249 374.413C678.249 374.853 677.892 375.209 677.453 375.209Z" fill="#141414"/>
<path d="M690.047 384.136H658.675C658.236 384.136 657.88 383.781 657.88 383.341C657.88 382.901 658.236 382.546 658.675 382.546H690.047C690.487 382.546 690.843 382.901 690.843 383.341C690.843 383.781 690.487 384.136 690.047 384.136Z" fill="#141414"/>
</svg>
