<svg width="1233" height="1027" viewBox="0 0 1233 1027" fill="none" xmlns="http://www.w3.org/2000/svg">
<path d="M579.931 325.089C579.776 325.089 579.621 325.037 579.493 324.93C579.202 324.688 579.163 324.257 579.406 323.966L672.746 212.158C672.988 211.867 673.421 211.828 673.71 212.071C674.001 212.313 674.04 212.744 673.797 213.035L580.457 324.843C580.322 325.006 580.127 325.089 579.931 325.089Z" fill="#141414"/>
<path d="M579.931 325.089C579.605 325.089 579.316 324.857 579.257 324.525C579.191 324.152 579.44 323.797 579.811 323.731L751.491 293.289C751.866 293.224 752.218 293.471 752.286 293.843C752.351 294.216 752.103 294.571 751.731 294.637L580.051 325.078C580.011 325.086 579.97 325.089 579.931 325.089Z" fill="#141414"/>
<path d="M615.853 571.208C615.785 571.208 615.717 571.198 615.649 571.178C615.288 571.065 615.086 570.682 615.198 570.321L660.428 424.529C660.541 424.168 660.924 423.965 661.285 424.078C661.646 424.19 661.848 424.573 661.737 424.934L616.506 570.726C616.416 571.02 616.145 571.208 615.853 571.208Z" fill="#141414"/>
<path d="M661.084 425.416C660.884 425.416 660.686 425.329 660.551 425.162L579.399 324.835C579.162 324.541 579.207 324.11 579.501 323.872C579.795 323.634 580.227 323.68 580.465 323.974L661.617 424.3C661.855 424.595 661.809 425.025 661.515 425.264C661.388 425.366 661.235 425.416 661.084 425.416Z" fill="#141414"/>
<path d="M603.093 346.201H556.769C553.605 346.201 551.04 343.637 551.04 340.475V308.334C551.04 305.172 553.605 302.608 556.769 302.608H603.093C606.257 302.608 608.823 305.172 608.823 308.334V340.475C608.823 343.637 606.257 346.201 603.093 346.201Z" fill="white"/>
<path d="M603.093 346.886H556.769C553.233 346.886 550.355 344.01 550.355 340.475V308.335C550.355 304.8 553.233 301.924 556.769 301.924H603.093C606.63 301.924 609.507 304.8 609.507 308.335V340.475C609.507 344.009 606.63 346.886 603.093 346.886ZM556.769 303.292C553.988 303.292 551.725 305.554 551.725 308.334V340.474C551.725 343.254 553.988 345.516 556.769 345.516H603.093C605.875 345.516 608.137 343.254 608.137 340.474V308.334C608.137 305.554 605.875 303.292 603.093 303.292H556.769Z" fill="#141414"/>
<path d="M595.071 321.654H562.52C562.142 321.654 561.835 321.348 561.835 320.97C561.835 320.592 562.142 320.285 562.52 320.285H595.071C595.449 320.285 595.756 320.592 595.756 320.97C595.756 321.348 595.45 321.654 595.071 321.654Z" fill="#141414"/>
<path d="M595.071 329.483H562.52C562.142 329.483 561.835 329.176 561.835 328.798C561.835 328.42 562.142 328.114 562.52 328.114H595.071C595.449 328.114 595.756 328.42 595.756 328.798C595.756 329.176 595.45 329.483 595.071 329.483Z" fill="#141414"/>
<path d="M673.272 259.244C699.047 259.244 719.942 238.359 719.942 212.596C719.942 186.833 699.047 165.948 673.272 165.948C647.496 165.948 626.601 186.833 626.601 212.596C626.601 238.359 647.496 259.244 673.272 259.244Z" fill="#141414"/>
<path d="M690.356 205.506H656.187C655.809 205.506 655.502 205.199 655.502 204.822C655.502 204.444 655.809 204.137 656.187 204.137H690.356C690.734 204.137 691.041 204.444 691.041 204.822C691.041 205.199 690.735 205.506 690.356 205.506Z" fill="white"/>
<path d="M683.62 213.28H656.187C655.809 213.28 655.502 212.974 655.502 212.596C655.502 212.218 655.809 211.911 656.187 211.911H683.62C683.998 211.911 684.305 212.218 684.305 212.596C684.305 212.974 683.998 213.28 683.62 213.28Z" fill="white"/>
<path d="M676.744 221.055H656.187C655.809 221.055 655.502 220.748 655.502 220.37C655.502 219.992 655.809 219.686 656.187 219.686H676.744C677.123 219.686 677.429 219.992 677.429 220.37C677.429 220.748 677.123 221.055 676.744 221.055Z" fill="white"/>
<path d="M661.083 471.379C686.858 471.379 707.753 450.494 707.753 424.731C707.753 398.968 686.858 378.083 661.083 378.083C635.308 378.083 614.413 398.968 614.413 424.731C614.413 450.494 635.308 471.379 661.083 471.379Z" fill="#141414"/>
<path d="M678.168 417.641H643.998C643.62 417.641 643.313 417.334 643.313 416.956C643.313 416.578 643.62 416.271 643.998 416.271H678.168C678.546 416.271 678.853 416.578 678.853 416.956C678.853 417.334 678.546 417.641 678.168 417.641Z" fill="white"/>
<path d="M671.431 425.416H643.998C643.62 425.416 643.313 425.109 643.313 424.731C643.313 424.353 643.62 424.046 643.998 424.046H671.431C671.809 424.046 672.116 424.353 672.116 424.731C672.116 425.109 671.809 425.416 671.431 425.416Z" fill="white"/>
<path d="M664.555 433.19H643.998C643.62 433.19 643.313 432.883 643.313 432.505C643.313 432.127 643.62 431.821 643.998 431.821H664.555C664.933 431.821 665.24 432.127 665.24 432.505C665.24 432.883 664.934 433.19 664.555 433.19Z" fill="white"/>
<path d="M751.611 340.61C777.386 340.61 798.281 319.725 798.281 293.962C798.281 268.199 777.386 247.315 751.611 247.315C725.835 247.315 704.94 268.199 704.94 293.962C704.94 319.725 725.835 340.61 751.611 340.61Z" fill="white"/>
<path d="M751.611 341.294C725.499 341.294 704.255 320.061 704.255 293.962C704.255 267.863 725.499 246.63 751.611 246.63C777.722 246.63 798.966 267.863 798.966 293.962C798.966 320.061 777.722 341.294 751.611 341.294ZM751.611 247.999C726.254 247.999 705.625 268.618 705.625 293.962C705.625 319.307 726.254 339.925 751.611 339.925C776.967 339.925 797.596 319.306 797.596 293.962C797.596 268.619 776.967 247.999 751.611 247.999Z" fill="#141414"/>
<path d="M768.695 286.872H734.526C734.148 286.872 733.841 286.565 733.841 286.187C733.841 285.809 734.148 285.503 734.526 285.503H768.695C769.074 285.503 769.38 285.809 769.38 286.187C769.38 286.565 769.074 286.872 768.695 286.872Z" fill="#141414"/>
<path d="M761.959 294.647H734.526C734.148 294.647 733.841 294.34 733.841 293.962C733.841 293.584 734.148 293.278 734.526 293.278H761.959C762.337 293.278 762.644 293.584 762.644 293.962C762.644 294.34 762.337 294.647 761.959 294.647Z" fill="#141414"/>
<path d="M755.084 302.421H734.526C734.148 302.421 733.841 302.115 733.841 301.737C733.841 301.359 734.148 301.052 734.526 301.052H755.084C755.462 301.052 755.769 301.359 755.769 301.737C755.769 302.115 755.462 302.421 755.084 302.421Z" fill="#141414"/>
<path d="M615.853 617.171C641.628 617.171 662.523 596.286 662.523 570.523C662.523 544.76 641.628 523.875 615.853 523.875C590.077 523.875 569.182 544.76 569.182 570.523C569.182 596.286 590.077 617.171 615.853 617.171Z" fill="white"/>
<path d="M615.853 617.855C589.74 617.855 568.497 596.623 568.497 570.523C568.497 544.424 589.74 523.191 615.853 523.191C641.964 523.191 663.207 544.424 663.207 570.523C663.207 596.623 641.964 617.855 615.853 617.855ZM615.853 524.561C590.496 524.561 569.867 545.179 569.867 570.523C569.867 595.867 590.496 616.486 615.853 616.486C641.209 616.486 661.837 595.867 661.837 570.523C661.837 545.179 641.208 524.561 615.853 524.561Z" fill="#141414"/>
<path d="M632.937 563.433H598.768C598.39 563.433 598.083 563.127 598.083 562.749C598.083 562.371 598.39 562.064 598.768 562.064H632.937C633.315 562.064 633.622 562.371 633.622 562.749C633.622 563.127 633.315 563.433 632.937 563.433Z" fill="#141414"/>
<path d="M626.2 571.208H598.768C598.39 571.208 598.083 570.901 598.083 570.523C598.083 570.145 598.39 569.839 598.768 569.839H626.2C626.578 569.839 626.885 570.145 626.885 570.523C626.885 570.901 626.578 571.208 626.2 571.208Z" fill="#141414"/>
<path d="M619.325 578.983H598.768C598.39 578.983 598.083 578.676 598.083 578.298C598.083 577.92 598.39 577.614 598.768 577.614H619.325C619.703 577.614 620.01 577.92 620.01 578.298C620.01 578.676 619.703 578.983 619.325 578.983Z" fill="#141414"/>
<path d="M615.853 86.7035V180.44C615.853 186.056 611.304 190.603 605.7 190.603H521.407C519.608 190.603 517.883 191.317 516.612 192.589L494.783 214.418C492.573 216.628 488.794 215.064 488.794 211.94V197.38C488.794 193.637 485.759 190.603 482.014 190.603H447.781C442.177 190.603 437.614 186.056 437.614 180.44V86.7035C437.614 81.0878 442.177 76.541 447.781 76.541H605.699C611.304 76.541 615.853 81.0878 615.853 86.7035Z" fill="#141414"/>
<path d="M573.749 109.955H479.716C479.338 109.955 479.031 109.648 479.031 109.27C479.031 108.892 479.338 108.585 479.716 108.585H573.749C574.127 108.585 574.434 108.892 574.434 109.27C574.434 109.648 574.128 109.955 573.749 109.955Z" fill="white"/>
<path d="M519.538 125.957H479.716C479.338 125.957 479.031 125.651 479.031 125.273C479.031 124.895 479.338 124.588 479.716 124.588H519.538C519.916 124.588 520.223 124.895 520.223 125.273C520.223 125.651 519.917 125.957 519.538 125.957Z" fill="white"/>
<path d="M573.749 141.961H479.716C479.338 141.961 479.031 141.654 479.031 141.276C479.031 140.898 479.338 140.591 479.716 140.591H573.749C574.127 140.591 574.434 140.898 574.434 141.276C574.434 141.654 574.128 141.961 573.749 141.961Z" fill="white"/>
<path d="M542.411 157.964H479.716C479.338 157.964 479.031 157.658 479.031 157.28C479.031 156.902 479.338 156.595 479.716 156.595H542.411C542.789 156.595 543.096 156.902 543.096 157.28C543.096 157.658 542.79 157.964 542.411 157.964Z" fill="white"/>
<path d="M839.914 131.824C837.629 153.895 823.467 158.072 822.441 171.187H806.563C805.537 158.072 791.376 153.896 789.091 131.824C786.789 109.753 801.606 101.418 814.502 101.418C827.398 101.418 842.215 109.753 839.914 131.824Z" fill="white"/>
<path d="M822.441 171.872H806.563C806.205 171.872 805.908 171.597 805.88 171.241C805.444 165.665 802.531 161.735 799.158 157.186C794.729 151.211 789.708 144.439 788.41 131.895C787.424 122.438 789.533 114.521 794.51 109C799.248 103.746 806.534 100.733 814.502 100.733C822.47 100.733 829.756 103.746 834.494 109C839.471 114.52 841.581 122.438 840.594 131.895C839.296 144.439 834.275 151.211 829.846 157.186C826.473 161.735 823.56 165.665 823.124 171.241C823.096 171.597 822.799 171.872 822.441 171.872ZM807.187 170.503H821.818C822.441 164.874 825.372 160.922 828.746 156.37C833.07 150.537 837.972 143.925 839.233 131.754C840.191 122.563 838.254 115.216 833.477 109.917C828.999 104.951 822.083 102.102 814.503 102.102C806.923 102.102 800.007 104.951 795.529 109.917C790.751 115.216 788.815 122.563 789.773 131.754C791.033 143.926 795.934 150.538 800.26 156.371C803.633 160.922 806.563 164.874 807.187 170.503Z" fill="#141414"/>
<path d="M820.276 190.485H808.637C807.492 190.485 806.563 189.557 806.563 188.413V171.187H822.35V188.413C822.349 189.557 821.421 190.485 820.276 190.485Z" fill="white"/>
<path d="M820.275 191.17H808.636C807.115 191.17 805.878 189.933 805.878 188.413V171.187C805.878 170.809 806.185 170.503 806.563 170.503H822.349C822.727 170.503 823.034 170.809 823.034 171.187V188.413C823.034 189.933 821.797 191.17 820.275 191.17ZM807.248 171.872V188.413C807.248 189.178 807.871 189.801 808.636 189.801H820.275C821.041 189.801 821.664 189.178 821.664 188.413V171.872H807.248Z" fill="#141414"/>
<path d="M811.307 171.872C810.929 171.872 810.622 171.565 810.622 171.187V143.551H807.452C805.925 143.551 804.684 142.309 804.684 140.783C804.684 139.257 805.925 138.016 807.452 138.016H809.223C810.75 138.016 811.992 139.257 811.992 140.783V142.181H816.039V140.783C816.039 139.257 817.281 138.016 818.808 138.016H820.266C821.793 138.016 823.035 139.257 823.035 140.783C823.035 142.309 821.793 143.551 820.266 143.551H817.409V170.563C817.409 170.941 817.102 171.247 816.724 171.247C816.346 171.247 816.039 170.941 816.039 170.563V143.551H811.992V171.187C811.992 171.565 811.685 171.872 811.307 171.872ZM817.408 142.181H820.265C821.036 142.181 821.664 141.554 821.664 140.783C821.664 140.012 821.037 139.385 820.265 139.385H818.807C818.036 139.385 817.408 140.012 817.408 140.783V142.181ZM807.452 139.386C806.681 139.386 806.054 140.013 806.054 140.784C806.054 141.555 806.681 142.182 807.452 142.182H810.622V140.784C810.622 140.014 809.994 139.386 809.223 139.386H807.452Z" fill="#141414"/>
<path d="M822.349 177.807H806.563C806.185 177.807 805.878 177.501 805.878 177.123C805.878 176.745 806.185 176.438 806.563 176.438H822.349C822.727 176.438 823.034 176.745 823.034 177.123C823.034 177.501 822.727 177.807 822.349 177.807Z" fill="#141414"/>
<path d="M822.349 183.118H806.563C806.185 183.118 805.878 182.812 805.878 182.434C805.878 182.056 806.185 181.749 806.563 181.749H822.349C822.727 181.749 823.034 182.056 823.034 182.434C823.034 182.812 822.727 183.118 822.349 183.118Z" fill="#141414"/>
<path d="M839.098 106.171C838.964 106.171 838.828 106.132 838.71 106.049C838.398 105.835 838.32 105.408 838.535 105.097L846.993 92.8421C847.207 92.5313 847.635 92.4526 847.946 92.6675C848.257 92.8825 848.335 93.3091 848.12 93.6199L839.663 105.875C839.53 106.067 839.316 106.171 839.098 106.171Z" fill="#141414"/>
<path d="M790.07 106.861C789.878 106.861 789.686 106.781 789.552 106.624L779.986 95.5466C779.739 95.2604 779.771 94.8284 780.057 94.5812C780.344 94.334 780.776 94.3662 781.023 94.6524L790.589 105.73C790.836 106.016 790.804 106.448 790.517 106.695C790.388 106.807 790.228 106.861 790.07 106.861Z" fill="#141414"/>
<path d="M813.975 93.9164C813.602 93.9164 813.296 93.6165 813.29 93.2413L813.058 76.5505C813.053 76.1726 813.355 75.8617 813.734 75.8563C814.107 75.87 814.423 76.1527 814.428 76.5313L814.66 93.2221C814.666 93.6001 814.363 93.9109 813.985 93.9164C813.981 93.9164 813.979 93.9164 813.975 93.9164Z" fill="#141414"/>
<path d="M865.326 212.596C841.895 216.205 849.118 266.185 851.618 297.283C854.119 328.381 840.105 351.982 840.105 351.982L978.294 343.191C978.294 343.191 970.64 311.361 968.494 267.254C966.349 223.147 958.848 190.383 927.179 187.051C895.51 183.719 871.256 185.94 865.326 212.596Z" fill="#141414"/>
<path d="M849.693 333.726C832.231 340.96 818.126 354.898 810.708 372.678L782.547 440.172L833.157 465.352L834.03 526.597H1000.99V464.298C1000.99 464.298 1033.86 418.483 1030.52 388.496C1027.19 358.508 1004.45 329.166 925.814 325.719C899.029 324.546 878.419 326.547 862.884 329.698C858.321 330.623 853.909 331.979 849.693 333.726Z" fill="#141414"/>
<path d="M1001.67 527.282H833.354L832.478 465.779L781.668 440.5L810.076 372.415C817.563 354.471 831.539 340.507 849.431 333.094C853.716 331.318 858.196 329.95 862.747 329.027C880.927 325.341 902.156 323.997 925.844 325.036C991.399 327.909 1026.85 349.234 1031.2 388.42C1032.16 397.064 1030.59 412.674 1017.61 437.955C1010.41 451.999 1002.75 462.989 1001.67 464.516V527.282H1001.67ZM834.704 525.913H1000.3V464.078L1000.43 463.899C1000.76 463.443 1033.11 417.953 1029.84 388.572C1025.57 350.159 990.56 329.242 925.783 326.404C902.206 325.37 881.089 326.704 863.019 330.369C858.554 331.275 854.159 332.617 849.955 334.359C832.401 341.632 818.687 355.334 811.34 372.942L783.426 439.846L833.836 464.926L834.704 525.913Z" fill="#141414"/>
<path d="M971.97 332.825C971.912 332.825 971.854 332.818 971.795 332.803C959.985 329.701 948.258 327.406 936.939 325.983C936.563 325.936 936.298 325.593 936.345 325.218C936.391 324.842 936.737 324.577 937.11 324.624C948.489 326.055 960.276 328.361 972.144 331.479C972.509 331.575 972.728 331.95 972.632 332.315C972.551 332.622 972.273 332.825 971.97 332.825Z" fill="white"/>
<path d="M849.731 334.505C849.46 334.505 849.205 334.344 849.096 334.078C848.953 333.728 849.122 333.329 849.472 333.185C854.893 330.973 860.918 329.059 867.381 327.497C867.746 327.408 868.119 327.634 868.208 328.001C868.296 328.369 868.071 328.739 867.703 328.828C861.307 330.374 855.348 332.266 849.99 334.453C849.905 334.488 849.817 334.505 849.731 334.505Z" fill="white"/>
<path d="M782.546 440.173L757.965 501.22C754.793 509.096 755.833 518.042 760.725 524.983L804.555 587.165C804.555 587.165 801.36 619.877 803.396 630.633C805.431 641.39 813.558 640.949 813.558 640.949L835.483 558.773L813.558 510.415L833.156 465.353L782.546 440.173Z" fill="white"/>
<path d="M813.422 641.635C812.853 641.635 810.981 641.542 808.915 640.427C806.698 639.23 803.824 636.582 802.722 630.761C800.763 620.41 803.533 590.645 803.848 587.352L760.165 525.378C755.117 518.217 754.057 509.09 757.329 500.964L781.911 439.917C781.982 439.74 782.125 439.601 782.304 439.533C782.482 439.464 782.68 439.475 782.852 439.56L833.462 464.739C833.788 464.902 833.931 465.291 833.785 465.625L814.308 510.408L836.108 558.49C836.174 558.633 836.187 558.796 836.146 558.948L814.221 641.124C814.144 641.41 813.893 641.615 813.596 641.631C813.582 641.632 813.522 641.635 813.422 641.635ZM782.905 441.116L758.601 501.475C755.503 509.168 756.506 517.809 761.285 524.588L805.115 586.77C805.209 586.904 805.253 587.067 805.237 587.23C805.205 587.557 802.074 619.968 804.068 630.505C805.702 639.134 811.321 640.148 813.034 640.255L834.758 558.832L812.934 510.696C812.853 510.52 812.852 510.318 812.929 510.141L832.269 465.675L782.905 441.116Z" fill="#141414"/>
<path d="M834.03 526.597L764.92 921.203H857.298L903.255 711.302L914.307 921.203H1006.8L1000.98 526.597H834.03Z" fill="white"/>
<path d="M1006.8 921.888H914.307C913.943 921.888 913.642 921.602 913.623 921.24L902.837 716.41L857.967 921.35C857.898 921.664 857.62 921.888 857.298 921.888H764.919C764.717 921.888 764.525 921.799 764.394 921.644C764.264 921.489 764.209 921.285 764.244 921.086L833.354 526.479C833.411 526.151 833.696 525.912 834.029 525.912H1000.98C1001.36 525.912 1001.66 526.213 1001.67 526.587L1007.49 921.193C1007.49 921.377 1007.42 921.553 1007.29 921.683C1007.16 921.815 1006.99 921.888 1006.8 921.888ZM914.957 920.519H1006.11L1000.31 527.282H834.605L765.735 920.519H856.747L902.585 711.156C902.658 710.822 902.958 710.588 903.31 710.62C903.652 710.648 903.921 710.924 903.939 711.266L914.957 920.519Z" fill="#141414"/>
<path d="M987.217 546.276H841.738C841.36 546.276 841.053 545.969 841.053 545.591C841.053 545.213 841.36 544.906 841.738 544.906H987.217C987.595 544.906 987.902 545.213 987.902 545.591C987.902 545.969 987.595 546.276 987.217 546.276Z" fill="#141414"/>
<path d="M903.254 711.987C902.893 711.987 902.591 711.705 902.571 711.341L896.754 607.262C896.732 606.885 897.021 606.562 897.399 606.541C897.771 606.528 898.1 606.808 898.121 607.186L903.939 711.265C903.96 711.642 903.671 711.965 903.293 711.986C903.28 711.986 903.267 711.987 903.254 711.987Z" fill="#141414"/>
<path d="M974.031 550.616L987.217 921.203L974.031 550.616Z" fill="white"/>
<path d="M987.217 921.888C986.849 921.888 986.546 921.597 986.532 921.228L973.347 550.64C973.333 550.262 973.629 549.945 974.007 549.931C974.395 549.917 974.703 550.214 974.716 550.591L987.902 921.179C987.915 921.557 987.619 921.874 987.241 921.888C987.233 921.888 987.225 921.888 987.217 921.888Z" fill="#141414"/>
<path d="M900.346 659.263L836.744 921.203L900.346 659.263Z" fill="white"/>
<path d="M836.744 921.888C836.691 921.888 836.636 921.882 836.582 921.869C836.214 921.78 835.988 921.409 836.078 921.042L899.68 659.101C899.769 658.734 900.141 658.509 900.507 658.597C900.875 658.686 901.1 659.057 901.011 659.424L837.409 921.365C837.333 921.678 837.053 921.888 836.744 921.888Z" fill="#141414"/>
<path d="M764.92 921.203L731.246 940.733C727.888 942.681 725.821 946.267 725.821 950.147C725.821 956.159 730.696 961.032 736.711 961.032H847.368C853.57 961.032 858.519 955.863 858.248 949.671L857 921.203H764.92V921.203Z" fill="#141414"/>
<path d="M1006.82 921.203L1040.5 940.733C1043.86 942.681 1045.92 946.267 1045.92 950.147C1045.92 956.159 1041.05 961.032 1035.03 961.032H924.376C918.175 961.032 913.226 955.863 913.497 949.671L914.744 921.203H1006.82V921.203Z" fill="#141414"/>
<path d="M932.996 314.847C933.077 323.118 933.24 329.007 933.24 329.007C933.24 329.007 929.258 344.324 905.985 344.847C882.711 345.368 884.539 327.833 884.539 327.833L884.213 318.632L883.772 306.332L883.707 304.31L900.975 299.318L933.241 289.987C932.963 298.552 932.946 307.621 932.996 314.847Z" fill="white"/>
<path d="M904.972 345.543C897.296 345.543 891.567 343.549 887.933 339.608C883.38 334.671 883.793 328.483 883.853 327.812L883.022 304.332C883.012 304.019 883.215 303.739 883.516 303.652L933.049 289.329C933.26 289.268 933.487 289.311 933.661 289.446C933.833 289.58 933.932 289.79 933.925 290.009C933.698 297 933.616 305.355 933.68 314.842C933.761 323.011 933.923 328.93 933.925 328.989C933.927 329.053 933.919 329.117 933.903 329.18C933.862 329.338 929.519 345.004 906 345.531C905.654 345.539 905.311 345.543 904.972 345.543ZM884.408 304.82L884.456 306.311L885.223 327.809C885.224 327.84 885.223 327.873 885.22 327.903C885.214 327.964 884.653 334.045 888.953 338.695C892.471 342.498 898.198 344.335 905.969 344.163C917.716 343.9 924.323 339.745 927.797 336.306C931.238 332.899 932.377 329.499 932.552 328.921C932.53 328.085 932.385 322.436 932.31 314.856C932.31 314.855 932.31 314.854 932.31 314.854C932.249 305.77 932.321 297.72 932.525 290.907L884.408 304.82Z" fill="#141414"/>
<path d="M932.995 314.847C924.72 322.416 907.682 327.784 884.213 318.632L883.772 306.332L900.974 299.318L933.24 289.987C932.962 298.552 932.946 307.621 932.995 314.847Z" fill="#141414"/>
<path d="M898.407 318.44C923.731 317.232 940.097 282.003 940.097 282.003C940.097 282.003 948.435 286.364 952.701 277.061C956.968 267.757 948.339 262.912 943.975 263.881C939.612 264.85 937.479 272.119 937.479 272.119L928.269 260.683C928.269 260.683 891.814 256.807 866.993 218.432C858.849 229.867 860.788 250.218 862.146 260.102C863.503 269.987 852.838 320.615 898.407 318.44Z" fill="white"/>
<path d="M895.647 319.192C885.443 319.192 877.423 316.372 871.775 310.791C860.315 299.468 861.033 279.599 861.463 267.729C861.584 264.385 861.679 261.744 861.467 260.195C858.78 240.623 860.451 226.438 866.435 218.035C866.567 217.85 866.77 217.738 867.009 217.748C867.236 217.753 867.445 217.87 867.568 218.061C891.929 255.726 927.979 259.965 928.341 260.003C928.522 260.022 928.688 260.113 928.802 260.255L937.237 270.726C938.08 268.524 940.22 264.014 943.827 263.213C946.257 262.675 950.158 263.728 952.599 266.747C954.898 269.588 955.155 273.352 953.324 277.346C951.923 280.403 949.942 282.387 947.44 283.242C944.488 284.251 941.659 283.393 940.424 282.898C939.356 285.054 935.422 292.618 929.281 300.2C919.659 312.077 908.994 318.621 898.44 319.124C897.492 319.17 896.56 319.192 895.647 319.192ZM898.374 317.757L898.407 318.441L898.374 317.757C922.988 316.582 939.314 282.064 939.476 281.715C939.555 281.546 939.7 281.416 939.876 281.356C940.053 281.295 940.248 281.31 940.413 281.397C940.446 281.413 943.713 283.075 947.009 281.942C949.135 281.211 950.842 279.473 952.078 276.776C954.133 272.295 952.917 269.317 951.534 267.607C949.516 265.112 946.182 264.094 944.124 264.55C940.21 265.419 938.158 272.243 938.137 272.311C938.065 272.556 937.863 272.74 937.613 272.79C937.363 272.839 937.106 272.746 936.947 272.547L927.909 261.327C924.43 260.848 890.515 255.305 866.985 219.668C861.753 227.8 860.313 241.709 862.825 260.008C863.054 261.674 862.956 264.368 862.834 267.777C862.412 279.423 861.706 298.916 872.739 309.817C878.608 315.618 887.233 318.29 898.374 317.757Z" fill="#141414"/>
<path d="M902.875 272.851C904.421 272.851 905.675 271.598 905.675 270.052C905.675 268.507 904.421 267.254 902.875 267.254C901.329 267.254 900.076 268.507 900.076 270.052C900.076 271.598 901.329 272.851 902.875 272.851Z" fill="#141414"/>
<path d="M870.517 271.979C872.064 271.979 873.317 270.726 873.317 269.181C873.317 267.635 872.064 266.383 870.517 266.383C868.971 266.383 867.718 267.635 867.718 269.181C867.718 270.726 868.971 271.979 870.517 271.979Z" fill="#141414"/>
<path d="M884.55 284.692C884.42 284.692 884.288 284.655 884.171 284.577L881.953 283.099C879.57 281.512 878.751 278.39 880.044 275.839L886.121 263.856C886.292 263.519 886.703 263.384 887.042 263.555C887.38 263.726 887.514 264.138 887.343 264.475L881.267 276.457C880.286 278.392 880.908 280.756 882.713 281.959L884.931 283.438C885.245 283.647 885.33 284.072 885.12 284.387C884.99 284.585 884.772 284.692 884.55 284.692Z" fill="#141414"/>
<path d="M910.656 261.651C910.496 261.651 910.336 261.596 910.206 261.483C909.98 261.286 904.578 256.686 898.328 260.044C897.994 260.223 897.58 260.098 897.401 259.765C897.222 259.432 897.347 259.017 897.68 258.838C904.78 255.025 911.045 260.399 911.108 260.453C911.393 260.702 911.421 261.133 911.172 261.417C911.036 261.573 910.847 261.651 910.656 261.651Z" fill="#141414"/>
<path d="M865.327 260.101C865.112 260.101 864.901 260.001 864.768 259.812C864.55 259.503 864.622 259.077 864.931 258.858C864.998 258.81 871.785 254.107 878.454 258.633C878.767 258.845 878.849 259.271 878.636 259.584C878.424 259.897 877.998 259.98 877.685 259.766C871.813 255.783 865.969 259.803 865.723 259.976C865.602 260.061 865.464 260.101 865.327 260.101Z" fill="#141414"/>
<path d="M944.484 277.431C944.347 277.431 944.21 277.391 944.09 277.306C941.993 275.83 942.231 272.644 943.654 270.54C945.062 268.457 947.189 267.9 949.074 269.121C949.392 269.327 949.483 269.751 949.277 270.068C949.07 270.386 948.646 270.476 948.329 270.27C946.497 269.083 945.156 270.763 944.789 271.306C943.723 272.882 943.505 275.219 944.878 276.186C945.188 276.403 945.262 276.831 945.044 277.139C944.911 277.33 944.699 277.431 944.484 277.431Z" fill="#141414"/>
<path d="M868.384 285.423C861.868 285.423 856.567 280.124 856.567 273.612C856.567 267.099 861.869 261.8 868.384 261.8C874.9 261.8 880.201 267.099 880.201 273.612C880.201 280.125 874.901 285.423 868.384 285.423ZM868.384 263.169C862.623 263.169 857.937 267.853 857.937 273.611C857.937 279.369 862.624 284.053 868.384 284.053C874.144 284.053 878.831 279.369 878.831 273.611C878.831 267.853 874.145 263.169 868.384 263.169Z" fill="#141414"/>
<path d="M900.076 285.423C893.559 285.423 888.259 280.124 888.259 273.612C888.259 267.099 893.56 261.8 900.076 261.8C906.591 261.8 911.893 267.099 911.893 273.612C911.893 280.125 906.592 285.423 900.076 285.423ZM900.076 263.169C894.315 263.169 889.629 267.853 889.629 273.611C889.629 279.369 894.316 284.053 900.076 284.053C905.836 284.053 910.523 279.369 910.523 273.611C910.523 267.853 905.837 263.169 900.076 263.169Z" fill="#141414"/>
<path d="M889.687 270.304H878.771C878.393 270.304 878.086 269.997 878.086 269.619C878.086 269.241 878.393 268.934 878.771 268.934H889.687C890.065 268.934 890.372 269.241 890.372 269.619C890.372 269.997 890.065 270.304 889.687 270.304Z" fill="#141414"/>
<path d="M936.704 268.679H909.679C909.301 268.679 908.994 268.372 908.994 267.994C908.994 267.616 909.301 267.31 909.679 267.31H936.704C937.083 267.31 937.389 267.616 937.389 267.994C937.389 268.372 937.083 268.679 936.704 268.679Z" fill="#141414"/>
<path d="M883.426 296.232C883.613 301.253 887.745 305.179 892.727 305.173C892.841 305.185 892.955 305.181 893.07 305.177C896.691 305.041 899.777 302.853 901.18 299.764C901.786 298.485 902.091 297.053 902.035 295.537L883.426 296.232Z" fill="#141414"/>
<path d="M892.673 304.619C892.68 304.815 892.703 304.994 892.726 305.172C892.841 305.185 892.955 305.18 893.069 305.176C896.69 305.04 899.777 302.852 901.18 299.764C900.259 299.161 899.153 298.843 897.979 298.887C894.929 299.002 892.559 301.571 892.673 304.619Z" fill="white"/>
<path d="M892.893 305.865C892.827 305.865 892.761 305.863 892.694 305.857C887.312 305.847 882.942 301.636 882.741 296.257C882.734 296.076 882.8 295.899 882.924 295.766C883.047 295.633 883.219 295.554 883.4 295.547L902.009 294.852C902.193 294.839 902.368 294.911 902.501 295.035C902.634 295.158 902.713 295.33 902.719 295.511C902.779 297.11 902.469 298.64 901.799 300.057C900.24 303.491 896.902 305.719 893.095 305.861C893.027 305.863 892.96 305.865 892.893 305.865ZM892.726 304.488C892.75 304.488 892.774 304.489 892.797 304.491C892.879 304.499 892.961 304.494 893.042 304.491C896.278 304.371 899.227 302.404 900.556 299.48C901.038 298.459 901.304 297.377 901.349 296.246L884.161 296.889C884.661 301.203 888.293 304.487 892.714 304.487C892.718 304.488 892.723 304.486 892.726 304.488Z" fill="#141414"/>
<path d="M879.516 325.859C868.851 323.146 855.165 310.504 859.625 306.72C864.085 302.936 894.141 319.604 894.141 319.604C894.141 319.604 901.947 312.626 909.679 320.185C917.41 327.744 918.961 349.064 918.961 349.064L951.732 437.637L955.222 433.76C955.222 433.76 981.787 447.521 993.228 466.709C993.228 466.709 969.765 515.55 947.271 513.805C924.778 512.061 912.367 494.424 907.52 469.422C902.672 444.42 883.425 366.894 883.425 366.894C883.425 366.894 868.35 368.833 866.217 358.948C864.084 349.064 870.289 344.858 870.289 344.858C870.289 344.858 864.922 330.009 879.516 325.859Z" fill="white"/>
<path d="M948.476 514.537C948.054 514.537 947.636 514.521 947.219 514.488C926.192 512.857 912.231 497.319 906.847 469.552C902.278 445.982 884.67 374.767 882.903 367.631C879.983 367.86 867.532 368.29 865.548 359.092C863.646 350.281 868.063 345.796 869.489 344.611C868.975 342.92 867.548 337.15 870.14 332.092C871.568 329.307 873.969 327.228 877.295 325.891C869.079 322.963 859.413 314.954 858.203 309.731C857.771 307.862 858.497 306.778 859.182 306.197C863.705 302.356 889.506 316.269 894.071 318.782C895.802 317.468 903.057 312.753 910.157 319.694C917.796 327.162 919.5 347.139 919.637 348.914L951.981 436.335L954.712 433.301C954.921 433.07 955.26 433.009 955.536 433.151C955.804 433.289 982.408 447.223 993.816 466.357C993.934 466.555 993.944 466.798 993.844 467.004C993.786 467.126 987.853 479.407 979.239 491.311C968.083 506.731 957.74 514.536 948.476 514.537ZM883.426 366.21C883.737 366.21 884.014 366.421 884.09 366.729C884.283 367.504 903.397 444.558 908.193 469.292C911.856 488.187 921.619 511.13 947.324 513.123C968.157 514.744 990.337 471.007 992.448 466.743C986.579 457.074 976.778 448.837 969.551 443.607C962.815 438.733 957.017 435.506 955.372 434.617L952.24 438.095C952.08 438.274 951.838 438.355 951.603 438.309C951.367 438.265 951.172 438.099 951.089 437.875L918.318 349.301C918.296 349.241 918.282 349.178 918.277 349.114C918.262 348.903 916.655 327.965 909.199 320.675C902.029 313.664 894.896 319.848 894.596 320.115C894.379 320.308 894.063 320.343 893.808 320.202C882.347 313.847 863.054 304.71 860.067 307.241C859.486 307.735 859.313 308.449 859.538 309.424C860.632 314.155 870.989 322.983 879.684 325.195C879.984 325.272 880.196 325.54 880.2 325.849C880.204 326.159 880 326.433 879.703 326.518C875.693 327.658 872.887 329.741 871.363 332.709C868.622 338.047 870.91 344.561 870.934 344.626C871.039 344.921 870.933 345.249 870.673 345.425C870.438 345.587 864.884 349.524 866.886 358.804C867.706 362.6 870.677 365.005 875.717 365.95C879.602 366.679 883.3 366.221 883.337 366.217C883.368 366.211 883.397 366.21 883.426 366.21Z" fill="#141414"/>
<path d="M870.29 345.543C870.108 345.543 869.927 345.472 869.792 345.329C869.532 345.056 869.544 344.622 869.818 344.361C876.473 338.052 885.987 342.194 886.082 342.236C886.427 342.39 886.582 342.795 886.428 343.14C886.273 343.485 885.87 343.64 885.523 343.487C885.437 343.448 876.744 339.682 870.761 345.355C870.629 345.481 870.459 345.543 870.29 345.543Z" fill="#141414"/>
<path d="M887.935 328.041C887.794 328.041 887.653 327.999 887.531 327.909C887.504 327.89 884.64 325.881 879.604 326.538C879.233 326.583 878.886 326.323 878.836 325.948C878.788 325.573 879.051 325.23 879.427 325.18C885.038 324.449 888.206 326.707 888.339 326.804C888.644 327.027 888.711 327.456 888.488 327.76C888.354 327.944 888.146 328.041 887.935 328.041Z" fill="#141414"/>
<path d="M883.426 366.894C882.385 357.857 876.858 356.404 876.858 356.404L883.426 366.894Z" fill="white"/>
<path d="M883.425 367.579C883.082 367.579 882.786 367.322 882.745 366.972C881.777 358.562 876.888 357.122 876.681 357.065C876.318 356.965 876.101 356.59 876.199 356.227C876.297 355.863 876.669 355.648 877.033 355.742C877.277 355.806 883.025 357.423 884.106 366.816C884.149 367.191 883.88 367.531 883.504 367.575C883.477 367.578 883.451 367.579 883.425 367.579Z" fill="#141414"/>
<path d="M894.141 319.604C901.218 320.573 905.675 326.538 905.675 326.538L894.141 319.604Z" fill="white"/>
<path d="M905.676 327.222C905.467 327.222 905.261 327.128 905.126 326.948C905.083 326.891 900.745 321.199 894.048 320.282C893.673 320.231 893.411 319.886 893.462 319.511C893.513 319.137 893.861 318.873 894.233 318.926C901.511 319.923 906.034 325.876 906.224 326.129C906.45 326.432 906.387 326.861 906.084 327.086C905.962 327.178 905.818 327.222 905.676 327.222Z" fill="#141414"/>
<path d="M951.731 437.636L960.264 454.886L951.731 437.636Z" fill="white"/>
<path d="M960.264 455.57C960.012 455.57 959.769 455.431 959.65 455.189L951.118 437.939C950.95 437.601 951.089 437.19 951.428 437.022C951.768 436.854 952.178 436.993 952.346 437.332L960.878 454.582C961.046 454.921 960.907 455.331 960.568 455.499C960.47 455.548 960.366 455.57 960.264 455.57Z" fill="#141414"/>
<path d="M813.557 511.098H793.599C793.22 511.098 792.914 510.791 792.914 510.414C792.914 510.036 793.22 509.729 793.599 509.729H813.557C813.936 509.729 814.242 510.036 814.242 510.414C814.242 510.791 813.936 511.098 813.557 511.098Z" fill="#141414"/>
<path d="M815.019 607.841C814.255 607.841 813.527 607.669 812.849 607.321C809.73 605.719 808.369 600.761 809.208 594.057C810.944 580.171 814.743 570.949 814.782 570.857C814.927 570.509 815.328 570.342 815.677 570.489C816.026 570.634 816.191 571.035 816.046 571.384C816.008 571.474 812.279 580.538 810.567 594.227C809.814 600.245 810.928 604.796 813.475 606.103C815.205 606.991 817.494 606.247 819.919 604.007C820.197 603.751 820.631 603.768 820.887 604.046C821.144 604.324 821.127 604.757 820.849 605.013C818.826 606.88 816.822 607.841 815.019 607.841Z" fill="#141414"/>
<path d="M956.697 432.229C956.567 432.229 956.435 432.192 956.318 432.115C956.004 431.906 955.918 431.48 956.128 431.165L981.197 393.531C981.407 393.216 981.832 393.13 982.147 393.34C982.461 393.55 982.547 393.975 982.337 394.29L957.269 431.925C957.136 432.123 956.918 432.229 956.697 432.229Z" fill="white"/>
<path d="M832.94 463.292C832.596 463.292 832.299 463.034 832.26 462.683C831.807 458.653 830.791 454.534 829.715 450.173C826.142 435.687 822.091 419.267 837.676 399.525C837.911 399.228 838.342 399.178 838.639 399.411C838.936 399.645 838.986 400.076 838.753 400.373C823.583 419.59 827.547 435.663 831.046 449.845C832.133 454.25 833.16 458.412 833.622 462.531C833.664 462.907 833.394 463.245 833.018 463.287C832.991 463.291 832.966 463.292 832.94 463.292Z" fill="white"/>
<path d="M167.492 317.881L166.732 320.946C166.522 321.793 165.318 321.793 165.108 320.946L164.348 317.881C163.7 315.267 161.658 313.227 159.044 312.579L155.978 311.82C155.13 311.61 155.13 310.406 155.978 310.196L159.044 309.437C161.659 308.789 163.7 306.748 164.348 304.134L165.108 301.07C165.318 300.223 166.523 300.223 166.732 301.07L167.492 304.134C168.14 306.748 170.182 308.789 172.797 309.437L175.863 310.196C176.71 310.407 176.71 311.61 175.863 311.82L172.797 312.579C170.182 313.227 168.141 315.267 167.492 317.881Z" fill="#141414"/>
<path d="M691.928 83.415L691.168 86.4796C690.958 87.3265 689.754 87.3265 689.544 86.4796L688.785 83.415C688.137 80.8009 686.095 78.7606 683.48 78.1129L680.414 77.3536C679.566 77.1435 679.566 75.9398 680.414 75.7303L683.48 74.971C686.095 74.3233 688.137 72.2823 688.785 69.6689L689.544 66.6044C689.754 65.7574 690.959 65.7574 691.168 66.6044L691.928 69.6689C692.576 72.283 694.618 74.3233 697.233 74.971L700.299 75.7303C701.147 75.9405 701.147 77.1441 700.299 77.3536L697.233 78.1129C694.618 78.7599 692.577 80.8009 691.928 83.415Z" fill="#141414"/>
<path d="M956.794 132.147L956.035 135.211C955.824 136.058 954.62 136.058 954.411 135.211L953.651 132.147C953.003 129.533 950.961 127.492 948.346 126.845L945.28 126.085C944.432 125.875 944.432 124.672 945.28 124.462L948.346 123.703C950.961 123.055 953.002 121.014 953.651 118.401L954.411 115.336C954.621 114.489 955.825 114.489 956.035 115.336L956.794 118.401C957.442 121.015 959.484 123.055 962.1 123.703L965.166 124.462C966.013 124.672 966.013 125.876 965.166 126.085L962.1 126.845C959.484 127.492 957.442 129.533 956.794 132.147Z" fill="#141414"/>
<path d="M1068.65 353.074L1067.89 356.139C1067.68 356.986 1066.48 356.986 1066.27 356.139L1065.51 353.074C1064.86 350.46 1062.82 348.42 1060.2 347.772L1057.14 347.013C1056.29 346.803 1056.29 345.599 1057.14 345.39L1060.2 344.63C1062.82 343.983 1064.86 341.942 1065.51 339.328L1066.27 336.264C1066.48 335.417 1067.68 335.417 1067.89 336.264L1068.65 339.328C1069.3 341.942 1071.34 343.983 1073.96 344.63L1077.02 345.39C1077.87 345.6 1077.87 346.803 1077.02 347.013L1073.96 347.772C1071.34 348.42 1069.3 350.461 1068.65 353.074Z" fill="#141414"/>
<path d="M318.177 113.845L317.417 116.91C317.207 117.756 316.002 117.756 315.793 116.91L315.033 113.845C314.385 111.231 312.343 109.191 309.728 108.543L306.662 107.784C305.815 107.573 305.815 106.37 306.662 106.16L309.728 105.401C312.344 104.753 314.385 102.712 315.033 100.099L315.793 97.0344C316.003 96.1874 317.207 96.1874 317.417 97.0344L318.177 100.099C318.825 102.713 320.867 104.753 323.481 105.401L326.547 106.16C327.395 106.37 327.395 107.574 326.547 107.784L323.481 108.543C320.867 109.191 318.825 111.232 318.177 113.845Z" fill="#141414"/>
<path d="M516.562 300.983L556.345 315.638L554.364 321.011L514.581 306.357L516.562 300.983Z" fill="#141414"/>
<path d="M516.562 300.983L556.345 315.638L554.364 321.011L514.581 306.357L516.562 300.983Z" fill="white"/>
<path d="M554.36 321.706C554.28 321.706 554.2 321.692 554.123 321.664L514.34 307.009C513.984 306.878 513.803 306.484 513.934 306.13L515.915 300.756C515.978 300.585 516.106 300.447 516.272 300.371C516.437 300.295 516.625 300.287 516.795 300.35L556.579 315.006C556.934 315.136 557.116 315.53 556.985 315.885L555.003 321.259C554.94 321.429 554.812 321.567 554.647 321.643C554.556 321.685 554.458 321.706 554.36 321.706ZM515.456 305.961L553.954 320.143L555.462 316.054L516.964 301.872L515.456 305.961Z" fill="#141414"/>
<path d="M562.521 320.97L558.038 321.005L554.361 321.024L556.342 315.651L559.127 318.05L562.521 320.97Z" fill="white"/>
<path d="M554.361 321.708C554.138 321.708 553.928 321.6 553.8 321.417C553.671 321.233 553.64 320.998 553.718 320.787L555.699 315.414C555.777 315.203 555.953 315.044 556.17 314.988C556.387 314.931 556.619 314.986 556.789 315.132L562.967 320.451C563.184 320.636 563.262 320.937 563.164 321.205C563.066 321.473 562.811 321.652 562.526 321.654L554.364 321.708C554.363 321.708 554.362 321.708 554.361 321.708ZM556.643 316.814L555.345 320.334L560.691 320.299L556.643 316.814Z" fill="#141414"/>
<path d="M562.521 320.97L558.038 321.005L559.127 318.05L562.521 320.97Z" fill="#141414"/>
<path d="M305.609 614.236H178.232C177.274 614.236 176.499 613.46 176.499 612.503V516.009C176.499 515.053 177.275 514.277 178.232 514.277H305.609C306.566 514.277 307.342 515.053 307.342 516.009V612.503C307.342 613.46 306.565 614.236 305.609 614.236Z" fill="white"/>
<path d="M305.608 614.92H178.232C176.898 614.92 175.814 613.836 175.814 612.503V516.01C175.814 514.677 176.899 513.592 178.232 513.592H305.608C306.942 513.592 308.027 514.677 308.027 516.01V612.503C308.026 613.836 306.941 614.92 305.608 614.92ZM178.232 514.962C177.654 514.962 177.184 515.432 177.184 516.01V612.503C177.184 613.081 177.655 613.552 178.232 613.552H305.608C306.187 613.552 306.657 613.081 306.657 612.503V516.01C306.657 515.432 306.187 514.962 305.608 514.962H178.232Z" fill="#141414"/>
<path d="M207.126 588.161C206.748 588.161 206.441 587.854 206.441 587.476V541.037C206.441 540.659 206.748 540.352 207.126 540.352C207.505 540.352 207.811 540.659 207.811 541.037V587.476C207.811 587.854 207.505 588.161 207.126 588.161Z" fill="#141414"/>
<path d="M219.627 588.161C219.249 588.161 218.942 587.854 218.942 587.476V541.037C218.942 540.659 219.249 540.352 219.627 540.352C220.005 540.352 220.312 540.659 220.312 541.037V587.476C220.312 587.854 220.006 588.161 219.627 588.161Z" fill="#141414"/>
<path d="M232.128 588.161C231.75 588.161 231.443 587.854 231.443 587.476V558.426C231.443 558.048 231.75 557.741 232.128 557.741C232.506 557.741 232.813 558.048 232.813 558.426V587.476C232.813 587.854 232.506 588.161 232.128 588.161Z" fill="#141414"/>
<path d="M244.628 588.161C244.25 588.161 243.943 587.854 243.943 587.476V541.037C243.943 540.659 244.25 540.352 244.628 540.352C245.006 540.352 245.313 540.659 245.313 541.037V587.476C245.313 587.854 245.007 588.161 244.628 588.161Z" fill="#141414"/>
<path d="M257.13 588.161C256.752 588.161 256.445 587.854 256.445 587.476V557.176C256.445 556.798 256.752 556.492 257.13 556.492C257.508 556.492 257.815 556.798 257.815 557.176V587.476C257.815 587.854 257.508 588.161 257.13 588.161Z" fill="#141414"/>
<path d="M269.63 588.161C269.252 588.161 268.945 587.854 268.945 587.476V541.037C268.945 540.659 269.252 540.352 269.63 540.352C270.008 540.352 270.315 540.659 270.315 541.037V587.476C270.315 587.854 270.009 588.161 269.63 588.161Z" fill="#141414"/>
<path d="M282.132 588.161C281.754 588.161 281.447 587.854 281.447 587.476V554.677C281.447 554.299 281.754 553.993 282.132 553.993C282.51 553.993 282.817 554.299 282.817 554.677V587.476C282.817 587.854 282.51 588.161 282.132 588.161Z" fill="#141414"/>
<path d="M481.521 409.32L512.148 336.573C512.148 336.573 516.732 319.357 523.399 313.666C530.066 307.973 542.29 298.186 545.206 301.032C548.123 303.878 536.386 316.234 536.386 316.234C536.386 316.234 542.012 316.859 541.734 322.343C548.401 322.967 548.818 331.09 545.137 336.643C541.457 342.196 535.345 341.78 535.345 341.78L509.382 466.791C507.255 477.028 498.9 484.81 488.534 486.211C480.112 487.348 471.698 484.072 466.265 477.541L446.936 454.303L481.521 409.32Z" fill="white"/>
<path d="M485.175 487.121C477.696 487.121 470.613 483.838 465.738 477.977L446.409 454.74C446.204 454.494 446.197 454.139 446.392 453.885L480.925 408.973L511.5 336.35C511.822 335.151 516.311 318.817 522.956 313.145C541.966 296.915 544.766 299.644 545.686 300.541C548.599 303.383 540.788 312.466 537.712 315.817C539.771 316.445 542.327 318.16 542.427 321.742C544.68 322.12 546.362 323.358 547.315 325.352C548.852 328.563 548.206 333.252 545.709 337.02C542.499 341.861 537.607 342.426 535.901 342.468L510.052 466.929C507.87 477.43 499.26 485.452 488.625 486.888C487.47 487.044 486.318 487.121 485.175 487.121ZM447.812 454.285L466.792 477.102C472.108 483.492 480.201 486.643 488.442 485.531C498.502 484.172 506.648 476.585 508.711 466.651L534.675 341.64C534.744 341.306 535.047 341.072 535.392 341.097C535.625 341.111 541.161 341.404 544.567 336.265C546.773 332.937 547.395 328.692 546.08 325.944C545.258 324.228 543.734 323.219 541.67 323.025C541.305 322.991 541.031 322.675 541.05 322.309C541.293 317.524 536.514 316.938 536.312 316.916C536.053 316.887 535.833 316.714 535.744 316.471C535.655 316.227 535.712 315.953 535.89 315.764C541.311 310.057 546.231 302.989 544.728 301.524C544.067 300.877 540.603 299.881 523.845 314.188C517.417 319.676 512.856 336.581 512.811 336.751C512.802 336.781 512.792 336.811 512.781 336.84L482.154 409.588C482.131 409.642 482.101 409.694 482.065 409.74L447.812 454.285ZM481.521 409.32H481.528H481.521Z" fill="#141414"/>
<path d="M385.644 221.703C388.631 229.824 387.728 253.425 387.728 253.425C387.728 253.425 393.076 264.254 393.353 266.129C393.631 268.002 386.478 270.432 386.478 270.432C386.478 270.432 384.325 298.823 375.366 300.212C366.407 301.6 361.406 298.685 361.406 298.685L361.267 313.332C361.267 313.332 316.82 313.887 316.611 313.957C316.403 314.026 321.056 281.748 321.056 281.748L325.338 254.738C326.748 245.839 331.111 237.672 337.726 231.55C345.592 224.271 356.042 220.434 366.752 220.893L385.644 221.703Z" fill="white"/>
<path d="M316.611 314.641C316.452 314.641 316.295 314.585 316.17 314.481C315.768 314.146 315.768 314.146 318.089 297.701C319.222 289.666 320.378 281.649 320.378 281.649L324.66 254.631C326.089 245.621 330.563 237.245 337.26 231.048C345.204 223.696 355.962 219.74 366.78 220.209L385.673 221.019C385.949 221.03 386.192 221.207 386.287 221.466C389.183 229.343 388.502 250.942 388.419 253.277C389.24 254.945 393.756 264.173 394.031 266.028C394.339 268.103 389.606 270.057 387.124 270.933C386.797 274.735 384.325 299.516 375.471 300.888C368.6 301.952 364.008 300.559 362.081 299.761L361.953 313.338C361.949 313.71 361.648 314.011 361.276 314.016C346.276 314.203 317.739 314.573 316.691 314.636C316.664 314.639 316.638 314.641 316.611 314.641ZM365.064 221.541C355.176 221.541 345.463 225.322 338.191 232.052C331.719 238.042 327.394 246.137 326.014 254.845L321.733 281.854C320.11 293.111 317.761 309.681 317.351 313.258C319.759 313.195 328.46 313.057 360.589 312.655L360.721 298.678C360.723 298.435 360.855 298.21 361.068 298.089C361.28 297.97 361.54 297.971 361.751 298.094C361.798 298.12 366.684 300.864 375.26 299.535C378.623 299.014 381.511 293.867 383.613 284.649C385.241 277.51 385.789 270.451 385.794 270.381C385.815 270.108 385.997 269.873 386.256 269.785C389.98 268.519 392.764 266.834 392.675 266.229C392.482 264.932 389.243 258.043 387.113 253.729C387.062 253.627 387.038 253.514 387.042 253.4C387.051 253.169 387.876 230.648 385.149 222.367L366.721 221.577C366.169 221.553 365.617 221.541 365.064 221.541Z" fill="#141414"/>
<path d="M387.623 222.986C375.643 230.796 358.141 227.567 358.141 227.567L347.307 252.661C347.307 252.661 345.015 244.54 336.473 248.496C327.931 252.453 331.265 265.989 341.682 264.427C341.682 264.427 337.099 293.478 320.014 294.415C302.928 295.352 297.512 289.521 301.054 281.191C304.596 272.862 282.719 252.973 287.824 236.106C292.929 219.238 316.785 212.574 316.785 212.574C316.785 212.574 306.471 197.268 317.722 187.376C328.973 177.484 352.621 180.296 365.538 184.669C378.456 189.042 398.457 177.276 404.916 186.335C411.375 195.394 412.938 215.49 387.623 222.986Z" fill="#141414"/>
<path d="M361.405 299.369C361.288 299.369 361.17 299.339 361.061 299.276C353.754 295.019 349.572 291.228 349.398 291.068C349.118 290.813 349.099 290.38 349.354 290.101C349.609 289.821 350.042 289.802 350.322 290.057C350.364 290.095 354.581 293.915 361.751 298.093C362.078 298.283 362.188 298.702 361.998 299.029C361.87 299.247 361.641 299.369 361.405 299.369Z" fill="#141414"/>
<path d="M340.329 260.375C340.101 260.375 339.879 260.262 339.749 260.056C339.547 259.737 339.642 259.314 339.962 259.111C340.049 259.055 342.142 257.678 341.836 255.192C341.692 254.017 340.557 253.368 339.546 253.428C338.395 253.492 337.697 254.395 337.68 255.846C337.675 256.224 337.375 256.51 336.986 256.523C336.608 256.518 336.305 256.208 336.31 255.83C336.342 253.175 338.032 252.14 339.47 252.061C341.116 251.974 342.954 253.056 343.196 255.026C343.609 258.386 340.814 260.194 340.694 260.27C340.581 260.34 340.454 260.375 340.329 260.375Z" fill="#141414"/>
<path d="M376.893 254.328C378.447 254.328 379.706 253.069 379.706 251.516C379.706 249.964 378.447 248.705 376.893 248.705C375.34 248.705 374.081 249.964 374.081 251.516C374.081 253.069 375.34 254.328 376.893 254.328Z" fill="#141414"/>
<path d="M370.505 243.211C370.291 243.211 370.079 243.111 369.945 242.923C369.727 242.614 369.8 242.187 370.108 241.969C370.378 241.776 376.793 237.312 382.647 240.612C382.977 240.797 383.093 241.215 382.908 241.544C382.722 241.874 382.305 241.99 381.975 241.804C376.885 238.936 370.96 243.044 370.9 243.085C370.78 243.171 370.642 243.211 370.505 243.211Z" fill="#141414"/>
<path d="M373.833 285.325C373.017 285.716 371.923 285.814 370.488 285.422C367.338 284.591 366.603 282.209 366.636 280.121C366.652 278.131 367.354 276.402 367.354 276.402C367.354 276.402 372.984 279.599 376.395 280.007C376.396 280.006 376.51 284.117 373.833 285.325Z" fill="#141414"/>
<path d="M373.833 285.325C373.017 285.716 371.923 285.814 370.488 285.422C367.338 284.591 366.603 282.209 366.636 280.121C366.88 280.088 367.142 280.072 367.403 280.072C370.586 280.072 373.23 282.323 373.833 285.325Z" fill="white"/>
<path d="M372.193 286.356C371.608 286.356 370.98 286.267 370.31 286.087C368.553 285.618 367.305 284.666 366.599 283.256C365.101 280.263 366.659 276.313 366.726 276.147C366.8 275.963 366.949 275.821 367.136 275.756C367.322 275.691 367.529 275.71 367.701 275.808C367.755 275.839 373.239 278.947 376.471 279.332C376.808 279.372 377.065 279.653 377.074 279.992C377.078 280.144 377.152 283.715 374.956 285.45C374.193 286.053 373.268 286.356 372.193 286.356ZM367.753 277.399C367.416 278.569 366.944 280.889 367.827 282.648C368.357 283.705 369.285 284.398 370.664 284.765C372.126 285.155 373.283 285.025 374.104 284.379C375.323 283.419 375.615 281.536 375.684 280.594C372.931 280.066 369.293 278.225 367.753 277.399Z" fill="#141414"/>
<path d="M355.959 303.353C394.989 301.557 421.517 318.317 435.059 337.683C448.602 357.05 481.521 409.32 481.521 409.32C481.521 409.32 482.354 446.805 446.935 454.302L430.267 434.102L430.475 557.454H261.018V437.503L248.795 458.05L206.57 428.097C206.57 428.097 237.759 327.4 276.096 314.628C314.432 301.855 318.248 305.088 355.959 303.353Z" fill="#141414"/>
<path d="M431.162 558.138H260.334V439.994L249.004 459.038L205.769 428.369L205.915 427.895C205.993 427.643 213.871 402.368 226.336 375.861C243.126 340.157 259.795 319.336 275.879 313.978C305.983 303.948 314.613 303.761 335.462 303.311C341.218 303.186 347.742 303.045 355.927 302.669C404.438 300.438 427.821 326.137 435.62 337.291C449.018 356.45 481.771 408.432 482.1 408.956L482.201 409.116L482.205 409.305C482.214 409.693 482.368 418.937 478.144 429.259C474.232 438.817 465.666 451.037 447.076 454.971L446.67 455.057L430.955 436.012L431.162 558.138ZM261.704 556.769H429.79L429.579 432.191L447.198 453.544C461.419 450.419 471.397 442.09 476.858 428.784C480.667 419.504 480.836 410.878 480.837 409.52C478.781 406.258 447.499 356.668 434.498 338.075C426.828 327.107 403.829 301.829 355.99 304.036L355.959 303.352L355.99 304.036C347.788 304.413 341.255 304.554 335.491 304.679C314.789 305.126 306.22 305.311 276.312 315.276C256.741 321.796 239.011 352.13 227.582 376.429C216.093 400.858 208.512 424.239 207.372 427.826L248.585 457.062L261.702 435.011V556.769H261.704Z" fill="#141414"/>
<path d="M261.018 438.188C260.64 438.188 260.333 437.881 260.333 437.503V381.693C260.333 381.316 260.64 381.009 261.018 381.009C261.397 381.009 261.703 381.316 261.703 381.693V437.503C261.703 437.881 261.397 438.188 261.018 438.188Z" fill="white"/>
<path d="M430.268 434.787C430.051 434.787 429.837 434.684 429.705 434.492L401.578 393.867C401.363 393.557 401.44 393.13 401.751 392.915C402.062 392.7 402.489 392.778 402.704 393.088L430.831 433.712C431.046 434.023 430.968 434.45 430.657 434.665C430.538 434.747 430.403 434.787 430.268 434.787Z" fill="white"/>
<path d="M497.877 429.06C497.684 429.06 497.492 428.979 497.357 428.821L481.002 409.766C480.756 409.479 480.789 409.047 481.076 408.801C481.363 408.554 481.796 408.587 482.042 408.874L498.397 427.929C498.643 428.216 498.61 428.649 498.323 428.894C498.194 429.005 498.035 429.06 497.877 429.06Z" fill="#141414"/>
<path d="M535.345 342.463C535.304 342.463 535.262 342.46 535.22 342.452C534.849 342.383 534.603 342.026 534.671 341.654L534.71 341.443C535.821 335.413 536.237 333.156 540.424 332.124C540.79 332.035 541.163 332.258 541.253 332.625C541.344 332.992 541.12 333.363 540.753 333.453C537.536 334.246 537.185 335.57 536.058 341.691L536.018 341.902C535.957 342.233 535.669 342.463 535.345 342.463Z" fill="#141414"/>
<path d="M531.474 327.279C531.263 327.279 531.055 327.182 530.92 326.999C530.697 326.693 530.763 326.265 531.068 326.042C531.833 325.482 538.633 320.607 541.947 321.692C542.307 321.81 542.503 322.197 542.385 322.556C542.267 322.915 541.882 323.113 541.521 322.993C539.527 322.34 534.547 325.194 531.878 327.147C531.756 327.236 531.614 327.279 531.474 327.279Z" fill="#141414"/>
<path d="M526.732 321.708C526.591 321.708 526.449 321.665 526.327 321.575C526.022 321.35 525.957 320.922 526.182 320.618C528.11 318.003 531.819 315.3 536.424 315.55C536.802 315.571 537.092 315.894 537.071 316.271C537.05 316.649 536.722 316.936 536.35 316.918C531.106 316.63 527.878 320.626 527.285 321.43C527.15 321.612 526.943 321.708 526.732 321.708Z" fill="#141414"/>
<path d="M462.559 899.529H380.338L350.893 711.281L335.192 899.529H252.544L261.015 557.452H430.472L462.559 899.529Z" fill="white"/>
<path d="M462.559 900.214H380.338C380 900.214 379.713 899.968 379.661 899.635L351.1 717.038L335.876 899.586C335.846 899.942 335.549 900.214 335.193 900.214H252.545C252.36 900.214 252.183 900.14 252.054 900.007C251.925 899.875 251.855 899.697 251.86 899.512L260.33 557.435C260.339 557.064 260.643 556.768 261.015 556.768H430.472C430.825 556.768 431.121 557.037 431.154 557.389L463.24 899.466C463.258 899.658 463.194 899.849 463.065 899.991C462.936 900.133 462.751 900.214 462.559 900.214ZM380.925 898.845H461.807L429.849 558.137H261.683L253.247 898.845H334.562L350.21 711.224C350.239 710.879 350.522 710.609 350.868 710.596C351.215 710.582 351.516 710.833 351.57 711.175L380.925 898.845Z" fill="#141414"/>
<path d="M350.886 711.964C350.553 711.964 350.262 711.721 350.209 711.383L335.07 612.812C335.012 612.438 335.269 612.089 335.643 612.032C336.017 611.974 336.366 612.231 336.424 612.604L351.564 711.175C351.621 711.549 351.364 711.899 350.99 711.955C350.955 711.961 350.92 711.964 350.886 711.964Z" fill="#141414"/>
<path d="M431.701 571.208H260.695C260.317 571.208 260.01 570.901 260.01 570.523C260.01 570.145 260.317 569.839 260.695 569.839H431.702C432.08 569.839 432.387 570.145 432.387 570.523C432.387 570.901 432.08 571.208 431.701 571.208Z" fill="#141414"/>
<path d="M323.275 948.957H213.136C205.363 948.957 199.062 942.659 199.062 934.889C199.062 929.555 202.08 924.68 206.855 922.299L252.544 899.529H335.192L337.322 934.022C337.822 942.118 331.388 948.957 323.275 948.957Z" fill="#141414"/>
<path d="M392.256 948.957H502.395C510.168 948.957 516.469 942.659 516.469 934.889C516.469 929.555 513.451 924.68 508.676 922.299L462.987 899.529H380.338L378.208 934.022C377.708 942.118 384.142 948.957 392.256 948.957Z" fill="#141414"/>
<path d="M446.935 896.887C446.588 896.887 446.291 896.625 446.254 896.273L412.572 570.594C412.533 570.217 412.807 569.881 413.183 569.842C413.557 569.804 413.896 570.076 413.934 570.453L447.617 896.132C447.656 896.509 447.382 896.845 447.006 896.884C446.982 896.886 446.959 896.887 446.935 896.887Z" fill="#141414"/>
<path d="M322.136 891.889C322.113 891.889 322.09 891.889 322.066 891.886C321.69 891.848 321.416 891.513 321.453 891.136L343.721 668.999C343.759 668.622 344.094 668.347 344.471 668.385C344.848 668.423 345.122 668.758 345.085 669.135L322.816 891.272C322.781 891.626 322.483 891.889 322.136 891.889Z" fill="#141414"/>
<path d="M188.33 514.277C181.509 498.307 181.863 480.176 189.31 464.479L206.571 428.097L248.796 458.05L228.378 492.619L235.971 514.277H188.33Z" fill="white"/>
<path d="M235.971 514.962H188.33C188.055 514.962 187.808 514.798 187.7 514.546C180.805 498.402 181.167 480.047 188.691 464.186L205.952 427.804C206.039 427.622 206.202 427.486 206.398 427.435C206.593 427.384 206.802 427.422 206.968 427.539L249.193 457.492C249.484 457.698 249.568 458.092 249.387 458.399L229.13 492.694L236.618 514.051C236.691 514.261 236.659 514.493 236.53 514.673C236.401 514.854 236.193 514.962 235.971 514.962ZM188.783 513.592H235.004L227.731 492.846C227.665 492.655 227.685 492.445 227.788 492.271L247.886 458.244L206.84 429.128L189.929 464.772C182.637 480.143 182.226 497.911 188.783 513.592Z" fill="#141414"/>
</svg>
